<svg width="80" height="80" viewBox="0 0 80 80" fill="none" xmlns="http://www.w3.org/2000/svg">
<circle cx="40.0001" cy="40" r="33.3333" fill="#B90101"/>
<circle cx="40" cy="40" r="39" stroke="#B90101" stroke-width="2"/>
<path d="M40 44.6874C42.0711 44.6874 43.75 43.0084 43.75 40.9374C43.75 38.8663 42.0711 37.1874 40 37.1874C37.9289 37.1874 36.25 38.8663 36.25 40.9374C36.25 43.0084 37.9289 44.6874 40 44.6874Z" fill="white"/>
<path d="M50.3125 33.4374H46.8555C46.6797 33.4374 46.4617 33.3237 46.2918 33.1444L44.7719 30.7456C44.7478 30.7075 44.721 30.6713 44.6916 30.6372C44.1666 30.0249 43.457 29.6874 42.6953 29.6874H37.3047C36.543 29.6874 35.8334 30.0249 35.3084 30.6372C35.279 30.6713 35.2522 30.7075 35.2281 30.7456L33.7082 33.1479C33.5781 33.2897 33.3953 33.4409 33.2031 33.4409V32.9721C33.2031 32.7235 33.1044 32.485 32.9285 32.3092C32.7527 32.1334 32.5143 32.0346 32.2656 32.0346H30.8594C30.6107 32.0346 30.3723 32.1334 30.1965 32.3092C30.0206 32.485 29.9219 32.7235 29.9219 32.9721V33.4409H29.6875C28.9418 33.4417 28.2269 33.7382 27.6996 34.2655C27.1723 34.7928 26.8758 35.5077 26.875 36.2534V47.4999C26.8758 48.2456 27.1723 48.9605 27.6996 49.4878C28.2269 50.015 28.9418 50.3116 29.6875 50.3124H50.3125C51.0582 50.3116 51.7731 50.015 52.3004 49.4878C52.8277 48.9605 53.1242 48.2456 53.125 47.4999V36.2499C53.1242 35.5042 52.8277 34.7893 52.3004 34.262C51.7731 33.7347 51.0582 33.4382 50.3125 33.4374ZM40 46.5624C38.8875 46.5624 37.7999 46.2325 36.8749 45.6144C35.9499 44.9963 35.2289 44.1178 34.8032 43.09C34.3774 42.0621 34.266 40.9311 34.4831 39.84C34.7001 38.7489 35.2359 37.7466 36.0225 36.9599C36.8092 36.1732 37.8115 35.6375 38.9026 35.4205C39.9938 35.2034 41.1248 35.3148 42.1526 35.7406C43.1804 36.1663 44.0589 36.8873 44.677 37.8123C45.2951 38.7373 45.625 39.8249 45.625 40.9374C45.6233 42.4287 45.0301 43.8584 43.9756 44.913C42.9211 45.9675 41.4913 46.5607 40 46.5624Z" fill="white"/>
</svg>
