<svg width="16" height="18" viewBox="0 0 16 18" fill="none" xmlns="http://www.w3.org/2000/svg">
<path d="M7.94565 2.13647C6.69336 2.13647 5.46919 2.53373 4.42795 3.278C3.38671 4.02228 2.57516 5.08015 2.09593 6.31783C1.6167 7.55551 1.49131 8.91743 1.73562 10.2313C1.97993 11.5453 2.58296 12.7522 3.46846 13.6995C4.35397 14.6467 5.48217 15.2918 6.71039 15.5532C7.93862 15.8146 9.21171 15.6804 10.3687 15.1678C11.5256 14.6551 12.5145 13.7869 13.2103 12.673C13.906 11.5591 14.2773 10.2496 14.2773 8.90991C14.2754 7.11413 13.6076 5.39251 12.4207 4.1227C11.2337 2.85289 9.62431 2.13858 7.94565 2.13647ZM7.94565 14.8865C6.84068 14.8865 5.76054 14.536 4.84179 13.8792C3.92305 13.2225 3.20698 12.2891 2.78413 11.197C2.36128 10.105 2.25064 8.90328 2.46621 7.74394C2.68178 6.5846 3.21387 5.51968 3.99519 4.68384C4.77652 3.84801 5.77199 3.27879 6.85572 3.04819C7.93945 2.81758 9.06277 2.93594 10.0836 3.38829C11.1045 3.84064 11.977 4.60667 12.5909 5.58951C13.2048 6.57235 13.5324 7.72786 13.5324 8.90991C13.5308 10.4945 12.9417 12.0136 11.8943 13.134C10.8469 14.2545 9.42685 14.8847 7.94565 14.8865ZM11.7943 8.90991C11.7943 9.01558 11.7551 9.11693 11.6852 9.19165C11.6154 9.26637 11.5206 9.30835 11.4219 9.30835H7.94565C7.84687 9.30835 7.75213 9.26637 7.68228 9.19165C7.61243 9.11693 7.57319 9.01558 7.57319 8.90991V5.19116C7.57319 5.08549 7.61243 4.98415 7.68228 4.90942C7.75213 4.8347 7.84687 4.79272 7.94565 4.79272C8.04443 4.79272 8.13916 4.8347 8.20901 4.90942C8.27886 4.98415 8.3181 5.08549 8.3181 5.19116V8.51147H11.4219C11.5206 8.51147 11.6154 8.55345 11.6852 8.62817C11.7551 8.7029 11.7943 8.80424 11.7943 8.90991Z" fill="black"/>
</svg>
