<svg width="14" height="11" viewBox="0 0 14 11" fill="none" xmlns="http://www.w3.org/2000/svg">
<path d="M13.0409 0.333386H0.876471C0.753312 0.333767 0.632591 0.367276 0.527302 0.430305C0.422012 0.493334 0.336142 0.583496 0.278933 0.691088C0.221724 0.798679 0.195342 0.919626 0.202629 1.04091C0.209917 1.16219 0.250596 1.27921 0.320288 1.37939L6.40248 10.0461C6.65455 10.4054 7.26142 10.4054 7.51417 10.0461L13.5964 1.37939C13.6668 1.27942 13.708 1.16234 13.7157 1.04086C13.7234 0.919372 13.6972 0.798134 13.6399 0.690314C13.5827 0.582495 13.4966 0.492217 13.3909 0.42929C13.2853 0.366364 13.1642 0.333195 13.0409 0.333386Z" fill="#828282"/>
</svg>
