<svg width="20" height="21" viewBox="0 0 20 21" fill="none" xmlns="http://www.w3.org/2000/svg">
<path opacity="0.3" d="M10.0001 1.96191C14.6034 1.96191 18.3351 5.69358 18.3351 10.2969C18.3351 14.8994 14.6034 18.6311 10.0001 18.6311C5.39675 18.6311 1.66675 14.8994 1.66675 10.2969C1.66591 5.69358 5.39675 1.96191 10.0001 1.96191Z" fill="#828282"/>
<path d="M10.0009 5.71267C9.86149 5.70884 9.72269 5.73302 9.59276 5.78376C9.46282 5.8345 9.34438 5.91079 9.24444 6.0081C9.1445 6.10541 9.06508 6.22178 9.01089 6.35032C8.95671 6.47886 8.92884 6.61695 8.92896 6.75645C8.92907 6.89594 8.95715 7.03399 9.01154 7.16245C9.06594 7.2909 9.14553 7.40714 9.24563 7.50429C9.34573 7.60144 9.46429 7.67754 9.59431 7.72807C9.72433 7.77861 9.86316 7.80256 10.0026 7.79851C10.2741 7.79051 10.5318 7.67696 10.7208 7.48199C10.9099 7.28701 11.0155 7.02598 11.0152 6.75437C11.0149 6.48277 10.9087 6.22199 10.7191 6.02747C10.5295 5.83295 10.2716 5.72002 10.0001 5.71267H10.0009ZM9.99676 8.83684C9.79254 8.83712 9.59553 8.91238 9.44313 9.04834C9.29074 9.18429 9.19358 9.37147 9.17009 9.57434L9.16426 9.67101L9.16759 14.256L9.17259 14.3535C9.19609 14.5567 9.29352 14.7442 9.44633 14.8803C9.59915 15.0163 9.79666 15.0914 10.0013 15.0911C10.2058 15.0909 10.4032 15.0155 10.5557 14.8791C10.7083 14.7428 10.8053 14.5551 10.8284 14.3518L10.8334 14.2543L10.8301 9.67017L10.8243 9.57267C10.8002 9.36997 10.7025 9.18316 10.5498 9.04768C10.3972 8.9122 10.2001 8.83747 9.99593 8.83767L9.99676 8.83684Z" fill="#828282"/>
</svg>
