<svg width="25" height="25" viewBox="0 0 25 25" fill="none" xmlns="http://www.w3.org/2000/svg">
<path d="M24.2188 8.59375C24.2178 7.76523 23.8883 6.9709 23.3025 6.38504C22.7166 5.79919 21.9223 5.46965 21.0938 5.46875H18.75V4.6875C18.7494 4.0661 18.5022 3.47033 18.0628 3.03093C17.6234 2.59153 17.0277 2.3444 16.4062 2.34375H8.59375C7.97235 2.3444 7.37658 2.59153 6.93718 3.03093C6.49778 3.47033 6.25065 4.0661 6.25 4.6875V5.46875H3.90625C3.07773 5.46965 2.2834 5.79919 1.69754 6.38504C1.11169 6.9709 0.782155 7.76523 0.78125 8.59375V10.9375H24.2188V8.59375ZM17.1875 5.46875H7.8125V4.6875C7.8125 4.4803 7.89481 4.28159 8.04132 4.13507C8.18784 3.98856 8.38655 3.90625 8.59375 3.90625H16.4062C16.6135 3.90625 16.8122 3.98856 16.9587 4.13507C17.1052 4.28159 17.1875 4.4803 17.1875 4.6875V5.46875ZM16.4062 12.8906C16.4062 13.2014 16.2828 13.4995 16.063 13.7193C15.8432 13.939 15.5452 14.0625 15.2344 14.0625H9.76562C9.45482 14.0625 9.15675 13.939 8.93698 13.7193C8.71722 13.4995 8.59375 13.2014 8.59375 12.8906V12.6953C8.59375 12.6435 8.57317 12.5938 8.53654 12.5572C8.49992 12.5206 8.45024 12.5 8.39844 12.5H0.78125V19.5312C0.78125 20.3601 1.11049 21.1549 1.69654 21.741C2.28259 22.327 3.07745 22.6562 3.90625 22.6562H21.0938C21.9226 22.6562 22.7174 22.327 23.3035 21.741C23.8895 21.1549 24.2188 20.3601 24.2188 19.5312V12.5H16.6016C16.5498 12.5 16.5001 12.5206 16.4635 12.5572C16.4268 12.5938 16.4062 12.6435 16.4062 12.6953V12.8906Z" fill="#B90101"/>
</svg>
