<svg width="164" height="150" viewBox="0 0 164 150" fill="none" xmlns="http://www.w3.org/2000/svg">
<path d="M81.9999 150C126.749 150 163.026 129.41 163.026 104.012C163.026 78.6129 126.749 58.0232 81.9999 58.0232C37.2506 58.0232 0.974121 78.6129 0.974121 104.012C0.974121 129.41 37.2506 150 81.9999 150Z" fill="#F0F0F0"/>
<path d="M118.612 96.0884L107.323 89.588C107.236 89.559 107.16 89.5033 107.106 89.4288C107.053 89.3543 107.024 89.2648 107.024 89.1729C107.024 89.081 107.053 88.9915 107.106 88.917C107.16 88.8425 107.236 88.7868 107.323 88.7578L121.715 80.442C121.937 80.3283 122.183 80.269 122.432 80.269C122.681 80.269 122.927 80.3283 123.149 80.442L134.427 86.9389C134.513 86.9687 134.587 87.0245 134.64 87.0986C134.693 87.1727 134.721 87.2614 134.721 87.3523C134.721 87.4433 134.693 87.5319 134.64 87.606C134.587 87.6801 134.513 87.7359 134.427 87.7657L120.045 96.0884C119.823 96.2004 119.577 96.2588 119.328 96.2588C119.079 96.2588 118.834 96.2004 118.612 96.0884Z" fill="#E0E0E0"/>
<path d="M142.46 118.146C152.062 118.146 159.846 112.854 159.846 106.327C159.846 99.799 152.062 94.5073 142.46 94.5073C132.858 94.5073 125.074 99.799 125.074 106.327C125.074 112.854 132.858 118.146 142.46 118.146Z" fill="#E0E0E0"/>
<path d="M30.7272 126.131L3.28911 110.285C3.20277 110.256 3.1277 110.201 3.0745 110.127C3.0213 110.053 2.99268 109.964 2.99268 109.873C2.99268 109.782 3.0213 109.694 3.0745 109.62C3.1277 109.546 3.20277 109.49 3.28911 109.462L46.284 84.6416C46.5037 84.5294 46.7469 84.4709 46.9937 84.4709C47.2404 84.4709 47.4836 84.5294 47.7033 84.6416L75.1517 100.488C75.2368 100.517 75.3106 100.573 75.3628 100.646C75.415 100.72 75.4431 100.808 75.4431 100.898C75.4431 100.988 75.415 101.076 75.3628 101.149C75.3106 101.223 75.2368 101.278 75.1517 101.308L32.1464 126.131C31.9267 126.243 31.6835 126.302 31.4368 126.302C31.1901 126.302 30.9469 126.243 30.7272 126.131Z" fill="#E0E0E0"/>
<path d="M34.3475 123.616L40.6929 127.278C40.9595 127.414 41.2546 127.486 41.5541 127.486C41.8535 127.486 42.1487 127.414 42.4153 127.278L121.36 81.6995C121.836 81.4239 121.836 80.9795 121.36 80.704L114.963 77.0111C114.696 76.8763 114.401 76.8062 114.102 76.8062C113.803 76.8062 113.508 76.8763 113.241 77.0111L34.3475 122.614C33.8721 122.896 33.8721 123.341 34.3475 123.616Z" fill="#E0E0E0"/>
<path d="M119.39 2.32728L38.6606 48.9393V112.496L38.6709 123.919L37.9578 123.509L36.8383 122.862V47.8886L117.568 1.27661L118.956 2.07581L119.39 2.32728Z" fill="#E6E6E6"/>
<path d="M119.39 2.3269V65.8874L41.3888 110.918L39.57 111.972L39.1187 112.231L38.6709 112.486L38.6605 112.496V48.9389L119.39 2.3269Z" fill="#F0F0F0"/>
<path d="M117.568 1.27661L119.39 2.32728L38.6606 48.9393L36.8383 47.8851L117.568 1.27661Z" fill="#F0F0F0"/>
<path d="M120.045 1.96198L119.39 2.34091L38.6605 48.9494L38.4056 49.0941V123.768L37.9578 123.509V48.8392L38.223 48.6876L118.956 2.07566L119.6 1.70361L120.045 1.96198Z" fill="#B90101"/>
<path opacity="0.1" d="M120.045 1.96198L119.39 2.34091L38.6605 48.9494L38.4056 49.0941V123.768L37.9578 123.509V48.8392L38.223 48.6876L118.956 2.07566L119.6 1.70361L120.045 1.96198Z" fill="black"/>
<path d="M119.38 2.34101L38.6606 48.9495L38.4056 49.0942V123.768L38.6709 123.919L120.041 77.0697V1.97241L119.38 2.34101Z" fill="#B90101"/>
<path opacity="0.05" d="M119.38 2.34101L38.6606 48.9495L38.4056 49.0942V123.768L38.6709 123.919L120.041 77.0697V1.97241L119.38 2.34101Z" fill="black"/>
<path d="M119.597 1.70728L120.045 1.96219L38.4056 49.0978L37.9578 48.8394L119.597 1.70728Z" fill="#B90101"/>
<path opacity="0.4" d="M119.597 1.70728L120.045 1.96219L38.4056 49.0978L37.9578 48.8394L119.597 1.70728Z" fill="white"/>
<path d="M120.758 2.37162L120.045 2.78155L119.39 3.16048L97.1536 15.9994L39.1186 49.5038V124.177L38.6708 123.919V49.2488L119.39 2.65065L120.045 2.27172L120.313 2.1167L120.758 2.37162Z" fill="#B90101"/>
<path opacity="0.1" d="M120.758 2.37162L120.045 2.78155L119.39 3.16048L97.1536 15.9994L39.1186 49.5038V124.177L38.6708 123.919V49.2488L119.39 2.65065L120.045 2.27172L120.313 2.1167L120.758 2.37162Z" fill="black"/>
<path d="M120.045 2.78187L119.38 3.16425L97.1538 15.9997L39.1154 49.511V124.178L39.5666 124.439L41.3407 123.365L120.758 77.4864V2.38916L120.045 2.78187Z" fill="#B90101"/>
<path d="M120.313 2.1167L120.758 2.37162L39.1186 49.5072L38.6708 49.2523L120.313 2.1167Z" fill="#B90101"/>
<path opacity="0.4" d="M120.313 2.1167L120.758 2.37162L39.1186 49.5072L38.6708 49.2523L120.313 2.1167Z" fill="white"/>
<path d="M122.122 3.90858L120.758 4.69745L120.044 5.11083L119.39 5.48287L41.3887 50.5171V125.49L39.5698 124.44V49.4664L119.39 3.38152L120.044 3.00259L120.299 2.85791L120.758 3.12316L122.122 3.90858Z" fill="#E6E6E6"/>
<path d="M120.299 2.85425L122.122 3.90492L41.3921 50.5169L39.5698 49.4628L120.299 2.85425Z" fill="#F0F0F0"/>
<path d="M41.3888 50.5165V125.49L122.122 78.8812V3.90454L41.3888 50.5165Z" fill="#FAFAFA"/>
<path d="M49.6738 48.1505C50.1974 47.8474 50.6246 48.0919 50.6246 48.7017C50.6064 49.0315 50.5109 49.3524 50.3457 49.6385C50.1806 49.9245 49.9504 50.1677 49.6738 50.3483C49.1468 50.6515 48.7196 50.4069 48.7196 49.8006C48.7376 49.4699 48.8334 49.1481 48.9992 48.8613C49.165 48.5746 49.3962 48.3311 49.6738 48.1505Z" fill="#37474F"/>
<path d="M46.9937 40.5576C45.9602 39.9617 44.9647 39.8687 44.1999 40.3165C43.4352 40.7643 43.0115 41.6634 43.0115 42.8588C43.015 43.3137 43.0705 43.7668 43.1768 44.2092L43.8107 43.8406C43.7468 43.5172 43.7145 43.1884 43.7142 42.8588C43.7142 41.9218 44.0105 41.2363 44.5513 40.9228C45.0922 40.6093 45.8328 40.6989 46.6423 41.1674C48.4509 42.2008 49.9218 44.7603 49.9218 46.8479C49.9353 47.3 49.8446 47.749 49.6566 48.1604C49.5287 48.4181 49.3304 48.6342 49.0847 48.7839C49.0674 48.7951 49.0489 48.8044 49.0296 48.8114C48.8711 49.0634 48.7688 49.3466 48.7299 49.6417C48.9784 49.6006 49.2176 49.5155 49.4361 49.3902C49.9072 49.1096 50.259 48.6659 50.4247 48.1432C50.565 47.726 50.6326 47.2879 50.6245 46.8479C50.6245 44.5364 48.9986 41.7117 46.9937 40.5576Z" fill="#B90101"/>
<path d="M54.2965 45.4802C54.8201 45.1771 55.2473 45.4251 55.2473 46.0314C55.2286 46.3615 55.1328 46.6827 54.9677 46.9693C54.8026 47.2558 54.5728 47.4997 54.2965 47.6815C53.7694 47.9846 53.3423 47.7366 53.3423 47.1303C53.3608 46.7997 53.4569 46.4781 53.6226 46.1915C53.7884 45.9048 54.0192 45.6612 54.2965 45.4802Z" fill="#37474F"/>
<path d="M51.6167 37.888C50.5833 37.292 49.5877 37.199 48.823 37.6468C48.0582 38.0947 47.6345 38.9938 47.6345 40.1891C47.6381 40.6441 47.6936 41.0971 47.7999 41.5395L48.4337 41.1709C48.3697 40.8475 48.3374 40.5187 48.3373 40.1891C48.3373 39.2521 48.6335 38.5666 49.1744 38.2531C49.7152 37.9396 50.4558 38.0292 51.2654 38.4977C53.0739 39.5311 54.5448 42.0907 54.5448 44.1817C54.5596 44.6338 54.4688 45.0832 54.2796 45.4941C54.1506 45.7501 53.9525 45.9649 53.7078 46.1142L53.6526 46.1452C53.4937 46.3957 53.3914 46.6778 53.3529 46.972C53.5953 46.9302 53.8285 46.8462 54.0419 46.7239C54.5124 46.4411 54.8639 45.9966 55.0306 45.4735C55.1689 45.0571 55.2364 44.6204 55.2304 44.1817C55.2476 41.8667 53.6216 39.0454 51.6167 37.888Z" fill="#B90101"/>
<path d="M45.0506 50.8165C45.5777 50.5134 46.0014 50.758 46.0014 51.3677C45.9841 51.6977 45.8889 52.0189 45.7236 52.3051C45.5584 52.5913 45.3278 52.8343 45.0506 53.0143C44.527 53.3175 44.0999 53.0729 44.0999 52.4666C44.118 52.1363 44.2135 51.8149 44.3787 51.5283C44.5438 51.2417 44.774 50.9979 45.0506 50.8165Z" fill="#37474F"/>
<path d="M42.3706 43.2244C41.3372 42.6284 40.3416 42.5354 39.5769 42.9833C38.8121 43.4311 38.3884 44.3267 38.3884 45.5255C38.3924 45.9805 38.4479 46.4335 38.5538 46.8759L39.1911 46.5073C39.1263 46.184 39.0929 45.8552 39.0912 45.5255C39.0912 44.5885 39.3909 43.903 39.9283 43.5895C40.4657 43.2761 41.2097 43.3656 42.0193 43.8341C43.8313 44.8676 45.3022 47.4271 45.3022 49.5146C45.3146 49.967 45.2227 50.4161 45.0335 50.8271C44.9078 51.0843 44.7104 51.2996 44.4651 51.4472L44.41 51.4782C44.2496 51.7283 44.1462 52.0105 44.1068 52.305C44.3566 52.2664 44.5971 52.1823 44.8165 52.0569C45.2867 51.7762 45.6374 51.3324 45.8017 50.8099C45.9428 50.3929 46.0116 49.9548 46.0049 49.5146C46.0049 47.2032 44.3755 44.3784 42.3706 43.2244Z" fill="#B90101"/>
<path d="M58.9196 42.8142C59.4432 42.5076 59.8703 42.7556 59.8703 43.3619C59.8522 43.6922 59.7567 44.0136 59.5915 44.3002C59.4264 44.5869 59.1962 44.8307 58.9196 45.012C58.3925 45.3152 57.9653 45.0671 57.9653 44.4608C57.9836 44.1307 58.0795 43.8094 58.2453 43.5233C58.4112 43.2372 58.6422 42.9942 58.9196 42.8142Z" fill="#37474F"/>
<path d="M56.2394 35.2215C55.206 34.6221 54.2104 34.5325 53.4422 34.9769C52.674 35.4213 52.2572 36.3238 52.2572 37.5192C52.2608 37.9741 52.3163 38.4272 52.4226 38.8696L53.0564 38.501C52.9924 38.1776 52.9601 37.8488 52.96 37.5192C52.96 36.5822 53.2562 35.8967 53.7936 35.5866C54.331 35.2766 55.0785 35.3593 55.8881 35.8278C57.6966 36.8612 59.1675 39.4207 59.1675 41.5117C59.1807 41.9638 59.0899 42.4128 58.9023 42.8242C58.7732 43.0802 58.5752 43.295 58.3304 43.4443L58.2753 43.4753C58.1173 43.7262 58.0151 44.0082 57.9756 44.302C58.2239 44.2622 58.4631 44.1782 58.6818 44.054C59.1523 43.7711 59.5038 43.3266 59.6705 42.8035C59.8088 42.3871 59.8763 41.9505 59.8703 41.5117C59.8703 39.1968 58.2409 36.3755 56.2394 35.2215Z" fill="#B90101"/>
<path d="M63.5391 40.1445C64.0662 39.8413 64.4934 40.0859 64.4934 40.6922C64.4767 41.0242 64.3815 41.3475 64.2156 41.6355C64.0498 41.9236 63.8179 42.1681 63.5391 42.3492C63.0155 42.6523 62.5884 42.4077 62.5884 41.798C62.6055 41.467 62.7005 41.1447 62.8657 40.8574C63.0309 40.57 63.2617 40.3258 63.5391 40.1445Z" fill="#37474F"/>
<path d="M60.8625 32.5519C59.829 31.9525 58.8335 31.8629 58.0653 32.3107C57.2971 32.7586 56.8802 33.6542 56.8802 34.853C56.884 35.3068 56.9395 35.7587 57.0456 36.1999L57.6794 35.8348C57.6158 35.5114 57.5835 35.1826 57.583 34.853C57.583 33.916 57.8792 33.2271 58.4166 32.917C58.954 32.607 59.6981 32.6931 60.5111 33.1616C62.3196 34.195 63.7906 36.7511 63.7906 38.8421C63.8041 39.2942 63.7133 39.7433 63.5253 40.1546C63.3963 40.4106 63.1982 40.6254 62.9535 40.7747L62.8984 40.8057C62.7403 41.0566 62.6381 41.3385 62.5987 41.6324C62.8474 41.5942 63.0868 41.5101 63.3049 41.3844C63.7762 41.1025 64.1279 40.6576 64.2935 40.1339C64.4318 39.7175 64.4994 39.2809 64.4933 38.8421C64.4933 36.5306 62.8639 33.7059 60.8625 32.5519Z" fill="#B90101"/>
<path d="M68.1622 37.4748C68.6893 37.1717 69.1164 37.4162 69.1164 38.0225C69.0987 38.3533 69.003 38.6752 68.8372 38.962C68.6713 39.2488 68.4401 39.4922 68.1622 39.6726C67.6386 39.9758 67.2114 39.7312 67.2114 39.1249C67.229 38.7945 67.3243 38.4729 67.4895 38.1862C67.6547 37.8995 67.8852 37.6558 68.1622 37.4748Z" fill="#37474F"/>
<path d="M65.4854 29.8822C64.4519 29.2828 63.4564 29.1932 62.6882 29.641C61.92 30.0889 61.5066 30.9811 61.5066 32.1833C61.5105 32.6383 61.566 33.0913 61.6719 33.5337L62.3058 33.1651C62.2421 32.8417 62.2098 32.5129 62.2093 32.1833C62.2093 31.2463 62.5056 30.5574 63.043 30.2473C63.5804 29.9373 64.3245 30.0234 65.1374 30.4919C66.946 31.5254 68.4169 34.0814 68.4169 36.1724C68.4311 36.6249 68.3391 37.0744 68.1482 37.4849C68.0215 37.7414 67.8244 37.9565 67.5798 38.105C67.5622 38.1166 67.5438 38.127 67.5247 38.136C67.3667 38.3869 67.2644 38.6689 67.225 38.9628C67.4678 38.9225 67.7012 38.8384 67.914 38.7147C68.3843 38.4332 68.7358 37.9898 68.9026 37.4677C69.0409 37.0501 69.1085 36.6123 69.1024 36.1724C69.1162 33.861 67.4868 31.0362 65.4854 29.8822Z" fill="#B90101"/>
<path d="M72.7849 34.805C73.3119 34.5019 73.7391 34.7465 73.7391 35.3562C73.7208 35.6864 73.6249 36.0076 73.4591 36.2937C73.2933 36.5799 73.0623 36.8228 72.7849 37.0028C72.2613 37.306 71.8341 37.0614 71.8341 36.4551C71.8523 36.1248 71.9478 35.8034 72.1129 35.5168C72.2781 35.2302 72.5082 34.9864 72.7849 34.805Z" fill="#37474F"/>
<path d="M70.1186 27.2129C69.0852 26.617 68.0896 26.5239 67.3214 26.9718C66.5532 27.4196 66.1329 28.3153 66.1329 29.5141C66.1362 29.9692 66.1928 30.4225 66.3017 30.8644L66.9356 30.4958C66.8707 30.1726 66.8372 29.8438 66.8357 29.5141C66.8357 28.5771 67.1354 27.8915 67.6728 27.5781C68.2102 27.2646 68.9543 27.3542 69.7672 27.8227C71.5758 28.8561 73.0467 31.4156 73.0467 33.5032C73.0613 33.9557 72.9693 34.4053 72.778 34.8157C72.6503 35.0724 72.4534 35.2883 72.2096 35.4392L72.1545 35.4667C71.9965 35.7176 71.8942 35.9996 71.8548 36.2935C72.1039 36.2569 72.3437 36.1726 72.561 36.0455C73.0321 35.7649 73.3839 35.3211 73.5497 34.7984C73.688 34.3808 73.7555 33.943 73.7495 33.5032C73.7391 31.1917 72.1097 28.3669 70.1186 27.2129Z" fill="#B90101"/>
<path d="M77.4079 32.1355C77.935 31.8323 78.3587 32.0804 78.3587 32.6867C78.3414 33.0167 78.2462 33.3379 78.0809 33.6241C77.9157 33.9103 77.6851 34.1533 77.4079 34.3333C76.8843 34.6399 76.4572 34.3918 76.4572 33.7856C76.4759 33.4554 76.5716 33.1342 76.7367 32.8477C76.9018 32.5611 77.1317 32.3172 77.4079 32.1355Z" fill="#37474F"/>
<path d="M74.7314 24.5425C73.6979 23.9465 72.7024 23.8535 71.9342 24.3014C71.166 24.7492 70.7457 25.6483 70.7457 26.8436C70.7488 27.2988 70.8054 27.7521 70.9145 28.194L71.5484 27.8254C71.4833 27.5022 71.4498 27.1734 71.4485 26.8436C71.4485 25.9067 71.7482 25.2211 72.2856 24.9077C72.823 24.5942 73.567 24.6837 74.38 25.1522C76.1886 26.1857 77.6595 28.7452 77.6595 30.8362C77.6737 31.2876 77.5816 31.736 77.3908 32.1452C77.2651 32.4033 77.0678 32.6198 76.8224 32.7688L76.7673 32.7998C76.6083 33.0502 76.5061 33.3324 76.4676 33.6265C76.7098 33.5842 76.9429 33.5003 77.1565 33.3785C77.6262 33.0955 77.9765 32.6509 78.1418 32.128C78.2829 31.7122 78.3517 31.2753 78.345 30.8362C78.3622 28.5213 76.7328 25.7 74.7314 24.5425Z" fill="#B90101"/>
<path d="M82.031 29.4688C82.558 29.1622 82.9817 29.4102 82.9817 30.0165C82.9644 30.347 82.8692 30.6687 82.704 30.9554C82.5388 31.2421 82.3082 31.4858 82.031 31.6666C81.5074 31.9697 81.0802 31.7217 81.0802 31.1154C81.0984 30.7856 81.1939 30.4646 81.359 30.1786C81.5242 29.8925 81.7544 29.6494 82.031 29.4688Z" fill="#37474F"/>
<path d="M79.3544 21.8728C78.321 21.2769 77.3254 21.1839 76.5572 21.6317C75.789 22.0795 75.3688 22.9786 75.3688 24.174C75.3718 24.6292 75.4285 25.0824 75.5376 25.5243L76.1714 25.1557C76.1063 24.8325 76.0729 24.5037 76.0715 24.174C76.0715 23.237 76.3712 22.5515 76.9086 22.2414C77.446 21.9314 78.1901 22.0141 79.0031 22.4826C80.8116 23.516 82.2825 26.0755 82.2825 28.1665C82.2964 28.619 82.2044 29.0684 82.0138 29.479C81.8891 29.7368 81.6915 29.9524 81.4455 30.0991L81.3903 30.1301C81.2295 30.3796 81.1271 30.6622 81.0906 30.9568C81.3388 30.9164 81.5779 30.8325 81.7968 30.7088C82.2673 30.4267 82.6179 29.9818 82.782 29.4583C82.9232 29.0425 82.992 28.6056 82.9853 28.1665C82.9853 25.8516 81.3559 23.0303 79.3544 21.8728Z" fill="#B90101"/>
<path d="M86.654 26.799C87.1811 26.4959 87.6048 26.7405 87.6048 27.3468C87.5874 27.6772 87.4923 27.9989 87.3271 28.2857C87.1618 28.5724 86.9312 28.8161 86.654 28.9968C86.1304 29.3 85.7032 29.0519 85.7032 28.4457C85.7214 28.1158 85.8169 27.7949 85.9821 27.5089C86.1473 27.2228 86.3775 26.9796 86.654 26.799Z" fill="#37474F"/>
<path d="M83.9771 19.2064C82.9437 18.607 81.9481 18.5174 81.1799 18.9653C80.4117 19.4131 79.9915 20.3088 79.9915 21.5076C79.9947 21.9616 80.0514 22.4137 80.1602 22.8545L80.7975 22.4893C80.7328 22.166 80.6993 21.8373 80.6976 21.5076C80.6976 20.5706 80.9973 19.8816 81.5347 19.5716C82.0721 19.2615 82.8162 19.3442 83.6292 19.8127C85.4377 20.8461 86.9087 23.4057 86.9087 25.4967C86.9229 25.9491 86.8308 26.3987 86.64 26.8091C86.5133 27.0656 86.3161 27.2807 86.0716 27.4292L86.0165 27.4602C85.8557 27.7098 85.7532 27.9924 85.7168 28.287C85.9649 28.2466 86.204 28.1626 86.4229 28.0389C86.8932 27.7566 87.2437 27.3118 87.4082 26.7885C87.5493 26.3727 87.6181 25.9357 87.6114 25.4967C87.608 23.1852 85.9648 20.3604 83.9771 19.2064Z" fill="#B90101"/>
<path d="M91.2771 24.1294C91.8041 23.8262 92.2278 24.0708 92.2278 24.6771C92.2108 25.0076 92.1157 25.3294 91.9505 25.6162C91.7852 25.903 91.5545 26.1466 91.2771 26.3272C90.7535 26.6303 90.3263 26.3857 90.3263 25.7794C90.3439 25.449 90.4392 25.1274 90.6044 24.8407C90.7696 24.554 91 24.3103 91.2771 24.1294Z" fill="#37474F"/>
<path d="M88.6002 16.5367C87.5667 15.9373 86.5712 15.8478 85.803 16.2956C85.0348 16.7434 84.6145 17.6391 84.6145 18.8379C84.6181 19.293 84.6748 19.7462 84.7833 20.1882L85.4172 19.8196C85.3524 19.4964 85.3189 19.1676 85.3172 18.8379C85.3172 17.9009 85.6169 17.2119 86.1543 16.9019C86.6917 16.5918 87.4358 16.678 88.2454 17.1465C90.0573 18.1799 91.5283 20.736 91.5283 22.827C91.5425 23.2795 91.4505 23.729 91.2596 24.1395C91.1329 24.396 90.9357 24.6111 90.6912 24.7595L90.6361 24.7905C90.4753 25.0401 90.3728 25.3227 90.3364 25.6173C90.5849 25.5783 90.8242 25.4942 91.0426 25.3693C91.512 25.0876 91.8623 24.6441 92.0278 24.1222C92.1689 23.7052 92.2377 23.2672 92.231 22.827C92.231 20.5155 90.6016 17.6907 88.6002 16.5367Z" fill="#B90101"/>
<path d="M95.8998 21.4596C96.4268 21.1564 96.8505 21.401 96.8505 22.0108C96.8332 22.3408 96.738 22.662 96.5728 22.9482C96.4075 23.2344 96.1769 23.4774 95.8998 23.6574C95.3761 23.9605 94.949 23.716 94.949 23.1097C94.9671 22.7794 95.0626 22.458 95.2278 22.1714C95.3929 21.8847 95.6231 21.6409 95.8998 21.4596Z" fill="#37474F"/>
<path d="M93.2198 13.8675C92.1863 13.2715 91.1908 13.1785 90.426 13.6263C89.6613 14.0741 89.2375 14.9698 89.2375 16.1686C89.2415 16.6235 89.297 17.0765 89.4029 17.519L90.0402 17.1504C89.9754 16.8271 89.942 16.4983 89.9403 16.1686C89.9403 15.2316 90.24 14.5461 90.7774 14.2326C91.3148 13.9191 92.0589 14.0087 92.8684 14.4772C94.6804 15.5106 96.1513 18.0701 96.1513 20.1577C96.1638 20.61 96.0718 21.0591 95.8826 21.4702C95.7569 21.7274 95.5595 21.9427 95.3142 22.0903L95.2591 22.1213C95.0988 22.3713 94.9953 22.6536 94.956 22.948C95.2057 22.9094 95.4462 22.8254 95.6656 22.7C96.1333 22.418 96.4813 21.9743 96.6439 21.453C96.7851 21.036 96.8538 20.5979 96.8472 20.1577C96.8541 17.8462 95.2247 15.0215 93.2198 13.8675Z" fill="#B90101"/>
<path d="M100.519 18.7937C101.043 18.4871 101.47 18.7351 101.47 19.3414C101.452 19.6717 101.356 19.9931 101.191 20.2797C101.026 20.5663 100.796 20.8102 100.519 20.9915C99.9922 21.2946 99.5651 21.0466 99.5651 20.4403C99.5833 20.1101 99.6793 19.7889 99.8451 19.5028C100.011 19.2167 100.242 18.9737 100.519 18.7937Z" fill="#37474F"/>
<path d="M97.8392 11.201C96.8057 10.6016 95.8102 10.5121 95.042 10.9599C94.2738 11.4077 93.8569 12.3034 93.8569 13.5022C93.8607 13.956 93.9162 14.4079 94.0223 14.8491L94.6561 14.4805C94.5923 14.1583 94.56 13.8306 94.5597 13.5022C94.5597 12.5617 94.8559 11.8762 95.3968 11.5662C95.9376 11.2562 96.6783 11.3388 97.4878 11.8073C99.2963 12.8408 100.767 15.4003 100.767 17.4913C100.781 17.9433 100.69 18.3924 100.502 18.8038C100.373 19.0598 100.175 19.2745 99.9302 19.4238L99.875 19.4548C99.717 19.7057 99.6148 19.9877 99.5754 20.2816C99.8237 20.2418 100.063 20.1578 100.282 20.0336C100.752 19.7507 101.103 19.3062 101.27 18.7831C101.409 18.3667 101.476 17.93 101.47 17.4913C101.467 15.1798 99.8406 12.3551 97.8392 11.201Z" fill="#B90101"/>
<path d="M105.139 16.124C105.666 15.8208 106.093 16.0654 106.093 16.6717C106.075 17.0025 105.98 17.3244 105.814 17.6112C105.648 17.8979 105.417 18.1414 105.139 18.3218C104.615 18.6249 104.188 18.3803 104.188 17.7706C104.206 17.4408 104.302 17.1199 104.467 16.8338C104.632 16.5478 104.862 16.3046 105.139 16.124Z" fill="#37474F"/>
<path d="M102.462 8.53136C101.429 7.93196 100.433 7.84239 99.665 8.29022C98.8968 8.73805 98.48 9.6337 98.48 10.8325C98.4838 11.2863 98.5392 11.7382 98.6453 12.1794L99.2792 11.8143C99.2155 11.4909 99.1832 11.1621 99.1827 10.8325C99.1827 9.89551 99.479 9.20654 100.016 8.89651C100.554 8.58647 101.298 8.67259 102.111 9.14109C103.919 10.1745 105.39 12.7306 105.39 14.8216C105.404 15.2737 105.313 15.7228 105.125 16.1341C105.002 16.3897 104.808 16.6048 104.567 16.7542C104.549 16.7658 104.531 16.7762 104.512 16.7852C104.354 17.0361 104.252 17.318 104.212 17.6119C104.461 17.5737 104.7 17.4896 104.918 17.3639C105.388 17.0816 105.739 16.6385 105.907 16.1169C106.045 15.6993 106.113 15.2615 106.107 14.8216C106.093 12.5101 104.464 9.68538 102.462 8.53136Z" fill="#B90101"/>
<path d="M109.762 13.4536C110.289 13.1504 110.716 13.395 110.716 14.0013C110.698 14.3321 110.603 14.654 110.437 14.9408C110.271 15.2275 110.04 15.471 109.762 15.6514C109.238 15.9545 108.811 15.7099 108.811 15.1036C108.829 14.7734 108.925 14.452 109.09 14.1653C109.255 13.8787 109.485 13.6349 109.762 13.4536Z" fill="#37474F"/>
<path d="M107.085 5.86135C106.052 5.2654 105.056 5.17239 104.288 5.62021C103.52 6.06804 103.103 6.9637 103.103 8.1625C103.107 8.61742 103.162 9.07043 103.268 9.51287L103.902 9.14427C103.839 8.82088 103.806 8.4921 103.806 8.1625C103.806 7.2255 104.102 6.53998 104.639 6.2265C105.177 5.91302 105.921 6.00259 106.734 6.47109C108.542 7.50453 110.013 10.0606 110.013 12.1516C110.028 12.6041 109.936 13.0536 109.745 13.4641C109.618 13.7206 109.421 13.9357 109.176 14.0842C109.159 14.097 109.141 14.1075 109.121 14.1152C108.963 14.3661 108.861 14.648 108.821 14.9419C109.064 14.9016 109.298 14.8176 109.51 14.6939C109.981 14.4123 110.332 13.969 110.499 13.4469C110.637 13.0293 110.705 12.5915 110.699 12.1516C110.716 9.84013 109.087 7.01537 107.085 5.86135Z" fill="#B90101"/>
<path d="M114.385 10.7838C114.912 10.4807 115.339 10.7252 115.339 11.335C115.321 11.6652 115.225 11.9864 115.059 12.2725C114.893 12.5586 114.662 12.8016 114.385 12.9816C113.861 13.2848 113.434 13.0402 113.434 12.4339C113.452 12.1036 113.548 11.7822 113.713 11.4956C113.878 11.209 114.108 10.9652 114.385 10.7838Z" fill="#37474F"/>
<path d="M111.708 3.19167C110.675 2.59572 109.679 2.50271 108.911 2.95054C108.143 3.39836 107.722 4.29402 107.722 5.49282C107.725 5.94801 107.782 6.40126 107.891 6.84319L108.525 6.4746C108.461 6.15123 108.429 5.82243 108.429 5.49282C108.429 4.55583 108.725 3.87031 109.262 3.55683C109.8 3.24335 110.544 3.33291 111.357 3.80141C113.165 4.83486 114.636 7.39436 114.636 9.48193C114.651 9.93444 114.559 10.384 114.367 10.7944C114.24 11.0511 114.043 11.2671 113.799 11.4179L113.744 11.4455C113.586 11.6964 113.484 11.9783 113.444 12.2722C113.693 12.2356 113.933 12.1514 114.15 12.0242C114.622 11.7436 114.973 11.2999 115.139 10.7772C115.278 10.3596 115.345 9.92182 115.339 9.48193C115.339 7.17045 113.71 4.34569 111.708 3.19167Z" fill="#B90101"/>
<path d="M119.008 8.11424C119.535 7.8111 119.958 8.05913 119.958 8.66542C119.941 8.99543 119.846 9.31665 119.681 9.60284C119.515 9.88902 119.285 10.132 119.008 10.312C118.484 10.6186 118.057 10.3706 118.057 9.76432C118.076 9.43416 118.171 9.11296 118.336 8.82643C118.502 8.5399 118.731 8.296 119.008 8.11424Z" fill="#37474F"/>
<path d="M116.331 0.521997C115.298 -0.0739583 114.302 -0.166969 113.534 0.280859C112.766 0.728686 112.345 1.62779 112.345 2.82314C112.349 3.27833 112.405 3.73158 112.514 4.17351L113.148 3.80492C113.083 3.48168 113.05 3.15287 113.048 2.82314C113.048 1.88615 113.348 1.20063 113.885 0.887148C114.423 0.573669 115.167 0.663234 115.98 1.13173C117.788 2.16518 119.259 4.72469 119.259 6.8157C119.273 7.26706 119.181 7.71545 118.991 8.12473C118.866 8.3835 118.668 8.60021 118.422 8.74825L118.367 8.77925C118.208 9.02971 118.106 9.31188 118.067 9.60601C118.316 9.56619 118.555 9.48218 118.774 9.35798C119.244 9.07592 119.595 8.63095 119.759 8.10751C119.9 7.6917 119.969 7.25476 119.962 6.8157C119.962 4.50077 118.346 1.67946 116.331 0.521997Z" fill="#B90101"/>
<path opacity="0.4" d="M116.331 0.521997C115.298 -0.0739583 114.302 -0.166969 113.534 0.280859C112.766 0.728687 112.346 1.62779 112.346 2.82314C112.35 3.11407 112.377 3.40424 112.425 3.69124C112.2 3.50555 111.96 3.3385 111.708 3.19174C110.675 2.59578 109.679 2.50277 108.911 2.9506C108.143 3.39843 107.723 4.29408 107.723 5.49288C107.727 5.78268 107.754 6.07172 107.802 6.35754C107.576 6.17407 107.336 6.00823 107.085 5.86148C106.052 5.26208 105.056 5.17252 104.288 5.62034C103.52 6.06817 103.103 6.96383 103.103 8.16263C103.106 8.45234 103.132 8.74138 103.179 9.02728C102.953 8.84381 102.714 8.67797 102.462 8.53122C101.429 7.93182 100.433 7.84226 99.6651 8.29009C98.8969 8.73791 98.4801 9.63357 98.4801 10.8324C98.4837 11.1221 98.509 11.4111 98.5559 11.697C98.3309 11.5124 98.0913 11.3465 97.8393 11.201C96.8059 10.6016 95.8103 10.512 95.0421 10.9598C94.274 11.4077 93.8571 12.3033 93.8571 13.5021C93.8607 13.7895 93.8861 14.0763 93.9329 14.3599C93.7083 14.1775 93.4699 14.0128 93.2198 13.8673C92.1864 13.2713 91.1908 13.1783 90.4261 13.6261C89.6613 14.074 89.2376 14.9696 89.2376 16.1684C89.2422 16.4582 89.2687 16.7472 89.3168 17.0331C89.0911 16.8496 88.8515 16.6838 88.6003 16.537C87.5669 15.9376 86.5679 15.848 85.8031 16.2959C85.0384 16.7437 84.6146 17.6393 84.6146 18.8382C84.6193 19.1279 84.6458 19.417 84.6939 19.7028C84.469 19.5182 84.2293 19.3523 83.9774 19.2067C82.9439 18.6073 81.9484 18.5178 81.1802 18.9656C80.412 19.4134 79.9917 20.3091 79.9917 21.5079C79.9965 21.7977 80.023 22.0867 80.0709 22.3725C79.8452 22.188 79.6056 22.021 79.3544 21.873C78.3209 21.2771 77.3254 21.1841 76.5572 21.6319C75.789 22.0797 75.3687 22.9788 75.3687 24.1742C75.3734 24.4651 75.3998 24.7553 75.448 25.0423C75.2231 24.8566 74.9835 24.6895 74.7314 24.5428C73.698 23.9468 72.7024 23.8538 71.9342 24.3016C71.166 24.7495 70.7458 25.6486 70.7458 26.8439C70.7504 27.1337 70.7769 27.4228 70.825 27.7086C70.5992 27.5251 70.3597 27.3593 70.1085 27.2125C69.075 26.6166 68.0795 26.5236 67.3113 26.9714C66.5431 27.4192 66.1228 28.3149 66.1228 29.5137C66.1274 29.8035 66.1539 30.0925 66.202 30.3783C65.9763 30.1949 65.7367 30.029 65.4855 29.8823C64.4521 29.2829 63.4565 29.1933 62.6883 29.6411C61.9201 30.089 61.5067 30.9812 61.5067 32.1834C61.5114 32.4732 61.5379 32.7623 61.586 33.0481C61.3602 32.8646 61.1206 32.6988 60.8694 32.552C59.836 31.9526 58.8404 31.863 58.0722 32.3109C57.304 32.7587 56.8872 33.6544 56.8872 34.8532C56.8908 35.1429 56.9162 35.4319 56.963 35.7178C56.7381 35.5332 56.4984 35.3673 56.2465 35.2218C55.213 34.6224 54.2175 34.5328 53.4493 34.9772C52.6811 35.4216 52.2643 36.3241 52.2643 37.5195C52.2677 37.8103 52.293 38.1005 52.3401 38.3876C52.1152 38.2019 51.8755 38.0348 51.6235 37.8881C50.5901 37.2921 49.5945 37.1991 48.8298 37.6469C48.065 38.0947 47.6413 38.9938 47.6413 40.1892C47.6444 40.4802 47.6709 40.7705 47.7205 41.0573C47.4939 40.8723 47.2532 40.7053 47.0006 40.5578C45.9671 39.9618 44.9716 39.8688 44.2068 40.3167C43.4421 40.7645 43.0183 41.6636 43.0183 42.8589C43.019 43.1464 43.0432 43.4332 43.0907 43.7167C42.866 43.5344 42.6276 43.3697 42.3776 43.2241C41.3442 42.6281 40.3486 42.5351 39.5839 42.983C38.8191 43.4308 38.3954 44.3264 38.3954 45.5252C38.3993 45.9802 38.4548 46.4332 38.5607 46.8756L39.198 46.507C39.1333 46.1837 39.0998 45.8549 39.0981 45.5252C39.0981 44.5882 39.3978 43.9027 39.9352 43.5892C40.4726 43.2758 41.2167 43.3653 42.0262 43.8338C43.8382 44.8673 45.3092 47.4268 45.3092 49.5144C45.3216 49.9667 45.2297 50.4158 45.0405 50.8268C44.9147 51.084 44.7173 51.2993 44.4721 51.4469L44.4169 51.4779C44.2566 51.728 44.1531 52.0102 44.1138 52.3047C44.3635 52.2661 44.604 52.182 44.8234 52.0566C45.2937 51.7759 45.6443 51.3321 45.8087 50.8096C45.9498 50.3926 46.0185 49.9545 46.0119 49.5144C46.0119 47.6404 44.9406 45.4288 43.4662 44.044L43.8107 43.8407C43.7468 43.5173 43.7145 43.1885 43.7142 42.8589C43.7142 41.9219 44.0105 41.2364 44.5513 40.9229C45.0921 40.6095 45.8328 40.699 46.6423 41.1675C48.4508 42.201 49.9218 44.7605 49.9218 46.8481C49.9353 47.3001 49.8445 47.7492 49.6565 48.1605C49.5286 48.4182 49.3304 48.6344 49.0847 48.784C49.0674 48.7953 49.0489 48.8045 49.0296 48.8116C48.8711 49.0635 48.7688 49.3467 48.7299 49.6418C48.9784 49.6008 49.2175 49.5156 49.4361 49.3903C49.9072 49.1097 50.259 48.666 50.4247 48.1433C50.565 47.7262 50.6326 47.2881 50.6245 46.8481C50.6245 44.9741 49.5532 42.7625 48.0788 41.3777L48.4233 41.171C48.3593 40.8476 48.327 40.5188 48.3268 40.1892C48.3268 39.2522 48.6231 38.5667 49.1639 38.2532C49.7048 37.9397 50.4454 38.0293 51.2549 38.4978C53.0635 39.5312 54.5344 42.0907 54.5344 44.1818C54.5492 44.6339 54.4584 45.0833 54.2692 45.4942C54.1401 45.7502 53.942 45.965 53.6973 46.1143L53.6422 46.1453C53.4833 46.3958 53.381 46.6779 53.3425 46.9721C53.5849 46.9303 53.8181 46.8463 54.0315 46.724C54.502 46.4411 54.8534 45.9967 55.0201 45.4736C55.1584 45.0572 55.226 44.6205 55.2199 44.1818C55.2199 42.3043 54.1486 40.0927 52.6742 38.7079L53.0187 38.5012C52.9547 38.1779 52.9224 37.8491 52.9222 37.5195C52.9222 36.5825 53.2185 35.8969 53.7593 35.5869C54.3002 35.2769 55.0408 35.3596 55.8503 35.828C57.6589 36.8615 59.1298 39.421 59.1298 41.512C59.143 41.964 59.0522 42.4131 58.8646 42.8245C58.7355 43.0805 58.5374 43.2953 58.2927 43.4446L58.2376 43.4756C58.0795 43.7265 57.9773 44.0084 57.9379 44.3023C58.1862 44.2625 58.4254 44.1785 58.6441 44.0543C59.1146 43.7714 59.466 43.3269 59.6328 42.8038C59.7711 42.3874 59.8386 41.9508 59.8326 41.512C59.8326 39.6346 58.7612 37.423 57.2868 36.0382L57.6313 35.8349C57.5676 35.5115 57.5353 35.1828 57.5349 34.8532C57.5349 33.9162 57.8311 33.2272 58.3685 32.9172C58.9059 32.6071 59.65 32.6933 60.463 33.1617C62.2715 34.1952 63.7424 36.7513 63.7424 38.8423C63.756 39.2943 63.6652 39.7434 63.4772 40.1548C63.3482 40.4107 63.1501 40.6255 62.9053 40.7748L62.8502 40.8058C62.6922 41.0567 62.59 41.3387 62.5505 41.6326C62.7992 41.5943 63.0387 41.5102 63.2567 41.3846C63.7281 41.1026 64.0798 40.6578 64.2454 40.1341C64.3837 39.7177 64.4512 39.281 64.4452 38.8423C64.4452 36.9648 63.3738 34.7533 61.8995 33.3684L62.2439 33.1652C62.1803 32.8418 62.148 32.513 62.1475 32.1834C62.1475 31.2464 62.4437 30.5575 62.9811 30.2474C63.5185 29.9374 64.2626 30.0235 65.0756 30.492C66.8841 31.5255 68.3551 34.0815 68.3551 36.1725C68.3693 36.625 68.2772 37.0745 68.0864 37.485C67.9597 37.7415 67.7625 37.9566 67.518 38.1051C67.5004 38.1167 67.4819 38.1271 67.4628 38.1361C67.3048 38.387 67.2026 38.6689 67.1631 38.9628C67.4059 38.9226 67.6394 38.8385 67.8521 38.7148C68.3224 38.4332 68.6739 37.9899 68.8408 37.4678C68.9791 37.0502 69.0466 36.6124 69.0406 36.1725C69.0406 34.2985 67.9692 32.087 66.4949 30.7021L66.8393 30.4954C66.7744 30.1722 66.741 29.8434 66.7394 29.5137C66.7394 28.5767 67.0391 27.8912 67.5765 27.5777C68.1139 27.2642 68.858 27.3538 69.671 27.8223C71.4795 28.8557 72.9505 31.4152 72.9505 33.5028C72.9651 33.9553 72.873 34.4049 72.6818 34.8153C72.554 35.072 72.3572 35.2879 72.1134 35.4388L72.0583 35.4663C71.9002 35.7172 71.798 35.9992 71.7585 36.2931C72.0077 36.2565 72.2474 36.1723 72.4647 36.0451C72.9359 35.7645 73.2877 35.3208 73.4534 34.798C73.5917 34.3804 73.6592 33.9427 73.6532 33.5028C73.6532 31.6288 72.5819 29.4172 71.1075 28.0324L71.452 27.8257C71.3869 27.5025 71.3534 27.1737 71.3521 26.8439C71.3521 25.9069 71.6518 25.2214 72.1892 24.9079C72.7265 24.5945 73.4706 24.684 74.2836 25.1525C76.0921 26.186 77.5631 28.7455 77.5631 30.8365C77.5773 31.2879 77.4852 31.7362 77.2944 32.1455C77.1687 32.4036 76.9714 32.6201 76.726 32.769L76.6709 32.8C76.5119 33.0505 76.4096 33.3327 76.3712 33.6268C76.6134 33.5845 76.8465 33.5006 77.0601 33.3788C77.5298 33.0957 77.8801 32.6511 78.0454 32.1283C78.1865 31.7125 78.2553 31.2755 78.2486 30.8365C78.2486 28.9591 77.1773 26.7475 75.7029 25.3627L76.0474 25.156C75.9823 24.8327 75.9488 24.5039 75.9475 24.1742C75.9475 23.2372 76.2472 22.5517 76.7846 22.2416C77.3219 21.9316 78.066 22.0143 78.879 22.4828C80.6875 23.5162 82.1585 26.0757 82.1585 28.1667C82.1723 28.6192 82.0803 29.0686 81.8898 29.4792C81.7651 29.7371 81.5674 29.9527 81.3214 30.0993L81.2663 30.1303C81.1055 30.3798 81.003 30.6624 80.9666 30.9571C81.2148 30.9167 81.4538 30.8327 81.6728 30.709C82.1433 30.427 82.4938 29.982 82.658 29.4586C82.7991 29.0428 82.8679 28.6058 82.8612 28.1667C82.8612 26.2893 81.7899 24.0777 80.3155 22.6929L80.66 22.4897C80.5952 22.1664 80.5618 21.8376 80.5601 21.5079C80.5601 20.5709 80.8598 19.8819 81.3972 19.5719C81.9346 19.2619 82.6787 19.3445 83.4916 19.813C85.3002 20.8465 86.7711 23.406 86.7711 25.497C86.7853 25.9495 86.6933 26.399 86.5024 26.8095C86.3757 27.066 86.1786 27.2811 85.934 27.4296L85.8789 27.4606C85.7181 27.7101 85.6157 27.9927 85.5792 28.2873C85.8274 28.2469 86.0665 28.163 86.2854 28.0393C86.7557 27.757 87.1062 27.3121 87.2706 26.7888C87.4118 26.373 87.4805 25.9361 87.4739 25.497C87.4739 23.6196 86.4025 21.408 84.9281 20.0232L85.2726 19.8199C85.2079 19.4966 85.1744 19.1679 85.1727 18.8382C85.1727 17.9012 85.4724 17.2122 86.0098 16.9022C86.5472 16.5921 87.2913 16.6782 88.1043 17.1467C89.9128 18.1802 91.3837 20.7363 91.3837 22.8273C91.398 23.2797 91.3059 23.7292 91.115 24.1397C90.9883 24.3962 90.7912 24.6113 90.5466 24.7598L90.4915 24.7908C90.3307 25.0404 90.2283 25.323 90.1918 25.6176C90.4404 25.5786 90.6797 25.4945 90.898 25.3695C91.3674 25.0878 91.7178 24.6444 91.8832 24.1225C92.0244 23.7055 92.0931 23.2674 92.0865 22.8273C92.0865 20.9533 91.0151 18.7417 89.5408 17.3569L89.8852 17.1502C89.8205 16.8269 89.787 16.4981 89.7853 16.1684C89.7853 15.2314 90.085 14.5459 90.6224 14.2324C91.1598 13.9189 91.9039 14.0085 92.7134 14.477C94.5254 15.5104 95.9964 18.07 95.9964 20.1575C96.0088 20.6098 95.9169 21.059 95.7277 21.47C95.6019 21.7272 95.4046 21.9425 95.1593 22.0901L95.1042 22.1211C94.9434 22.3706 94.8409 22.6532 94.8045 22.9478C95.053 22.9088 95.2923 22.8248 95.5106 22.6998C96.0368 22.4482 96.4436 22.0006 96.644 21.4528C96.7851 21.0358 96.8539 20.5977 96.8472 20.1575C96.8472 18.2835 95.7759 16.0685 94.3015 14.6837L94.646 14.4804C94.5822 14.1582 94.5499 13.8306 94.5495 13.5021C94.5495 12.5617 94.8458 11.8762 95.3832 11.5661C95.9206 11.2561 96.6681 11.3388 97.4776 11.8073C99.2862 12.8407 100.757 15.4002 100.757 17.4912C100.771 17.9433 100.68 18.3924 100.492 18.8037C100.363 19.0597 100.165 19.2745 99.92 19.4238L99.8649 19.4548C99.7069 19.7057 99.6046 19.9876 99.5652 20.2815C99.8135 20.2417 100.053 20.1577 100.271 20.0335C100.742 19.7506 101.093 19.3061 101.26 18.783C101.398 18.3666 101.466 17.93 101.46 17.4912C101.467 15.6138 100.399 13.4125 98.9245 12.0346L99.269 11.8314C99.2053 11.508 99.173 11.1792 99.1725 10.8496C99.1725 9.9126 99.4688 9.22363 100.006 8.9136C100.544 8.60356 101.288 8.68969 102.101 9.15818C103.909 10.1916 105.38 12.7477 105.38 14.8387C105.394 15.2908 105.303 15.7399 105.115 16.1512C104.992 16.3991 104.802 16.6078 104.567 16.754C104.549 16.7657 104.531 16.776 104.512 16.785C104.354 17.0359 104.252 17.3179 104.212 17.6118C104.461 17.5735 104.7 17.4894 104.918 17.3638C105.388 17.0815 105.739 16.6384 105.907 16.1167C106.045 15.6991 106.113 15.2613 106.107 14.8215C106.107 12.9475 105.036 10.7359 103.561 9.34765L103.906 9.1444C103.842 8.82101 103.81 8.49223 103.809 8.16263C103.809 7.22563 104.105 6.54011 104.643 6.22663C105.18 5.91315 105.924 6.00272 106.737 6.47122C108.546 7.50466 110.017 10.0607 110.017 12.1517C110.031 12.6042 109.939 13.0537 109.748 13.4642C109.621 13.7207 109.424 13.9358 109.18 14.0843C109.162 14.0959 109.144 14.1063 109.125 14.1153C108.967 14.3662 108.864 14.6482 108.825 14.942C109.068 14.9018 109.301 14.8177 109.514 14.694C109.984 14.4125 110.336 13.9691 110.503 13.447C110.641 13.0294 110.708 12.5916 110.702 12.1517C110.702 10.2777 109.631 8.06617 108.157 6.68135L108.501 6.47466C108.444 6.14948 108.419 5.81952 108.425 5.48944C108.425 4.55245 108.725 3.86693 109.262 3.55345C109.8 3.23997 110.544 3.32953 111.357 3.79803C113.165 4.83148 114.636 7.39099 114.636 9.47855C114.651 9.93106 114.559 10.3807 114.368 10.791C114.24 11.0477 114.043 11.2637 113.799 11.4145L113.744 11.4421C113.586 11.693 113.484 11.975 113.444 12.2689C113.694 12.2322 113.933 12.148 114.151 12.0208C114.622 11.7402 114.974 11.2965 115.139 10.7738C115.278 10.3563 115.345 9.91844 115.339 9.47855C115.339 7.60456 114.268 5.39298 112.793 4.00816L113.138 3.80147C113.073 3.47823 113.039 3.14942 113.038 2.8197C113.038 1.8827 113.338 1.19718 113.875 0.883704C114.412 0.570224 115.157 0.65979 115.969 1.12829C117.778 2.16173 119.249 4.72124 119.249 6.81225C119.263 7.26362 119.171 7.71201 118.98 8.12129C118.856 8.38006 118.658 8.59677 118.412 8.7448L118.357 8.77581C118.198 9.02627 118.096 9.30844 118.057 9.60256C118.305 9.56217 118.544 9.4782 118.763 9.35454C119.234 9.07247 119.584 8.6275 119.748 8.10406C119.89 7.68826 119.958 7.25131 119.952 6.81225C119.962 4.50077 118.346 1.67946 116.331 0.521997Z" fill="black"/>
<path d="M51.6374 56.5313L57.4109 53.1795C57.8381 52.9315 58.186 53.1072 58.1895 53.5688C58.1728 53.829 58.094 54.0815 57.9598 54.305C57.8255 54.5286 57.6397 54.7167 57.4178 54.8537L51.6374 58.1952C51.2102 58.4398 50.8623 58.2641 50.8623 57.8025C50.8836 57.5449 50.9648 57.2958 51.0994 57.0752C51.2339 56.8545 51.4182 56.6683 51.6374 56.5313Z" fill="#B90101"/>
<path d="M61.5068 50.8334L67.2803 47.4782C67.7075 47.2336 68.0554 47.4058 68.0588 47.8709C68.04 48.1306 67.9603 48.3822 67.8263 48.6054C67.6922 48.8286 67.5076 49.0171 67.2872 49.1558L61.5068 52.5042C61.0796 52.7522 60.7317 52.5765 60.7317 52.1149C60.7509 51.8554 60.8311 51.6041 60.9658 51.3814C61.1005 51.1587 61.2859 50.971 61.5068 50.8334Z" fill="#B90101"/>
<path d="M71.3797 45.1326L77.1566 41.7808C77.5838 41.5328 77.9317 41.7085 77.9352 42.1701C77.9171 42.43 77.8378 42.6819 77.7037 42.9052C77.5696 43.1286 77.3845 43.317 77.1635 43.455L71.3831 46.8068C70.9525 47.0514 70.608 46.8757 70.608 46.4141C70.6272 46.155 70.707 45.904 70.841 45.6814C70.9751 45.4587 71.1596 45.2708 71.3797 45.1326Z" fill="#B90101"/>
<path d="M81.2524 39.4348L87.0259 36.0796C87.453 35.8315 87.8044 36.0072 87.8044 36.4723C87.7873 36.7315 87.7087 36.983 87.5751 37.2058C87.4415 37.4286 87.2568 37.6165 87.0362 37.7537L81.2524 41.1056C80.8252 41.3501 80.4807 41.1779 80.4807 40.7163C80.4993 40.457 80.5789 40.2058 80.713 39.9831C80.8471 39.7604 81.0319 39.5725 81.2524 39.4348Z" fill="#B90101"/>
<path d="M91.1321 33.7369L96.9057 30.3851C97.3328 30.1371 97.6808 30.3127 97.6842 30.7743C97.6671 31.0341 97.5885 31.286 97.4549 31.5094C97.3214 31.7328 97.1367 31.9212 96.916 32.0593L91.1321 35.4042C90.705 35.6522 90.3571 35.4765 90.3571 35.0149C90.3774 34.7561 90.458 34.5057 90.5927 34.2838C90.7273 34.0618 90.912 33.8745 91.1321 33.7369Z" fill="#B90101"/>
<path d="M100.998 28.0327L106.772 24.6809C107.199 24.4328 107.547 24.6085 107.55 25.0736C107.533 25.3332 107.454 25.585 107.32 25.8079C107.186 26.0308 107 26.2184 106.779 26.3551L100.998 29.7069C100.571 29.9515 100.223 29.7792 100.223 29.3176C100.243 29.0577 100.323 28.806 100.458 28.5828C100.592 28.3596 100.777 28.1712 100.998 28.0327Z" fill="#B90101"/>
<path d="M110.871 22.335L116.644 18.9797C117.071 18.7351 117.419 18.9108 117.423 19.3724C117.403 19.6304 117.323 19.8802 117.189 20.1015C117.055 20.3229 116.871 20.5097 116.651 20.647L110.871 23.9954C110.444 24.2434 110.096 24.0677 110.096 23.6061C110.117 23.3485 110.198 23.0995 110.333 22.8788C110.467 22.6581 110.652 22.4719 110.871 22.335Z" fill="#B90101"/>
<path d="M118.126 26.8133L118.047 74.8859L50.9379 113.678V65.6055L118.112 26.8133M118.801 25.6179L50.2489 65.2059V114.873L118.736 75.2855L118.818 25.6179H118.801Z" fill="#E0E0E0"/>
<path d="M60.0321 109.23C59.9407 109.23 59.8531 109.194 59.7885 109.129C59.7239 109.065 59.6876 108.977 59.6876 108.886V59.8831C59.6876 59.7917 59.7239 59.7041 59.7885 59.6395C59.8531 59.5749 59.9407 59.5386 60.0321 59.5386C60.1235 59.5386 60.2111 59.5749 60.2757 59.6395C60.3403 59.7041 60.3766 59.7917 60.3766 59.8831V108.886C60.3766 108.977 60.3403 109.065 60.2757 109.129C60.2111 109.194 60.1235 109.23 60.0321 109.23Z" fill="#E0E0E0"/>
<path d="M69.8191 103.574C69.7277 103.574 69.6401 103.537 69.5755 103.473C69.5109 103.408 69.4746 103.321 69.4746 103.229L69.4953 54.2266C69.4953 54.1352 69.5316 54.0476 69.5962 53.983C69.6608 53.9184 69.7484 53.8821 69.8398 53.8821C69.9311 53.8821 70.0187 53.9184 70.0833 53.983C70.1479 54.0476 70.1842 54.1352 70.1842 54.2266L70.1636 103.229C70.1636 103.321 70.1273 103.408 70.0627 103.473C69.9981 103.537 69.9105 103.574 69.8191 103.574Z" fill="#E0E0E0"/>
<path d="M79.6024 97.9214C79.5111 97.9214 79.4234 97.8851 79.3588 97.8205C79.2942 97.7559 79.2579 97.6683 79.2579 97.5769L79.2924 48.5708C79.2924 48.4794 79.3287 48.3918 79.3933 48.3272C79.4579 48.2626 79.5455 48.2263 79.6369 48.2263C79.7282 48.2263 79.8159 48.2626 79.8805 48.3272C79.9451 48.3918 79.9814 48.4794 79.9814 48.5708L79.9469 97.5769C79.9469 97.6683 79.9106 97.7559 79.846 97.8205C79.7814 97.8851 79.6938 97.9214 79.6024 97.9214Z" fill="#E0E0E0"/>
<path d="M89.3857 92.2649C89.2944 92.2649 89.2068 92.2286 89.1422 92.164C89.0776 92.0994 89.0413 92.0118 89.0413 91.9204L89.086 42.9143C89.086 42.8229 89.1223 42.7353 89.1869 42.6707C89.2515 42.6061 89.3392 42.5698 89.4305 42.5698C89.5219 42.5698 89.6095 42.6061 89.6741 42.6707C89.7387 42.7353 89.775 42.8229 89.775 42.9143L89.7302 91.917C89.7307 91.9625 89.7221 92.0077 89.705 92.0499C89.6879 92.0921 89.6626 92.1305 89.6306 92.1628C89.5985 92.1952 89.5604 92.2208 89.5184 92.2384C89.4764 92.2559 89.4313 92.2649 89.3857 92.2649Z" fill="#E0E0E0"/>
<path d="M99.1691 86.6079C99.0777 86.6079 98.9901 86.5716 98.9255 86.507C98.8609 86.4424 98.8246 86.3548 98.8246 86.2634L98.8832 37.2607C98.8832 37.1694 98.9195 37.0818 98.9841 37.0172C99.0487 36.9526 99.1363 36.9163 99.2276 36.9163C99.319 36.9163 99.4066 36.9526 99.4712 37.0172C99.5358 37.0818 99.5721 37.1694 99.5721 37.2607L99.5136 86.2634C99.5136 86.3548 99.4773 86.4424 99.4127 86.507C99.3481 86.5716 99.2604 86.6079 99.1691 86.6079Z" fill="#E0E0E0"/>
<path d="M108.952 80.9522C108.861 80.9522 108.773 80.9159 108.709 80.8513C108.644 80.7867 108.608 80.699 108.608 80.6077L108.677 31.605C108.677 31.5136 108.713 31.426 108.778 31.3614C108.842 31.2968 108.93 31.2605 109.021 31.2605C109.113 31.2605 109.2 31.2968 109.265 31.3614C109.329 31.426 109.366 31.5136 109.366 31.605L109.297 80.6111C109.296 80.7019 109.259 80.7886 109.195 80.8525C109.13 80.9163 109.043 80.9522 108.952 80.9522Z" fill="#E0E0E0"/>
<path d="M50.6521 77.7242C50.5914 77.7245 50.5317 77.7087 50.4791 77.6784C50.4265 77.6482 50.3828 77.6046 50.3524 77.552C50.3075 77.4729 50.2957 77.3792 50.3196 77.2915C50.3435 77.2037 50.4011 77.1289 50.4799 77.0835L118.298 37.9296C118.377 37.8844 118.47 37.872 118.558 37.8953C118.646 37.9185 118.721 37.9754 118.767 38.0536C118.79 38.0927 118.805 38.1359 118.811 38.1809C118.817 38.2258 118.814 38.2715 118.803 38.3153C118.791 38.3591 118.771 38.4003 118.744 38.4364C118.716 38.4724 118.682 38.5027 118.643 38.5255L50.8278 77.6794C50.7743 77.7098 50.7136 77.7253 50.6521 77.7242Z" fill="#E0E0E0"/>
<path d="M50.6522 90.1423C50.5759 90.1428 50.5016 90.118 50.441 90.0718C50.3803 90.0255 50.3367 89.9605 50.317 89.8868C50.2973 89.8131 50.3026 89.735 50.3321 89.6646C50.3616 89.5943 50.4136 89.5357 50.4799 89.4981L118.298 50.3442C118.377 50.303 118.469 50.2938 118.554 50.3186C118.639 50.3433 118.712 50.4001 118.756 50.477C118.801 50.5539 118.814 50.6451 118.793 50.7314C118.771 50.8177 118.718 50.8925 118.643 50.9401L50.8279 90.0941C50.7752 90.1268 50.7142 90.1435 50.6522 90.1423Z" fill="#E0E0E0"/>
<path d="M50.6521 102.558C50.5914 102.558 50.5317 102.542 50.4791 102.512C50.4265 102.482 50.3828 102.438 50.3524 102.385C50.3075 102.306 50.2957 102.213 50.3196 102.125C50.3435 102.037 50.4011 101.962 50.4799 101.917L118.298 62.7596C118.338 62.737 118.381 62.7223 118.426 62.7165C118.471 62.7107 118.517 62.7137 118.561 62.7256C118.604 62.7374 118.645 62.7578 118.681 62.7855C118.717 62.8132 118.748 62.8477 118.77 62.8871C118.793 62.9264 118.807 62.9698 118.813 63.0149C118.819 63.0599 118.816 63.1056 118.804 63.1494C118.792 63.1932 118.772 63.2343 118.744 63.2703C118.717 63.3062 118.682 63.3364 118.643 63.359L50.8278 102.513C50.7743 102.543 50.7136 102.559 50.6521 102.558Z" fill="#E0E0E0"/>
<path opacity="0.1" d="M100.075 37.9986V50.2622L110.237 44.3957V32.1321L100.075 37.9986Z" fill="black"/>
<path d="M112.776 43.7273C112.776 43.7273 112.28 44.5678 110.506 45.5909L101.55 50.7582L100.475 40.0999L110.634 34.2437L111.202 40.4133C111.305 41.3917 111.457 42.8557 112.776 43.7273Z" fill="#B90101"/>
<path d="M110.644 34.2158L100.485 40.0824V38.2015L110.644 32.335V34.2158Z" fill="#B90101"/>
<path opacity="0.1" d="M110.644 34.2158L100.485 40.0824V38.2015L110.644 32.335V34.2158Z" fill="black"/>
<path d="M109.634 39.4451C109.574 39.1592 109.496 38.8774 109.4 38.6011C109.4 38.5701 109.38 38.5391 109.366 38.5081C109.435 38.3595 109.459 38.1933 109.433 38.0312C109.407 37.869 109.333 37.7184 109.221 37.5987C109.18 37.5608 109.076 37.5195 109.045 37.5987C108.975 37.8656 108.997 38.1483 109.107 38.4013C109.026 38.5872 108.927 38.7649 108.811 38.9318C108.707 39.0911 108.592 39.243 108.467 39.3865C108.308 39.5553 108.067 39.7999 107.819 39.8068C107.749 39.8088 107.68 39.7866 107.624 39.744C107.568 39.7013 107.529 39.6408 107.512 39.5726C107.588 39.4623 107.664 39.3521 107.729 39.2281C107.893 38.9806 108.01 38.705 108.074 38.4151C108.086 38.3621 108.083 38.3069 108.067 38.2551C108.051 38.2032 108.022 38.1564 107.982 38.1192C107.943 38.0821 107.894 38.0558 107.841 38.0431C107.789 38.0303 107.733 38.0315 107.681 38.0465C107.402 38.112 107.306 38.484 107.251 38.7355C107.192 38.98 107.192 39.235 107.251 39.4796C107.187 39.5785 107.116 39.6718 107.037 39.7586C107.004 39.7871 106.97 39.8136 106.934 39.8378C106.937 39.808 106.937 39.778 106.934 39.7483C106.934 39.6656 106.81 39.5381 106.724 39.6036C106.503 39.7793 106.458 40.0617 106.321 40.2925C106.289 40.3485 106.248 40.3986 106.2 40.4407C106.141 40.4923 106.135 40.4992 106.107 40.4407C106.074 40.321 106.028 40.2055 105.969 40.0962C105.928 40.0273 105.787 39.9618 105.731 40.0514C105.648 40.1873 105.586 40.3347 105.545 40.4889C105.513 40.4534 105.474 40.425 105.43 40.4056C105.386 40.3861 105.339 40.3761 105.291 40.3761C105.243 40.3761 105.195 40.3861 105.151 40.4056C105.107 40.425 105.068 40.4534 105.036 40.4889C104.857 40.6823 104.705 40.899 104.584 41.1331C104.549 41.1971 104.509 41.2592 104.467 41.3191L104.429 41.3708C104.426 41.356 104.426 41.3408 104.429 41.326C104.416 41.1345 104.416 40.9422 104.429 40.7507C104.429 40.7507 104.429 40.7266 104.429 40.7162C104.429 40.5785 104.13 40.5027 104.13 40.6611C104.128 40.6841 104.128 40.7071 104.13 40.73C104.099 40.984 104.013 41.2279 103.876 41.4442C103.74 41.6605 103.557 41.8437 103.341 41.9805C103.213 42.0735 102.896 42.3043 102.728 42.2182C102.559 42.1321 102.604 41.8737 102.61 41.7497C102.638 41.3289 102.755 40.9189 102.955 40.5475C103.048 40.3645 103.185 40.2081 103.355 40.0927C103.408 40.0573 103.467 40.033 103.53 40.0211C103.593 40.0093 103.657 40.0102 103.72 40.0238C103.882 40.0824 103.864 40.2684 103.823 40.4028C103.806 40.4579 103.892 40.5819 103.937 40.4992C104.185 40.0445 103.771 39.6346 103.296 39.8103C102.821 39.9859 102.607 40.451 102.48 40.8678C102.352 41.2846 102.183 41.7945 102.366 42.1941C102.583 42.6764 103.144 42.48 103.482 42.2526C103.779 42.0559 104.028 41.7959 104.212 41.4913C104.23 41.5189 104.251 41.5443 104.274 41.5671C104.495 41.791 104.698 41.5843 104.819 41.3811C104.94 41.1339 105.092 40.9025 105.27 40.6921C105.294 40.668 105.325 40.6508 105.346 40.6267C105.362 40.684 105.371 40.7429 105.373 40.8024C105.373 40.9333 105.373 41.0642 105.39 41.1916C105.408 41.3191 105.632 41.4155 105.673 41.2674C105.726 40.9863 105.794 40.708 105.876 40.4338C105.966 40.6232 106.083 40.7989 106.321 40.699C106.558 40.5991 106.634 40.2305 106.779 39.9859C106.793 40.0167 106.814 40.0437 106.841 40.0652C106.867 40.0866 106.898 40.1018 106.931 40.1098C106.964 40.1177 106.999 40.1181 107.032 40.111C107.065 40.1039 107.096 40.0894 107.123 40.0686C107.226 40.0071 107.315 39.925 107.385 39.8275L107.413 39.7861C107.477 39.89 107.571 39.9717 107.683 40.0203C107.795 40.069 107.92 40.0822 108.039 40.0583C108.38 39.9474 108.674 39.727 108.877 39.4313C109.039 39.2397 109.181 39.0319 109.3 38.8113C109.3 38.8113 109.3 38.8354 109.3 38.8492C109.39 39.1587 109.451 39.4758 109.483 39.7965C109.483 39.8792 109.483 39.9653 109.483 40.0548C109.304 39.9954 109.111 39.9952 108.933 40.0542C108.754 40.1131 108.599 40.2281 108.491 40.3821C108.281 40.6405 108.212 41.1503 108.587 41.3053C108.901 41.4362 109.259 41.1675 109.462 40.9608C109.796 40.5509 109.734 39.9377 109.634 39.4451ZM107.512 38.7355C107.538 38.6302 107.576 38.5284 107.626 38.4323C107.643 38.3943 107.668 38.3603 107.698 38.3324C107.723 38.3118 107.812 38.2773 107.805 38.2739C107.798 38.2704 107.771 38.4289 107.757 38.4702C107.743 38.5116 107.702 38.6149 107.674 38.6872C107.611 38.8355 107.537 38.9794 107.454 39.1178C107.462 38.9889 107.481 38.8609 107.512 38.7355ZM108.89 40.9849C108.739 41.0676 108.584 41.1331 108.567 40.9126C108.539 40.5475 109.059 40.1031 109.414 40.2822C109.399 40.4128 109.353 40.5379 109.28 40.6474C109.177 40.7802 109.048 40.8904 108.901 40.9712L108.89 40.9849Z" fill="#455A64"/>
<path d="M103.423 43.8371C103.314 44.1568 103.176 44.4658 103.01 44.7603C102.862 44.9773 102.604 45.1496 102.569 45.4252C102.569 45.4631 102.614 45.5595 102.662 45.5147C102.906 45.3162 103.12 45.0843 103.299 44.8258V44.7948C103.248 45.1048 103.186 45.4114 103.155 45.7214C103.124 46.0315 103.079 46.3587 103.041 46.6756C103.003 46.9926 103 47.3095 102.941 47.6126C102.907 47.7677 103.189 47.8744 103.237 47.7056C103.263 47.553 103.278 47.3988 103.282 47.244C103.299 47.0752 103.32 46.8996 103.341 46.7308C103.382 46.4138 103.42 46.0969 103.454 45.7765C103.566 45.1601 103.643 44.5379 103.685 43.9129C103.699 43.7785 103.482 43.7028 103.423 43.8371Z" fill="#455A64"/>
<path d="M105.704 43.8438C105.641 43.7384 105.554 43.6498 105.449 43.5855C105.349 43.5303 105.173 43.4649 105.067 43.5338C105.057 43.5226 105.045 43.5132 105.032 43.5062C104.688 43.4167 104.471 43.7095 104.319 43.9644C104.181 44.2212 104.065 44.4898 103.975 44.767C103.795 45.2424 103.63 46.0554 104.136 46.3999C104.588 46.7065 105.111 46.4343 105.394 46.0554C105.69 45.6273 105.854 45.1219 105.866 44.6017C105.883 44.339 105.827 44.0767 105.704 43.8438ZM105.194 45.7213C105.039 45.9968 104.729 46.3517 104.371 46.2311C104.164 46.1622 104.119 45.9073 104.112 45.7178C104.107 45.4704 104.146 45.224 104.229 44.991C104.312 44.7403 104.411 44.4952 104.526 44.2572C104.622 44.054 104.791 43.7026 105.053 43.6785C105.06 43.6883 105.07 43.6965 105.08 43.7026C105.162 43.73 105.242 43.7646 105.318 43.8059C105.363 43.8429 105.399 43.8886 105.425 43.9403C105.5 44.1055 105.535 44.286 105.528 44.4673C105.526 44.907 105.411 45.3386 105.194 45.7213Z" fill="#455A64"/>
<path d="M110.998 43.775C110.871 43.4994 110.802 43.1963 110.702 42.9104C110.639 42.6381 110.499 42.3895 110.299 42.1938C110.241 42.149 110.123 42.1112 110.079 42.1938C109.904 42.5005 109.787 42.8368 109.734 43.1859C109.686 43.1192 109.632 43.057 109.572 42.9999C109.543 42.9767 109.508 42.9641 109.471 42.9641C109.434 42.9641 109.398 42.9767 109.369 42.9999C109.314 43.05 109.269 43.111 109.238 43.1791C109.175 43.0273 109.077 42.8927 108.952 42.7863C108.924 42.7625 108.888 42.7495 108.851 42.7495C108.813 42.7495 108.777 42.7625 108.749 42.7863C108.404 43.1308 108.494 43.7647 108.404 44.1987C108.397 44.2931 108.363 44.3836 108.308 44.4605C108.236 44.5225 108.212 44.4605 108.17 44.3882C108.08 44.2323 108.022 44.0602 107.998 43.8818C107.998 43.8267 107.998 43.7716 107.998 43.7164C107.998 43.7164 107.998 43.6923 107.998 43.682C107.998 43.5442 107.688 43.4925 107.691 43.6544C107.732 44.015 107.65 44.3787 107.461 44.6879C107.368 44.8291 106.992 45.3768 106.83 45.0324C106.713 44.8016 106.892 44.4777 107.016 44.2848C107.153 44.0453 107.357 43.8503 107.602 43.7233C107.667 43.6854 107.602 43.5614 107.533 43.5649C107.168 43.5821 106.844 43.9748 106.685 44.2538C106.527 44.5329 106.382 44.9807 106.685 45.2563C107.03 45.6008 107.433 45.2563 107.657 44.9669C107.776 44.8098 107.874 44.6371 107.946 44.4536V44.4777C108.07 44.6741 108.336 44.8463 108.546 44.65C108.756 44.4536 108.742 44.1092 108.766 43.868C108.766 43.5999 108.814 43.3339 108.907 43.0826C109.037 43.3125 109.117 43.5672 109.142 43.8301C109.159 43.9541 109.403 44.0403 109.428 43.8818C109.429 43.6848 109.463 43.4893 109.527 43.3031C109.614 43.4254 109.692 43.5544 109.758 43.6889C109.813 43.7853 110.055 43.8542 110.034 43.6889C109.996 43.2829 110.077 42.8746 110.268 42.5142C110.37 42.6889 110.448 42.8766 110.499 43.0723C110.569 43.3233 110.655 43.5696 110.757 43.8095C110.805 43.9162 111.074 43.9335 110.998 43.775Z" fill="#455A64"/>
<path d="M98.9797 38.7323C99.005 38.3171 99.1277 37.9137 99.3377 37.5546C99.5478 37.1956 99.8393 36.891 100.189 36.6654C100.314 36.5735 100.462 36.5181 100.616 36.5053C100.771 36.4925 100.926 36.5229 101.064 36.593L101.612 36.9168L101.391 37.3096C101.391 37.3096 101.391 37.3371 101.391 37.3509C101.368 37.7689 101.246 38.1754 101.036 38.5375C100.826 38.8997 100.533 39.2071 100.182 39.435L99.9304 39.876L99.3345 39.5315H99.3138C99.1911 39.4409 99.0952 39.3187 99.0364 39.178C98.9775 39.0373 98.958 38.8832 98.9797 38.7323Z" fill="#37474F"/>
<path d="M101.99 37.6882C101.967 38.1063 101.845 38.5129 101.635 38.8751C101.425 39.2372 101.133 39.5447 100.781 39.7724C100.113 40.1582 99.572 39.8516 99.572 39.0834C99.5977 38.6683 99.7204 38.2649 99.9304 37.9059C100.14 37.5469 100.432 37.2423 100.781 37.0165C101.446 36.6169 101.99 36.9235 101.99 37.6882Z" fill="#455A64"/>
<path opacity="0.1" d="M71.3383 79.9737V92.2373L81.4971 86.3708V74.1072L71.3383 79.9737Z" fill="black"/>
<path d="M84.0358 85.6886C84.0358 85.6886 83.5398 86.5291 81.7691 87.5523L72.8126 92.7195L71.7378 82.0405L81.9 76.1843L82.4684 82.354C82.5649 83.3668 82.7096 84.8343 84.0358 85.6886Z" fill="#B90101"/>
<path d="M81.907 76.1909L71.7448 82.0575V80.1766L81.907 74.3101V76.1909Z" fill="#B90101"/>
<path opacity="0.1" d="M81.907 76.1909L71.7448 82.0575V80.1766L81.907 74.3101V76.1909Z" fill="black"/>
<path d="M80.6702 82.9186L80.7667 82.8979C80.9113 82.8772 80.8045 82.6705 80.6909 82.6774H80.591C80.56 82.6051 80.5324 82.5293 80.5014 82.4535C80.2778 81.824 79.9416 81.2404 79.5093 80.7311C79.4438 80.6622 79.2854 80.6415 79.2819 80.769C79.2525 81.2366 79.1681 81.6991 79.0305 82.1469C79.0128 81.9984 78.977 81.8526 78.9237 81.7129C78.8858 81.6095 78.6756 81.52 78.6619 81.6888C78.645 81.85 78.6749 82.0126 78.748 82.1573C78.7868 82.8277 78.7241 83.5001 78.562 84.1518C78.4793 84.4205 78.3277 84.8063 77.9798 84.6754C78.0005 84.5893 78.0142 84.5066 78.028 84.4343C78.1727 83.7247 78.4311 82.5224 77.5354 82.1952C77.5145 82.1856 77.4909 82.1838 77.4688 82.1901C77.4466 82.1964 77.4275 82.2104 77.4148 82.2296C77.2525 82.6348 77.191 83.0734 77.2357 83.5076C77.2126 83.9679 77.3723 84.4186 77.6801 84.7615C77.6488 84.8838 77.5787 84.9926 77.4803 85.0716C77.2116 85.2576 76.8602 84.8132 76.7259 84.6341C76.6845 84.579 76.5743 84.5066 76.5054 84.5721C76.2126 84.8373 76.1954 85.2817 76.216 85.6951C76.1945 85.6743 76.1676 85.6601 76.1383 85.654C76.1091 85.6479 76.0787 85.6502 76.0507 85.6607C75.943 85.7101 75.8526 85.7907 75.7912 85.892C75.7298 85.9933 75.7002 86.1107 75.7062 86.229C75.5477 85.95 75.3376 85.7605 75.0345 85.9603C74.8715 86.0624 74.7495 86.2185 74.69 86.4013C74.6606 86.0745 74.5279 85.7656 74.311 85.5194C74.2081 85.4223 74.0719 85.3682 73.9304 85.3682C73.7889 85.3682 73.6527 85.4223 73.5497 85.5194C73.3458 85.7819 73.2387 86.1068 73.2466 86.4392C73.2349 86.6129 73.2512 86.7874 73.2948 86.9559C73.312 87.011 73.3327 87.0971 73.4016 87.1075C73.4705 87.1178 73.4946 87.0558 73.474 86.9938C73.3741 86.6803 73.5325 85.4057 74.0733 85.6159C74.3627 85.733 74.4006 86.3221 74.4419 86.5804C74.5212 87.073 74.6314 87.5622 74.7141 88.0514C74.7416 88.2029 75.0103 88.2684 75.0138 88.0789C75.0138 87.5243 74.7485 86.8147 75.0896 86.3152C75.1309 86.2532 75.2377 86.1119 75.3238 86.1429C75.4099 86.1739 75.4547 86.3186 75.4892 86.3875C75.5891 86.5976 75.6442 86.8284 75.751 87.0351C75.8095 87.1488 76.0369 87.2143 76.0369 87.0351C76.0369 86.7527 75.8647 86.2153 76.0851 85.9707C76.1368 86.0602 76.185 86.1498 76.2298 86.2428C76.2746 86.3358 76.5192 86.4254 76.5123 86.2428C76.5123 85.8467 76.3779 85.2404 76.6087 84.8649C76.8292 85.1095 77.1289 85.3816 77.4562 85.3368C77.6973 85.3024 77.8179 85.106 77.8937 84.8856C78.0316 84.9498 78.1887 84.9592 78.3333 84.9119C78.4778 84.8645 78.599 84.764 78.6722 84.6306C78.8968 84.1862 79.0148 83.6956 79.0167 83.1976C79.0406 82.9273 79.0486 82.6558 79.0408 82.3846C79.0865 82.3903 79.1328 82.3903 79.1786 82.3846C79.1995 82.3847 79.2198 82.3781 79.2366 82.3657C79.2533 82.3532 79.2656 82.3357 79.2716 82.3157C79.4012 81.9136 79.489 81.4992 79.5334 81.079C79.8181 81.4804 80.0497 81.9169 80.2224 82.3777C80.2637 82.4811 80.305 82.5844 80.3429 82.6912C80.1464 82.7479 79.9711 82.8616 79.8393 83.018C79.7074 83.1744 79.625 83.3664 79.6023 83.5696C79.6093 83.7776 79.6751 83.9792 79.7922 84.1512C79.9093 84.3232 80.0728 84.4584 80.2637 84.5411C80.7115 84.703 80.8941 84.2173 80.8803 83.8521C80.8518 83.533 80.7811 83.2191 80.6702 82.9186ZM77.4562 83.6868C77.395 83.2814 77.4352 82.8671 77.5733 82.4811C78.0762 82.7911 77.8558 83.7453 77.7697 84.2035C77.7524 84.2896 77.7386 84.3964 77.7214 84.5066C77.565 84.2602 77.4737 83.9781 77.4562 83.6868ZM80.4222 84.3757C80.2396 84.424 80.0777 84.1725 79.9847 84.0312C79.7298 83.5937 80.0398 83.1838 80.4428 82.9978C80.5332 83.2598 80.5921 83.5315 80.6185 83.8073C80.6289 83.9796 80.6323 84.3206 80.4222 84.3757Z" fill="#455A64"/>
<path d="M81.0871 80.4245C80.9673 80.0784 80.8187 79.7431 80.6427 79.422C80.5531 79.2498 80.4601 79.0775 80.3774 78.9053C80.2948 78.7331 80.2327 78.5815 80.1501 78.4299C80.1018 78.3438 79.8917 78.2818 79.8986 78.4299C79.9176 78.6123 79.9629 78.791 80.033 78.9604C80.1018 79.1361 80.1776 79.3049 80.2534 79.484C80.4074 79.8033 80.5431 80.1311 80.6599 80.4658C80.7116 80.6346 80.7288 80.8826 80.9631 80.8654C81.1973 80.8482 81.1422 80.5864 81.0871 80.4245Z" fill="#455A64"/>
<path d="M81.7312 81.9267C81.7267 81.8934 81.7175 81.8609 81.7036 81.8303C81.6988 81.8176 81.6918 81.806 81.6829 81.7958C81.6761 81.7719 81.6643 81.7497 81.6483 81.7307C81.6322 81.7117 81.6124 81.6963 81.5899 81.6856L81.5176 81.6339L81.4694 81.6064C81.4514 81.5987 81.4321 81.5947 81.4125 81.5947C81.393 81.5947 81.3736 81.5987 81.3557 81.6064C81.3422 81.6111 81.3303 81.6195 81.3212 81.6305C81.3104 81.6468 81.3044 81.666 81.304 81.6856C81.3005 81.705 81.3005 81.7248 81.304 81.7441C81.2923 81.7664 81.2819 81.7895 81.273 81.813C81.273 81.8406 81.273 81.8682 81.273 81.8957C81.2679 81.9196 81.2679 81.9442 81.273 81.9681C81.28 81.9973 81.2928 82.0248 81.3105 82.049C81.3283 82.0733 81.3506 82.0938 81.3763 82.1093C81.4366 82.1438 81.5036 82.1649 81.5727 82.1713C81.6129 82.1799 81.655 82.1725 81.6898 82.1506L81.7174 82.1265C81.7343 82.1074 81.744 82.0831 81.7449 82.0576C81.7496 82.0135 81.7449 81.9689 81.7312 81.9267Z" fill="#455A64"/>
<path d="M70.2429 80.7106C70.2662 80.2925 70.3878 79.8859 70.5979 79.5237C70.808 79.1616 71.1007 78.8541 71.4521 78.6264C71.5769 78.5344 71.7251 78.4791 71.8797 78.4669C72.0344 78.4547 72.1893 78.4861 72.327 78.5575L72.8782 78.8848L72.6543 79.2741C72.6543 79.2741 72.6543 79.3016 72.6543 79.3154C72.6325 79.7334 72.5119 80.1403 72.3023 80.5026C72.0927 80.8649 71.8001 81.1723 71.4486 81.3995L71.2006 81.8405L70.6012 81.496H70.5805C70.4594 81.407 70.3643 81.2873 70.3049 81.1492C70.2456 81.0111 70.2242 80.8597 70.2429 80.7106Z" fill="#37474F"/>
<path d="M73.2501 79.6667C73.2244 80.0818 73.1017 80.4851 72.8916 80.8441C72.6816 81.2031 72.3902 81.5078 72.0409 81.7336C71.3761 82.1194 70.8318 81.8128 70.8318 81.0446C70.8556 80.6267 70.9774 80.2203 71.1875 79.8582C71.3976 79.4961 71.6899 79.1886 72.0409 78.9605C72.7092 78.5919 73.2501 78.8985 73.2501 79.6667Z" fill="#455A64"/>
<path d="M94.15 68.6674L112.563 58.0332C113.789 57.327 114.785 57.7955 114.785 59.0666C114.785 60.3378 113.789 61.9706 112.563 62.6768L94.15 73.3075C92.9237 74.0172 91.9281 73.5487 91.9281 72.2741C91.9281 70.9995 92.9237 69.3735 94.15 68.6674Z" fill="#B90101"/>
<path d="M67.9692 102.482C67.8479 102.484 67.7285 102.452 67.6247 102.389L61.7685 99.0031C61.6862 98.96 61.6134 98.9007 61.5546 98.8288C61.4958 98.7569 61.4521 98.6738 61.4262 98.5845C61.4003 98.4953 61.3927 98.4017 61.404 98.3095C61.4152 98.2173 61.4449 98.1282 61.4914 98.0478C61.5379 97.9673 61.6002 97.8971 61.6745 97.8414C61.7489 97.7856 61.8337 97.7455 61.924 97.7234C62.0142 97.7013 62.108 97.6977 62.1997 97.7127C62.2914 97.7278 62.3791 97.7613 62.4575 97.8111L68.3137 101.197C68.4447 101.273 68.547 101.39 68.6048 101.53C68.6626 101.67 68.6727 101.826 68.6335 101.972C68.5943 102.118 68.5079 102.247 68.3879 102.34C68.2678 102.432 68.1207 102.482 67.9692 102.482Z" fill="#B90101"/>
<path d="M62.3611 105.424C62.2396 105.425 62.12 105.394 62.0144 105.334C61.9088 105.274 61.821 105.187 61.7597 105.082C61.6985 104.977 61.6662 104.858 61.6659 104.737C61.6656 104.615 61.6975 104.496 61.7582 104.391L66.9496 95.0001C67.0382 94.8402 67.1867 94.7221 67.3624 94.6717C67.5381 94.6213 67.7267 94.6428 67.8866 94.7314C68.0465 94.8201 68.1646 94.9686 68.215 95.1443C68.2654 95.32 68.2439 95.5085 68.1553 95.6684L62.9639 105.056C62.9061 105.166 62.8195 105.258 62.7133 105.323C62.6072 105.388 62.4855 105.423 62.3611 105.424Z" fill="#B90101"/>
<path d="M98.9829 81.0827C98.9657 80.604 98.7674 80.1498 98.4283 79.8116C98.0525 79.4819 97.5849 79.2752 97.0882 79.219C96.3426 79.1376 95.5886 79.2565 94.9042 79.5635C94.3153 79.8359 93.7762 80.205 93.3093 80.6555C93.0957 80.8485 92.8821 81.0414 92.6547 81.217C92.5342 81.3101 92.7099 81.4995 92.827 81.4306C93.3437 81.1275 93.7984 80.7417 94.3014 80.4213C94.8515 80.0644 95.4717 79.8295 96.1202 79.7323C96.9987 79.6049 98.1596 79.8495 98.4042 80.8347C98.4864 81.3307 98.4665 81.8382 98.3456 82.3263C98.251 82.8288 98.096 83.3181 97.884 83.7834C97.4546 84.7131 96.8253 85.5364 96.041 86.1948C95.3726 86.8225 94.5597 87.2756 93.6744 87.5142C92.9193 87.6891 92.1279 87.6154 91.418 87.3041C91.1045 87.1575 90.8384 86.926 90.6499 86.6358C90.4441 86.2633 90.3452 85.8414 90.3639 85.4163C90.3588 84.3808 90.6147 83.3608 91.108 82.4503C92.1106 80.5736 93.7852 79.1451 95.7964 78.4508C96.0686 78.3613 96.351 78.2821 96.6301 78.2097C96.6654 78.1916 96.6939 78.1624 96.7112 78.1266C96.7285 78.0908 96.7336 78.0504 96.7258 78.0114C96.718 77.9725 96.6977 77.9371 96.668 77.9107C96.6383 77.8843 96.6008 77.8684 96.5612 77.8652C95.3814 78.0216 94.2622 78.4809 93.3127 79.1984C92.3226 79.9065 91.4859 80.8076 90.8531 81.8475C90.2443 82.8239 89.889 83.937 89.8196 85.0856C89.7749 86.0467 89.9506 87.0112 90.7911 87.59C91.5401 88.0557 92.4293 88.2423 93.3024 88.117C94.2686 87.9711 95.1777 87.5677 95.9342 86.9492C96.8564 86.2667 97.6183 85.3908 98.1665 84.3828C98.7297 83.3759 99.0117 82.2361 98.9829 81.0827Z" fill="#F28F8F"/>
<path d="M55.4746 65.0848L56.1843 66.5902C56.1898 66.6044 56.1983 66.6173 56.2091 66.6281C56.22 66.6389 56.2329 66.6473 56.2472 66.6528C56.2614 66.6583 56.2767 66.6608 56.2919 66.6601C56.3072 66.6594 56.3222 66.6556 56.3358 66.6488L57.9205 66.0425C58.0858 65.9805 58.1513 66.2113 58.0307 66.4352L56.887 68.5882C56.8406 68.671 56.8202 68.7658 56.8285 68.8604L57.0971 70.8067C57.1282 71.0099 56.9525 71.2786 56.8043 71.258L55.3885 71.0823C55.3508 71.0838 55.314 71.0946 55.2816 71.1139C55.2491 71.1331 55.2219 71.1601 55.2025 71.1925L53.7832 73.0079C53.6351 73.1974 53.4629 73.1285 53.4904 72.8908L53.7626 70.631C53.7709 70.5949 53.77 70.5573 53.7597 70.5217C53.7495 70.4862 53.7303 70.4538 53.704 70.4277L52.5569 69.601C52.4397 69.5149 52.5052 69.2048 52.6705 69.0774L54.2552 67.8545C54.3278 67.7932 54.3806 67.7116 54.4067 67.6202L55.1129 65.2984C55.1887 65.0607 55.4023 64.9401 55.4746 65.0848Z" fill="#F28F8F"/>
<path d="M71.3451 56.1283L76.726 53.028C76.9533 52.8971 77.1393 52.9901 77.1393 53.2381C77.1297 53.3774 77.0872 53.5125 77.0153 53.6322C76.9435 53.7519 76.8443 53.853 76.726 53.9271L71.3451 57.0274C71.1178 57.1583 70.9318 57.0653 70.9318 56.8173C70.9414 56.678 70.9839 56.543 71.0558 56.4232C71.1276 56.3035 71.2268 56.2024 71.3451 56.1283Z" fill="#455A64"/>
<path d="M71.3451 58.3297L75.0552 56.187C75.286 56.0527 75.4686 56.1457 75.4686 56.3937C75.4589 56.533 75.4164 56.6681 75.3446 56.7878C75.2727 56.9075 75.1736 57.0086 75.0552 57.0827L71.3451 59.2288C71.1178 59.3597 70.9318 59.2667 70.9318 59.0187C70.9414 58.8794 70.9839 58.7444 71.0558 58.6246C71.1276 58.5049 71.2268 58.4038 71.3451 58.3297Z" fill="#455A64"/>
<path d="M90.5844 55.8771L95.9618 52.7768C96.1891 52.6459 96.3752 52.7389 96.3752 52.9869C96.3652 53.1261 96.3226 53.2611 96.2508 53.3808C96.179 53.5005 96.0799 53.6016 95.9618 53.6759L90.5844 56.7762C90.3536 56.9071 90.171 56.8141 90.171 56.5661C90.1807 56.4268 90.2232 56.2917 90.2951 56.172C90.3669 56.0523 90.466 55.9512 90.5844 55.8771Z" fill="#455A64"/>
<path d="M90.5844 58.0886L94.2945 55.946C94.5218 55.8151 94.7079 55.9081 94.7079 56.1561C94.6982 56.2954 94.6557 56.4304 94.5838 56.5502C94.512 56.6699 94.4128 56.771 94.2945 56.8451L90.5844 58.9877C90.3536 59.1221 90.171 59.0256 90.171 58.7811C90.1799 58.6411 90.222 58.5053 90.2939 58.3848C90.3658 58.2644 90.4654 58.1629 90.5844 58.0886Z" fill="#455A64"/>
<path d="M52.5054 90.2806L57.8828 87.1803C58.1136 87.0459 58.2962 87.1424 58.2962 87.3869C58.2865 87.5262 58.244 87.6613 58.1721 87.781C58.1003 87.9008 58.0012 88.0018 57.8828 88.0759L52.5054 91.1762C52.2746 91.3106 52.092 91.2141 52.092 90.9696C52.1017 90.8303 52.1442 90.6952 52.2161 90.5755C52.2879 90.4557 52.3871 90.3547 52.5054 90.2806Z" fill="#455A64"/>
<path d="M52.5054 92.492L56.2155 90.3493C56.4429 90.2184 56.6289 90.3114 56.6289 90.5594C56.6189 90.6987 56.5763 90.8336 56.5045 90.9533C56.4327 91.073 56.3337 91.1741 56.2155 91.2484L52.5054 93.3911C52.2746 93.522 52.092 93.429 52.092 93.1809C52.1009 93.0414 52.1431 92.9061 52.215 92.7862C52.2869 92.6663 52.3865 92.5654 52.5054 92.492Z" fill="#455A64"/>
<path d="M100.667 74.9093L106.045 71.8089C106.275 71.6746 106.458 71.771 106.458 72.0156C106.448 72.1549 106.406 72.2899 106.334 72.4097C106.262 72.5294 106.163 72.6305 106.045 72.7046L100.667 75.8049C100.436 75.9393 100.254 75.8428 100.254 75.5982C100.264 75.4589 100.306 75.3239 100.378 75.2042C100.45 75.0844 100.549 74.9834 100.667 74.9093Z" fill="#455A64"/>
<path d="M100.667 77.1214L104.377 74.9787C104.605 74.8478 104.791 74.9408 104.791 75.1888C104.781 75.328 104.738 75.463 104.666 75.5827C104.595 75.7024 104.496 75.8035 104.377 75.8778L100.667 78.0205C100.436 78.1514 100.254 78.0584 100.254 77.8103C100.263 77.6708 100.305 77.5355 100.377 77.4156C100.449 77.2957 100.548 77.1948 100.667 77.1214Z" fill="#455A64"/>
<path d="M69.8398 66.3597L77.1394 62.0881L69.795 74.1071L69.8398 66.3597Z" fill="#B90101"/>
<path opacity="0.3" d="M69.8398 66.3597L77.1394 62.0881L69.795 74.1071L69.8398 66.3597Z" fill="black"/>
<path d="M43.6451 70.617L48.1716 67.9955C48.4093 67.8577 48.6057 67.9542 48.6057 68.216C48.5967 68.3617 48.5529 68.5031 48.478 68.6284C48.403 68.7537 48.2992 68.8591 48.1751 68.936L43.6451 71.5575C43.404 71.6953 43.2111 71.5954 43.2111 71.337C43.2215 71.1913 43.2663 71.0501 43.3417 70.925C43.4172 70.7999 43.5211 70.6943 43.6451 70.617Z" fill="#B90101"/>
<path d="M43.6451 72.6117L46.9831 70.6791C47.2208 70.5413 47.4172 70.6378 47.4206 70.8996C47.4102 71.0453 47.3654 71.1865 47.29 71.3116C47.2145 71.4368 47.1106 71.5423 46.9866 71.6196L43.6451 73.5487C43.404 73.6899 43.2111 73.59 43.2111 73.3316C43.2215 73.1859 43.2663 73.0447 43.3417 72.9196C43.4172 72.7945 43.5211 72.689 43.6451 72.6117Z" fill="#B90101"/>
<path d="M43.6451 83.0155L48.1716 80.394C48.4093 80.2562 48.6057 80.3526 48.6057 80.6144C48.5967 80.7601 48.5529 80.9015 48.478 81.0268C48.403 81.1521 48.2992 81.2576 48.1751 81.3344L43.6451 83.9559C43.404 84.0937 43.2111 83.9973 43.2111 83.7355C43.2221 83.5899 43.2671 83.4489 43.3425 83.3238C43.4178 83.1988 43.5215 83.0932 43.6451 83.0155Z" fill="#B90101"/>
<path d="M43.6451 85.0101L46.9831 83.0776C47.2208 82.9398 47.4172 83.0362 47.4206 83.298C47.4102 83.4438 47.3654 83.5849 47.29 83.7101C47.2145 83.8352 47.1106 83.9407 46.9866 84.018L43.6451 85.9505C43.404 86.0883 43.2111 85.9884 43.2111 85.7301C43.2215 85.5843 43.2663 85.4432 43.3417 85.318C43.4172 85.1929 43.5211 85.0874 43.6451 85.0101Z" fill="#B90101"/>
<path d="M43.6451 95.4374L48.1716 92.8158C48.4093 92.678 48.6057 92.7745 48.6057 93.0363C48.5967 93.182 48.5529 93.3234 48.478 93.4487C48.403 93.574 48.2992 93.6794 48.1751 93.7563L43.6451 96.3778C43.404 96.5156 43.2111 96.4157 43.2111 96.1573C43.2215 96.0116 43.2663 95.8704 43.3417 95.7453C43.4172 95.6202 43.5211 95.5146 43.6451 95.4374Z" fill="#B90101"/>
<path d="M43.6451 97.432L46.9831 95.4994C47.2208 95.3616 47.4172 95.4581 47.4206 95.7199C47.4102 95.8656 47.3654 96.0068 47.29 96.1319C47.2145 96.2571 47.1106 96.3626 46.9866 96.4399L43.6451 98.369C43.404 98.5068 43.2111 98.4103 43.2111 98.1519C43.2215 98.0062 43.2663 97.865 43.3417 97.7399C43.4172 97.6148 43.5211 97.5093 43.6451 97.432Z" fill="#B90101"/>
<path d="M43.6451 107.829L48.1716 105.207C48.4093 105.066 48.6057 105.166 48.6057 105.424C48.5972 105.57 48.5537 105.713 48.4787 105.838C48.4038 105.964 48.2996 106.07 48.1751 106.148L43.6451 108.769C43.404 108.907 43.2111 108.807 43.2111 108.549C43.2215 108.403 43.2663 108.262 43.3417 108.137C43.4172 108.011 43.5211 107.906 43.6451 107.829Z" fill="#B90101"/>
<path d="M43.6451 109.823L46.9831 107.891C47.2208 107.749 47.4172 107.849 47.4206 108.111C47.4102 108.257 47.3654 108.398 47.29 108.523C47.2145 108.648 47.1106 108.754 46.9866 108.831L43.6451 110.76C43.404 110.898 43.2111 110.801 43.2111 110.543C43.2215 110.397 43.2663 110.256 43.3417 110.131C43.4172 110.006 43.5211 109.9 43.6451 109.823Z" fill="#B90101"/>
<g opacity="0.4">
<path d="M43.6451 72.6117L46.9831 70.6791C47.2208 70.5413 47.4172 70.6378 47.4206 70.8996C47.4102 71.0453 47.3654 71.1865 47.29 71.3116C47.2145 71.4368 47.1106 71.5423 46.9866 71.6196L43.6451 73.5487C43.404 73.6899 43.2111 73.59 43.2111 73.3316C43.2215 73.1859 43.2663 73.0447 43.3417 72.9196C43.4172 72.7945 43.5211 72.689 43.6451 72.6117Z" fill="black"/>
<path d="M43.6451 85.0101L46.9831 83.0776C47.2208 82.9398 47.4172 83.0362 47.4206 83.298C47.4102 83.4438 47.3654 83.5849 47.29 83.7101C47.2145 83.8352 47.1106 83.9407 46.9866 84.018L43.6451 85.9505C43.404 86.0883 43.2111 85.9884 43.2111 85.7301C43.2215 85.5843 43.2663 85.4432 43.3417 85.318C43.4172 85.1929 43.5211 85.0874 43.6451 85.0101Z" fill="black"/>
<path d="M43.6451 97.432L46.9831 95.4994C47.2208 95.3616 47.4172 95.4581 47.4206 95.7199C47.4102 95.8656 47.3654 96.0068 47.29 96.1319C47.2145 96.2571 47.1106 96.3626 46.9866 96.4399L43.6451 98.369C43.404 98.5068 43.2111 98.4103 43.2111 98.1519C43.2215 98.0062 43.2663 97.865 43.3417 97.7399C43.4172 97.6148 43.5211 97.5093 43.6451 97.432Z" fill="black"/>
<path d="M43.6451 109.823L46.9831 107.891C47.2208 107.749 47.4172 107.849 47.4206 108.111C47.4102 108.257 47.3654 108.398 47.29 108.523C47.2145 108.648 47.1106 108.754 46.9866 108.831L43.6451 110.76C43.404 110.898 43.2111 110.801 43.2111 110.543C43.2215 110.397 43.2663 110.256 43.3417 110.131C43.4172 110.006 43.5211 109.9 43.6451 109.823Z" fill="black"/>
</g>
<path opacity="0.1" d="M122.135 63.7346C121.141 64.2023 120.173 64.7232 119.235 65.2951C113.227 69.1637 108.639 78.0858 108.983 85.2235C109.004 85.6368 109.042 86.0296 109.093 86.4119L122.135 78.8815V63.7346Z" fill="black"/>
<path d="M129.893 67.4966L126.914 65.7742H126.889C124.991 64.7924 122.48 65.0852 119.779 66.8076C114.354 70.3041 110.21 78.3616 110.523 84.8069C110.678 88.0209 111.901 90.2256 113.785 91.197L116.765 92.9194H116.786C118.663 93.8737 121.174 93.6084 123.879 91.855C129.304 88.3619 133.448 80.301 133.135 73.8558C133.001 70.6727 131.781 68.468 129.893 67.4966Z" fill="#37474F"/>
<path d="M116.648 92.8675L113.803 91.2106H113.785C111.915 90.2357 110.685 88.031 110.527 84.8239C110.385 81.9474 111.136 78.7541 112.487 75.7881L115.467 77.5105C114.116 80.4765 113.369 83.6699 113.51 86.5428C113.658 89.6845 114.843 91.8617 116.648 92.8675Z" fill="#263238"/>
<path d="M123.9 91.8859C129.325 88.3928 133.469 80.3319 133.156 73.8867C132.842 67.4414 128.188 65.0472 122.763 68.53C117.337 72.0127 113.179 80.0942 113.524 86.5395C113.868 92.9848 118.471 95.3789 123.9 91.8859Z" fill="#455A64"/>
<path d="M119.352 91.4344C116.152 91.5928 115.632 87.9895 115.563 86.4394C115.287 80.7554 119.097 73.349 123.882 70.2487C124.903 69.5363 126.089 69.0975 127.327 68.9741C130.527 68.8191 131.047 72.4189 131.116 73.9691C131.392 79.6531 127.582 87.0594 122.797 90.1598C121.778 90.8739 120.591 91.313 119.352 91.4344Z" fill="#FAFAFA"/>
<path d="M123.958 81.2756C123.925 81.2794 123.891 81.2794 123.858 81.2756C123.787 81.2516 123.725 81.205 123.683 81.1428C123.641 81.0805 123.62 81.0062 123.624 80.9311V72.7048C123.624 72.6135 123.66 72.5259 123.725 72.4612C123.789 72.3966 123.877 72.3604 123.968 72.3604C124.06 72.3604 124.147 72.3966 124.212 72.4612C124.276 72.5259 124.313 72.6135 124.313 72.7048V79.9183L128.15 74.9888C128.178 74.9524 128.213 74.9219 128.253 74.8992C128.293 74.8765 128.337 74.862 128.383 74.8565C128.428 74.8511 128.474 74.8548 128.518 74.8674C128.563 74.8801 128.604 74.9014 128.639 74.9302C128.675 74.9594 128.704 74.9953 128.725 75.0358C128.746 75.0763 128.759 75.1206 128.763 75.1661C128.766 75.2116 128.761 75.2575 128.747 75.301C128.733 75.3444 128.711 75.3847 128.681 75.4194L124.223 81.1481C124.191 81.1876 124.151 81.2196 124.105 81.2416C124.059 81.2636 124.009 81.2752 123.958 81.2756Z" fill="#37474F"/>
<path d="M121.994 87.3558H121.946C121.909 87.3446 121.877 87.3192 121.859 87.285C121.84 87.2508 121.836 87.2106 121.846 87.1732L123.775 80.6659C123.787 80.6292 123.813 80.5986 123.847 80.5806C123.881 80.5626 123.921 80.5586 123.958 80.5695C123.977 80.5746 123.994 80.5834 124.009 80.5955C124.025 80.6075 124.037 80.6225 124.047 80.6395C124.056 80.6566 124.062 80.6753 124.064 80.6946C124.066 80.714 124.064 80.7335 124.058 80.752L122.136 87.249C122.126 87.2791 122.107 87.3054 122.082 87.3245C122.057 87.3436 122.026 87.3545 121.994 87.3558Z" fill="#B90101"/>
<path d="M123.858 79.2845C124.495 78.8746 125.043 79.1571 125.081 79.9149C125.078 80.3287 124.978 80.736 124.789 81.104C124.6 81.472 124.327 81.7904 123.992 82.0335C123.355 82.4434 122.807 82.161 122.77 81.4031C122.772 80.9893 122.872 80.582 123.061 80.214C123.25 79.846 123.523 79.5276 123.858 79.2845Z" fill="#B90101"/>
<path d="M50.7176 135.033C48.6748 136.066 53.8179 139.707 56.3843 138.305L101.095 112.124L106.462 106.461C106.539 106.413 106.595 106.335 106.615 106.246C106.636 106.157 106.62 106.063 106.572 105.986C106.524 105.908 106.446 105.853 106.357 105.832C106.268 105.811 106.174 105.827 106.097 105.876L95.7449 109.034L50.7176 135.033Z" fill="#E0E0E0"/>
<path d="M96.1549 105.045L105.68 103.178C105.74 103.169 105.801 103.179 105.856 103.206C105.91 103.233 105.955 103.276 105.983 103.33C106.012 103.383 106.024 103.444 106.017 103.505C106.011 103.565 105.985 103.622 105.945 103.667L99.4826 110.984L96.1549 105.045Z" fill="#FFA8A7"/>
<path d="M105.945 103.667C105.986 103.621 106.011 103.563 106.017 103.502C106.023 103.44 106.009 103.378 105.979 103.325C105.948 103.271 105.901 103.229 105.845 103.203C105.789 103.178 105.727 103.17 105.666 103.182L103.806 103.547C104.061 103.705 104.268 103.93 104.404 104.198C104.54 104.466 104.598 104.766 104.574 105.066V105.235L105.945 103.667Z" fill="#263238"/>
<path d="M63.9765 131.357L64.7585 130.909L65.6989 130.375L99.4961 110.991C99.8098 109.942 99.7151 108.814 99.2309 107.832C98.5419 106.32 97.2432 105.125 96.1581 105.056L62.3988 124.429L60.6006 125.463C61.7856 124.857 65.1753 130.737 63.9765 131.357Z" fill="#B90101"/>
<path d="M66.9494 129.665L68.6718 128.663C69.1851 128.391 68.8923 127.13 68.2894 125.824C67.4971 124.102 65.9332 122.414 65.2511 122.772L63.9696 123.51L63.5149 123.782C64.2039 123.42 65.7609 125.098 66.5532 126.834C67.1285 128.084 67.4213 129.3 66.9838 129.631C66.9749 129.645 66.9632 129.657 66.9494 129.665Z" fill="#EBEBEB"/>
<path d="M67.3834 129.41C68.5753 128.78 65.158 122.893 63.9627 123.527L62.2196 124.522C63.415 123.888 66.8322 129.776 65.6369 130.409L67.3834 129.41Z" fill="#B90101"/>
<path d="M63.9767 131.357L65.6992 130.375C66.8773 129.762 63.6323 124.054 62.3818 124.429C62.3566 124.435 62.3323 124.444 62.3095 124.457L60.587 125.459C61.7858 124.856 65.1755 130.737 63.9767 131.357Z" fill="#EBEBEB"/>
<path opacity="0.15" d="M106 103.35L105.68 103.185L98.7692 106.974L63.0291 127.471C62.9637 127.364 62.9086 127.357 62.8638 127.433C63.88 129.014 64.6482 131.009 63.9764 131.357L64.7584 130.909L65.6989 130.375L99.4961 110.991L105.945 103.667C105.985 103.626 106.011 103.574 106.021 103.517C106.031 103.461 106.024 103.403 106 103.35Z" fill="black"/>
<path d="M56.6839 135.535L63.9835 131.357C64.4967 131.092 64.2143 129.845 63.639 128.546C62.8501 126.806 61.2931 125.101 60.6075 125.446L53.239 129.659C51.7853 130.496 53.1219 133.658 54.7444 135.067C55.3611 135.601 56.0362 135.835 56.6839 135.535Z" fill="#F28F8F"/>
<path opacity="0.1" d="M57.1109 133.272C56.6941 131.625 55.361 130.013 54.1346 129.665C53.9541 129.6 53.7606 129.58 53.5705 129.606C53.3805 129.631 53.1994 129.702 53.0426 129.813C51.9437 130.846 53.2217 133.733 54.765 135.066C55.3541 135.59 56.0155 135.824 56.6459 135.549C57.1867 135.228 57.3969 134.388 57.1109 133.272Z" fill="black"/>
<path d="M152.795 102.175C153.022 102.265 153.07 102.706 153.084 103.574C153.084 104.232 153.212 105.382 152.437 105.596C151.662 105.81 150.535 105.665 150.056 105.034C149.457 104.246 149.057 103.557 148.2 102.592C147.455 101.755 146.646 100.973 146.363 99.819C146.108 98.7855 146.363 98.3308 147.052 98.0449C148.034 97.6522 149.533 99.0404 150.291 99.2712C150.948 99.471 152.557 102.082 152.795 102.175Z" fill="#263238"/>
<path d="M152.795 101.369L152.77 102.437C152.363 102.683 151.897 102.812 151.422 102.812C150.947 102.812 150.48 102.683 150.073 102.437C150.028 102.334 149.829 100.904 149.829 100.904L152.795 101.369Z" fill="#FFA8A7"/>
<path d="M144.007 108.145C144.007 108.145 144.289 109.079 144.437 109.895C144.554 110.543 144.716 111.618 144.482 112.103C144.248 112.589 143.356 112.878 141.991 112.837C141.106 112.809 139.714 113.378 138.757 113.87C137.799 114.363 135.739 114.559 134.709 114.418C133.497 114.249 132.256 113.516 132.07 113.009C131.884 112.503 132.157 111.976 135.05 110.829C135.074 110.829 139.06 109.623 140.479 108.125L144.007 108.145Z" fill="#263238"/>
<path d="M144.031 106.974C144.031 106.974 144.011 107.766 144.004 108.218C143.997 108.669 143.449 109.334 142.068 109.251C141.096 109.196 140.425 108.907 140.48 108.121L140.507 106.967L144.031 106.974Z" fill="#FFA8A7"/>
<path d="M153.828 87.2284C153.634 85.3344 153.255 83.4641 152.695 81.6443C152.695 81.6443 153.184 76.8595 153.467 72.3192C153.777 67.4137 154.063 64.8887 153.098 57.8027C153.098 57.8027 138.058 56.4523 137.648 62.1225C137.238 67.7927 137.82 82.2575 137.951 84.755C138.082 87.2525 138.464 89.4641 138.888 93.5187C139.305 97.5181 140.521 106.953 140.521 106.953C141.063 107.243 141.668 107.395 142.283 107.395C142.898 107.395 143.503 107.243 144.045 106.953C144.045 106.953 145.423 95.6303 145.364 92.7505C145.322 90.6179 145.002 88.5 144.414 86.4499C144.414 86.4499 144.82 81.7752 145.178 77.7103C145.537 73.6454 145.867 71.6991 145.96 69.9285L146.305 69.77C146.305 69.77 146.494 76.7975 146.625 79.295C146.756 81.7925 147.101 84.1935 147.717 88.8406C148.251 92.871 149.922 101.411 149.922 101.411C151.71 102.444 152.815 101.349 152.815 101.349C152.815 101.349 154.224 90.7249 153.828 87.2284Z" fill="#455A64"/>
<path d="M145.947 69.9494C145.947 69.9494 149.832 68.1443 151.803 66.4805C151.803 66.4805 149.963 68.9539 147.593 70.0183C147.593 70.0183 146.56 78.7234 146.56 78.5477L146.27 69.9356L145.947 69.9494Z" fill="#37474F"/>
<path d="M143.253 37.5988L143.838 42.7901L148.744 42.5421L148.196 36.4827L143.253 37.5988Z" fill="#FFA8A7"/>
<path d="M150.59 39.5934C152.416 39.5073 153.346 39.7829 154.162 41.3572C154.979 42.9315 155.306 47.6371 155.588 50.0623C155.871 52.4874 155.933 54.1961 154.948 54.4475C153.963 54.699 150.063 54.792 150.063 54.792L150.59 39.5934Z" fill="#455A64"/>
<path d="M153.673 42.2768C153.408 40.8231 151.496 39.297 149.708 39.5864L148.495 39.7931C148.278 40.6646 145.888 41.2124 143.6 40.675C142.911 40.8541 140.641 41.2812 140.069 41.4707C138.423 42.015 137.748 43.6341 137.489 48.9942C137.489 48.9942 137.62 61.1304 137.558 63.5486C141.616 65.271 145.874 65.3055 148.237 64.8473C153.16 63.8862 153.797 61.8675 153.797 61.8675L153.063 56.3145C153.063 56.3145 154.269 45.5632 153.673 42.2768Z" fill="#B90101"/>
<path opacity="0.2" d="M153.673 42.2768C153.408 40.8231 151.496 39.297 149.708 39.5864L148.495 39.7931C148.278 40.6646 145.888 41.2124 143.6 40.675C142.911 40.8541 140.641 41.2812 140.069 41.4707C138.423 42.015 137.748 43.6341 137.489 48.9942C137.489 48.9942 137.62 61.1304 137.558 63.5486C141.616 65.271 145.874 65.3055 148.237 64.8473C153.16 63.8862 153.797 61.8675 153.797 61.8675L153.063 56.3145C153.063 56.3145 154.269 45.5632 153.673 42.2768Z" fill="black"/>
<path d="M143.445 39.3107L143.483 39.6379C144.476 39.8463 145.501 39.8463 146.494 39.6379C148.086 39.2935 148.409 38.8318 148.409 38.8318L148.375 38.4598C148.375 38.4598 148.771 38.3151 148.981 38.9249C149.071 39.1687 149.148 39.4171 149.212 39.6689C149.212 39.6689 149.395 40.7851 147.521 41.3535C146.751 41.5982 145.938 41.6793 145.135 41.5915C144.331 41.5037 143.555 41.249 142.856 40.8436L142.123 40.9986C142.123 40.9986 142.756 39.5346 142.949 39.2383C142.994 39.1565 143.061 39.089 143.143 39.0439C143.225 38.9988 143.318 38.9778 143.411 38.9834L143.445 39.3107Z" fill="#455A64"/>
<path d="M122.639 48.7702L122.491 48.691C122.371 48.6287 122.274 48.5313 122.211 48.4119L119.139 39.7688C119.13 39.7481 119.125 39.7258 119.125 39.7033C119.126 39.6807 119.13 39.6584 119.139 39.6378C119.148 39.6171 119.162 39.5986 119.178 39.5832C119.194 39.5678 119.214 39.556 119.235 39.5484L123.307 37.2851C123.435 37.2602 123.569 37.2822 123.682 37.3471L123.831 37.4229C123.951 37.4853 124.049 37.5842 124.11 37.7054L127.182 46.3485C127.191 46.3693 127.195 46.3915 127.194 46.4139C127.194 46.4363 127.189 46.4584 127.18 46.4789C127.171 46.4994 127.158 46.518 127.142 46.5334C127.126 46.5489 127.107 46.5609 127.086 46.5689L123.014 48.8322C122.886 48.8536 122.753 48.8318 122.639 48.7702Z" fill="#B90101"/>
<path opacity="0.2" d="M122.639 48.7702L122.491 48.691C122.371 48.6287 122.274 48.5313 122.211 48.4119L119.139 39.7688C119.13 39.7481 119.125 39.7258 119.125 39.7033C119.126 39.6807 119.13 39.6584 119.139 39.6378C119.148 39.6171 119.162 39.5986 119.178 39.5832C119.194 39.5678 119.214 39.556 119.235 39.5484L123.307 37.2851C123.435 37.2602 123.569 37.2822 123.682 37.3471L123.831 37.4229C123.951 37.4853 124.049 37.5842 124.11 37.7054L127.182 46.3485C127.191 46.3693 127.195 46.3915 127.194 46.4139C127.194 46.4363 127.189 46.4584 127.18 46.4789C127.171 46.4994 127.158 46.518 127.142 46.5334C127.126 46.5489 127.107 46.5609 127.086 46.5689L123.014 48.8322C122.886 48.8536 122.753 48.8318 122.639 48.7702Z" fill="black"/>
<path d="M122.983 48.8389C122.864 48.8479 122.745 48.8241 122.639 48.77L122.49 48.6907C122.369 48.6293 122.271 48.5302 122.211 48.4083L119.139 39.7686C119.123 39.7252 119.123 39.6777 119.139 39.6343L119.724 39.9409C119.707 39.984 119.707 40.0321 119.724 40.0752L122.797 48.7148C122.81 48.7532 122.835 48.7862 122.869 48.8087C122.902 48.8311 122.943 48.8417 122.983 48.8389Z" fill="#B90101"/>
<path opacity="0.4" d="M122.983 48.8389C122.864 48.8479 122.745 48.8241 122.639 48.77L122.49 48.6907C122.369 48.6293 122.271 48.5302 122.211 48.4083L119.139 39.7686C119.123 39.7252 119.123 39.6777 119.139 39.6343L119.724 39.9409C119.707 39.984 119.707 40.0321 119.724 40.0752L122.797 48.7148C122.81 48.7532 122.835 48.7862 122.869 48.8087C122.902 48.8311 122.943 48.8417 122.983 48.8389Z" fill="black"/>
<path d="M119.724 40.0752L122.801 48.7149C122.814 48.759 122.845 48.796 122.885 48.8179C122.926 48.8398 122.973 48.8449 123.018 48.832L127.089 46.5687C127.11 46.5607 127.13 46.5487 127.146 46.5332C127.162 46.5178 127.175 46.4992 127.184 46.4787C127.193 46.4582 127.198 46.4361 127.198 46.4137C127.198 46.3913 127.194 46.3691 127.186 46.3483L124.113 37.7052C124.099 37.6617 124.068 37.6255 124.028 37.6043C123.987 37.5831 123.94 37.5785 123.896 37.5915L119.821 39.8513C119.8 39.8597 119.781 39.8721 119.764 39.8879C119.748 39.9037 119.735 39.9225 119.726 39.9433C119.717 39.9641 119.712 39.9864 119.712 40.0091C119.712 40.0317 119.716 40.0542 119.724 40.0752Z" fill="#B90101"/>
<path opacity="0.3" d="M119.724 40.0752L122.801 48.7149C122.814 48.759 122.845 48.796 122.885 48.8179C122.926 48.8398 122.973 48.8449 123.018 48.832L127.089 46.5687C127.11 46.5607 127.13 46.5487 127.146 46.5332C127.162 46.5178 127.175 46.4992 127.184 46.4787C127.193 46.4582 127.198 46.4361 127.198 46.4137C127.198 46.3913 127.194 46.3691 127.186 46.3483L124.113 37.7052C124.099 37.6617 124.068 37.6255 124.028 37.6043C123.987 37.5831 123.94 37.5785 123.896 37.5915L119.821 39.8513C119.8 39.8597 119.781 39.8721 119.764 39.8879C119.748 39.9037 119.735 39.9225 119.726 39.9433C119.717 39.9641 119.712 39.9864 119.712 40.0091C119.712 40.0317 119.716 40.0542 119.724 40.0752Z" fill="black"/>
<path d="M120.293 40.5681L123.917 38.5598C123.954 38.549 123.995 38.5533 124.03 38.572C124.065 38.5906 124.091 38.6221 124.103 38.6597L126.576 45.6251C126.59 45.6612 126.589 45.7013 126.573 45.7366C126.558 45.772 126.529 45.8 126.493 45.8146L122.883 47.8815C122.865 47.8874 122.845 47.8895 122.826 47.8879C122.806 47.8862 122.787 47.8807 122.77 47.8718C122.753 47.8628 122.738 47.8506 122.725 47.8357C122.712 47.8208 122.703 47.8036 122.697 47.785L120.206 40.7713C120.198 40.7525 120.193 40.732 120.192 40.7112C120.192 40.6903 120.196 40.6697 120.204 40.6505C120.212 40.6313 120.224 40.614 120.24 40.5998C120.255 40.5857 120.273 40.5748 120.293 40.5681Z" fill="white"/>
<path d="M121.76 38.9904C121.788 38.9772 121.819 38.9751 121.848 38.9848C121.877 38.9944 121.901 39.015 121.915 39.0421C121.924 39.0545 121.93 39.0686 121.932 39.0834C121.935 39.0982 121.935 39.1135 121.931 39.1281C121.927 39.1428 121.921 39.1565 121.911 39.1684C121.902 39.1803 121.891 39.1901 121.877 39.1971C121.85 39.2067 121.821 39.2065 121.795 39.1966C121.768 39.1867 121.746 39.1677 121.732 39.143C121.718 39.1183 121.713 39.0895 121.718 39.0616C121.723 39.0336 121.738 39.0085 121.76 38.9904Z" fill="#263238"/>
<path d="M121.595 39.469C121.798 39.3622 122.15 39.159 122.342 39.0487C122.359 39.04 122.378 39.0379 122.396 39.0431C122.414 39.0482 122.43 39.0601 122.439 39.0763C122.448 39.0923 122.449 39.111 122.444 39.1285C122.439 39.1459 122.427 39.1606 122.411 39.1693L121.66 39.593C121.644 39.6007 121.626 39.6022 121.609 39.5971C121.591 39.592 121.577 39.5807 121.567 39.5654C121.562 39.5575 121.558 39.5485 121.557 39.5391C121.555 39.5296 121.556 39.52 121.559 39.5108C121.561 39.5016 121.566 39.4931 121.572 39.4859C121.578 39.4786 121.586 39.4729 121.595 39.469Z" fill="#263238"/>
<path d="M121.405 39.5723C121.421 39.5647 121.439 39.5634 121.455 39.5685C121.472 39.5736 121.486 39.5848 121.495 39.5998C121.504 39.6145 121.507 39.6321 121.503 39.6489C121.499 39.6656 121.489 39.6802 121.474 39.6894C121.459 39.6952 121.442 39.6954 121.427 39.6901C121.411 39.6847 121.398 39.674 121.39 39.66C121.382 39.6459 121.379 39.6294 121.382 39.6134C121.384 39.5973 121.393 39.5827 121.405 39.5723Z" fill="#263238"/>
<path d="M124.946 47.0165C125.005 47 125.068 47.0065 125.121 47.0347C125.175 47.0629 125.216 47.1106 125.236 47.1681C125.247 47.196 125.253 47.2261 125.253 47.2564C125.252 47.2866 125.246 47.3165 125.234 47.3442C125.222 47.3719 125.204 47.3968 125.182 47.4175C125.16 47.4381 125.133 47.4541 125.105 47.4643C125.046 47.4828 124.982 47.4772 124.927 47.4488C124.873 47.4204 124.831 47.3715 124.812 47.3128C124.801 47.2845 124.796 47.2544 124.797 47.2241C124.798 47.1938 124.804 47.1639 124.817 47.1363C124.829 47.1087 124.847 47.0839 124.87 47.0633C124.892 47.0428 124.918 47.0268 124.946 47.0165Z" fill="#263238"/>
<path d="M122.759 40.5749L123.348 41.3535C123.358 41.3676 123.372 41.3783 123.388 41.3838C123.404 41.3894 123.422 41.3896 123.438 41.3845L124.165 41.071C124.24 41.0365 124.309 41.1571 124.282 41.2742L124.01 42.3835C123.992 42.429 123.992 42.4792 124.01 42.5247L124.437 43.5306C124.482 43.6374 124.437 43.7752 124.351 43.7648L123.593 43.6753C123.576 43.675 123.559 43.6802 123.544 43.6901C123.53 43.7 123.519 43.7141 123.514 43.7304L123.049 44.6674C123 44.7638 122.9 44.7294 122.88 44.6088L122.687 43.441C122.684 43.42 122.677 43.3997 122.667 43.3814C122.656 43.363 122.642 43.347 122.625 43.3342L121.912 42.9071C121.874 42.8728 121.852 42.8256 121.848 42.7751C121.844 42.7246 121.859 42.6745 121.891 42.6349L122.528 42.0045C122.557 41.9708 122.573 41.9282 122.573 41.884L122.594 40.6817C122.608 40.5577 122.697 40.4923 122.759 40.5749Z" fill="#B90101"/>
<path d="M140.07 41.4705C137.824 41.6634 136.866 42.0733 135.181 45.1116C133.352 48.4118 129.838 54.3782 129.391 55.1326C128.771 56.1661 128.653 57.7748 129.191 58.7394C129.69 59.6385 131.258 60.0484 133.073 58.016C135.212 55.6046 139.191 49.7002 139.191 49.7002C139.191 49.7002 142.574 45.2425 140.07 41.4705Z" fill="#FFA8A7"/>
<path d="M130.121 59.4285C128.399 59.2218 124.382 53.7686 123.231 51.9876C122.329 50.542 121.144 49.293 119.749 48.3154C119.476 48.1326 119.243 47.8986 119.06 47.6265C118.923 47.358 118.855 47.0596 118.863 46.7584C118.887 46.3657 118.881 45.9718 118.843 45.5802C118.78 45.3556 118.746 45.1243 118.739 44.8913C118.76 44.6674 118.874 44.4607 118.911 44.2368C118.931 43.9621 118.922 43.6861 118.884 43.4134C118.871 43.2291 118.908 43.0447 118.991 42.8795C119.094 42.7268 119.217 42.5879 119.356 42.4661C119.536 42.3142 119.727 42.176 119.928 42.0527L120.52 43.6787L121.092 45.2358C121.309 45.439 121.674 45.8352 121.915 45.4287C121.971 45.3219 122.003 45.2044 122.008 45.0842C122.05 44.688 122.008 44.2815 122.088 43.8923C122.128 43.6416 122.229 43.4048 122.384 43.2033C122.487 43.0793 122.794 42.7934 122.963 42.9415C123.011 42.99 123.042 43.0528 123.052 43.1206C123.094 43.3067 123.032 43.4858 123.052 43.6649C123.083 43.8957 123.166 44.1265 123.211 44.3539C123.3 44.8223 123.355 45.2967 123.376 45.7732C123.376 46.1176 123.376 46.4621 123.428 46.8238C123.466 47.2323 123.61 47.6239 123.844 47.9606C124.292 48.6014 130.29 54.3473 130.29 54.3473L130.121 59.4285Z" fill="#FFA8A7"/>
<path d="M140.5 41.3536C139.139 41.3191 137.507 41.5361 136.239 43.1793C134.971 44.8225 129.907 53.7687 129.907 53.7687L127.065 51.2196C126.515 51.5674 126.039 52.0203 125.665 52.5523C125.29 53.0843 125.024 53.6849 124.881 54.3199C125.656 55.5435 126.516 56.7108 127.455 57.813C128.657 59.1323 129.997 60.0452 131.096 59.6422C132.195 59.2391 133.314 58.3641 135.681 55.0709C138.047 51.7776 140.631 47.8884 140.631 47.8884C140.631 47.8884 142.261 44.0715 140.5 41.3536Z" fill="#455A64"/>
<path d="M139.797 31.2393C139.797 31.2393 138.574 33.0995 138.712 33.282C138.85 33.4646 139.746 33.6265 139.746 33.6265L139.797 31.2393Z" fill="#F28F8F"/>
<path d="M140.373 32.4349C140.084 32.4356 139.801 32.3505 139.56 32.1904C139.32 32.0303 139.132 31.8024 139.021 31.5356C138.91 31.2688 138.88 30.975 138.936 30.6914C138.992 30.4079 139.131 30.1473 139.335 29.9427C139.539 29.7381 139.8 29.5986 140.083 29.542C140.366 29.4854 140.66 29.5141 140.927 29.6245C141.195 29.735 141.423 29.9222 141.584 30.1624C141.744 30.4027 141.83 30.6852 141.83 30.9743C141.83 31.3611 141.676 31.732 141.403 32.0059C141.13 32.2797 140.76 32.434 140.373 32.4349ZM140.373 29.8409C140.148 29.8402 139.927 29.9064 139.74 30.0311C139.552 30.1557 139.406 30.3332 139.32 30.5411C139.233 30.749 139.21 30.9778 139.254 31.1986C139.298 31.4195 139.406 31.6224 139.565 31.7816C139.725 31.9407 139.928 32.0491 140.148 32.0928C140.369 32.1366 140.598 32.1138 140.806 32.0273C141.014 31.9408 141.191 31.7946 141.316 31.6071C141.441 31.4197 141.507 31.1994 141.506 30.9743C141.505 30.674 141.385 30.3862 141.173 30.1739C140.961 29.9615 140.673 29.8418 140.373 29.8409Z" fill="#263238"/>
<path d="M143.197 26.1031C140.721 26.6232 140.004 27.7153 139.773 31.6493C139.529 35.7624 139.949 37.0542 140.486 37.6088C140.851 37.9809 142.898 38.0497 143.9 37.7673C145.182 37.4228 148.072 36.3893 149.412 34.3224C151.007 31.8869 151.424 28.5902 149.718 27.2364C147.335 25.3314 144.207 25.8895 143.197 26.1031Z" fill="#FFA8A7"/>
<path d="M143.283 37.8706L143.17 37.1162C142.391 37.5331 141.514 37.7319 140.631 37.6915C141.103 37.9326 142.336 38.0015 143.283 37.8706Z" fill="#F28F8F"/>
<path d="M139.05 30.6709L143.452 31.2393L143.277 31.5493L139.05 31.0016V30.6709Z" fill="#263238"/>
<path d="M139.618 27.733C139.56 28.1095 139.628 28.4947 139.811 28.8285C139.977 29.1153 140.221 29.3495 140.514 29.5042C140.807 29.659 141.138 29.728 141.468 29.7035C141.355 29.7035 141.782 30.2581 141.813 30.2891C141.898 30.3723 142 30.4375 142.111 30.4807C142.222 30.5239 142.341 30.5443 142.46 30.5406C142.55 31.0917 142.509 31.667 143.122 31.9185C143.122 31.9185 143.511 30.3993 144.792 30.5922C146.074 30.7851 146.257 32.4283 145.444 33.4239C144.631 34.4194 143.883 34.0474 143.876 34.0405C143.948 34.0784 143.976 34.5641 144 34.6537C144.087 34.9423 144.203 35.2215 144.345 35.4873C144.624 36.022 145.021 36.4862 145.506 36.8446C145.912 37.1784 146.391 37.4121 146.904 37.5267C147.369 37.6025 147.913 37.3923 148.382 37.3303C149.568 35.7189 150.563 33.9757 151.348 32.1355C151.748 31.3228 151.99 30.4413 152.061 29.5381C152.061 28.8044 152.04 28.0189 151.589 27.3989C151.4 27.1395 151.16 26.921 150.884 26.7564C150.608 26.5918 150.302 26.4846 149.984 26.4412C149.922 26.0384 149.764 25.6563 149.525 25.3267C149.285 24.9971 148.97 24.7297 148.606 24.5466C147.873 24.1863 147.058 24.0248 146.243 24.0781C145.43 24.0987 144.624 24.24 143.831 24.3226C142.158 24.4473 140.476 24.4116 138.809 24.2159C138.75 24.2035 138.688 24.2108 138.633 24.2365C138.579 24.2816 138.543 24.3455 138.533 24.4157C138.271 25.5352 138.792 26.6927 139.956 26.9683C139.781 27.1906 139.665 27.4537 139.618 27.733Z" fill="#263238"/>
<path d="M143.104 32.7964L143.149 31.074C143.036 31.0711 142.924 31.0904 142.818 31.131C142.712 31.1716 142.616 31.2325 142.534 31.3104C142.452 31.3883 142.386 31.4816 142.34 31.585C142.294 31.6883 142.269 31.7997 142.266 31.9128C142.263 32.0259 142.282 32.1385 142.323 32.2441C142.363 32.3497 142.424 32.4463 142.502 32.5284C142.58 32.6104 142.673 32.6763 142.777 32.7223C142.88 32.7683 142.991 32.7935 143.104 32.7964Z" fill="#263238"/>
</svg>
