<svg width="202" height="150" viewBox="0 0 202 150" fill="none" xmlns="http://www.w3.org/2000/svg">
<path d="M181.603 138.5H168.248V138.601H181.603V138.5Z" fill="#EBEBEB"/>
<path d="M133.749 139.597H130.245V139.698H133.749V139.597Z" fill="#EBEBEB"/>
<path d="M167.845 134.759H160.107V134.859H167.845V134.759Z" fill="#EBEBEB"/>
<path d="M38.7637 135.436H21.3489V135.537H38.7637V135.436Z" fill="#EBEBEB"/>
<path d="M44.9088 135.436H42.3564V135.537H44.9088V135.436Z" fill="#EBEBEB"/>
<path d="M90.9802 137.137H53.207V137.238H90.9802V137.137Z" fill="#EBEBEB"/>
<path d="M96.3228 114.029H18.462C17.8514 114.029 17.2658 113.787 16.834 113.355C16.4022 112.923 16.1597 112.337 16.1597 111.727V2.2822C16.165 1.67507 16.4099 1.09463 16.8411 0.667202C17.2723 0.239777 17.8549 -2.3276e-05 18.462 1.69453e-09H96.3228C96.6252 1.69453e-09 96.9246 0.0595517 97.2039 0.175256C97.4833 0.29096 97.7371 0.460551 97.9509 0.674345C98.1646 0.888139 98.3342 1.14195 98.4499 1.42128C98.5657 1.70062 98.6252 2.00001 98.6252 2.30236V111.727C98.6252 112.029 98.5657 112.329 98.4499 112.608C98.3342 112.887 98.1646 113.141 97.9509 113.355C97.7371 113.569 97.4833 113.738 97.2039 113.854C96.9246 113.97 96.6252 114.029 96.3228 114.029ZM18.462 0.0806433C17.8785 0.0817092 17.3191 0.314 16.9065 0.72664C16.4938 1.13928 16.2615 1.69864 16.2605 2.2822V111.727C16.2615 112.31 16.4938 112.87 16.9065 113.282C17.3191 113.695 17.8785 113.927 18.462 113.928H96.3228C96.9064 113.927 97.4658 113.695 97.8784 113.282C98.291 112.87 98.5233 112.31 98.5244 111.727V2.2822C98.5233 1.69864 98.291 1.13928 97.8784 0.72664C97.4658 0.314 96.9064 0.0817092 96.3228 0.0806433H18.462Z" fill="#EBEBEB"/>
<path d="M183.538 114.134H105.677C105.067 114.134 104.481 113.891 104.049 113.46C103.618 113.028 103.375 112.442 103.375 111.832V2.38701C103.375 1.77639 103.618 1.19078 104.049 0.759001C104.481 0.327225 105.067 0.0846558 105.677 0.0846558H183.538C184.149 0.0846558 184.734 0.327225 185.166 0.759001C185.598 1.19078 185.841 1.77639 185.841 2.38701V111.832C185.841 112.442 185.598 113.028 185.166 113.46C184.734 113.891 184.149 114.134 183.538 114.134ZM105.677 0.18546C105.094 0.186525 104.534 0.418817 104.122 0.831458C103.709 1.2441 103.477 1.80345 103.476 2.38701V111.832C103.477 112.415 103.709 112.975 104.122 113.387C104.534 113.8 105.094 114.032 105.677 114.033H183.538C184.122 114.032 184.681 113.8 185.094 113.387C185.506 112.975 185.739 112.415 185.74 111.832V2.38701C185.739 1.80345 185.506 1.2441 185.094 0.831458C184.681 0.418817 184.122 0.186525 183.538 0.18546H105.677Z" fill="#EBEBEB"/>
<path d="M201.804 132.013H0.196289V132.113H201.804V132.013Z" fill="#EBEBEB"/>
<path d="M122.987 23.9792H144.467C144.467 23.9792 149.503 22.0841 148.85 17.0601C148.196 12.036 140.596 16.2214 140.596 16.2214C140.596 16.2214 142.902 9.2135 135.539 11.2014C133.459 11.731 131.581 12.8642 130.142 14.4584C128.704 16.0526 127.769 18.0366 127.455 20.1608C127.455 20.1608 117.786 18.4512 122.987 23.9792Z" fill="#F5F5F5"/>
<path d="M41.0459 30.8822C43.9128 31.604 47.1344 29.2048 47.2675 26.2533C47.3078 25.3824 47.1224 24.5074 47.2353 23.6445C47.586 20.8865 51.5537 19.443 53.598 21.326C53.7971 19.0936 54.6834 16.9779 56.1349 15.2701C57.5863 13.5623 59.5315 12.3464 61.7026 11.79C63.2429 11.4271 64.9485 11.4392 66.3275 12.2214C67.7065 13.0037 68.6258 14.7052 68.1702 16.2253C68.548 14.8575 69.311 13.6271 70.3683 12.6806C71.4255 11.7342 72.7326 11.1115 74.1337 10.8868C75.5402 10.7132 76.9658 10.9828 78.2119 11.6578C79.4579 12.3329 80.4623 13.3798 81.0852 14.6528C82.2504 17.2213 81.4077 20.5841 79.0933 22.201C80.7061 20.4672 84.0609 20.3704 84.8552 21.7655C85.1764 22.3031 85.3463 22.9175 85.3471 23.5437C85.2705 26.971 82.7383 29.2774 79.6134 30.6887C76.4885 32.0999 43.6184 32.2572 41.0459 30.8822Z" fill="#F5F5F5"/>
<path d="M166.256 41.4908V41.6037C166.119 41.6037 166.462 42.007 166.539 41.9021C166.615 41.7973 166.51 41.632 166.406 41.5392C165.959 41.1395 165.412 40.8678 164.823 40.753C164.235 40.6381 163.626 40.6843 163.062 40.8866C162.497 41.089 161.998 41.44 161.616 41.9026C161.235 42.3652 160.985 42.9223 160.894 43.515C160.087 42.5594 158.579 42.5432 157.45 43.0714C156.614 43.4822 155.915 44.1268 155.439 44.927C154.962 45.7272 154.728 46.6487 154.765 47.5794C154.294 47.3649 153.766 47.3147 153.263 47.4369C152.761 47.559 152.314 47.8463 151.995 48.2528C151.721 48.6197 151.567 49.0592 151.297 49.4382C151.087 49.7259 150.815 49.9627 150.501 50.1309C150.187 50.2991 149.839 50.3945 149.483 50.41C152.192 50.9664 163.083 50.7003 165.769 50.7527C166.938 50.7728 168.123 50.8777 169.276 50.6479C170.43 50.418 171.567 49.793 172.099 48.7406C172.631 47.6883 172.256 46.1923 171.176 45.7367C171.503 45.118 171.617 44.4083 171.499 43.7182C171.381 43.0282 171.037 42.3966 170.522 41.9223C169.454 41.007 167.373 40.6562 166.256 41.4908Z" fill="#F5F5F5"/>
<path d="M65.6301 75.9778V74.5343C65.6238 74.4934 65.6031 74.456 65.5716 74.4291C65.5402 74.4021 65.5001 74.3873 65.4587 74.3873C65.4173 74.3873 65.3773 74.4021 65.3458 74.4291C65.3144 74.456 65.2937 74.4934 65.2874 74.5343V76.1189C65.2884 76.1635 65.3066 76.206 65.3381 76.2375C65.3696 76.2691 65.4121 76.2872 65.4567 76.2883C65.5931 76.2883 65.7264 76.3287 65.8398 76.4045C65.9532 76.4802 66.0415 76.5879 66.0937 76.7139C66.1459 76.8399 66.1596 76.9785 66.133 77.1123C66.1064 77.246 66.0407 77.3689 65.9443 77.4653C65.8478 77.5617 65.725 77.6274 65.5912 77.654C65.4575 77.6806 65.3189 77.667 65.1929 77.6148C65.0669 77.5626 64.9592 77.4742 64.8834 77.3608C64.8077 77.2474 64.7672 77.1141 64.7672 76.9778C64.7672 76.76 64.4003 76.76 64.4245 76.9778C64.5092 77.8326 65.5091 78.3971 66.1906 77.7116C66.3207 77.5771 66.4118 77.4097 66.4541 77.2273C66.4965 77.045 66.4884 76.8546 66.4308 76.6765C66.3733 76.4983 66.2683 76.3392 66.1273 76.2162C65.9862 76.0931 65.8144 76.0107 65.6301 75.9778Z" fill="#EBEBEB"/>
<path d="M40.3162 65.6394V68.7603L37.03 65.4781L36.8687 65.6394H36.6389V95.2595H40.7719V65.6394H40.3162ZM37.0905 88.2194L39.9896 91.1266H37.0986L37.0905 88.2194ZM37.0905 80.8728L39.9816 83.7639H37.0986L37.0905 80.8728ZM37.0905 73.5222L39.9816 76.4173H37.0986L37.0905 73.5222ZM37.0905 66.1756L39.9816 69.0667H37.0986L37.0905 66.1756ZM39.9816 69.5264L37.0905 72.4174V69.5264H39.9816ZM40.3082 69.8489V72.74H37.4212L40.3082 69.8489ZM39.9816 76.8729L37.0905 79.768V76.8729H39.9816ZM40.3082 77.1995V80.0906H37.4212L40.3082 77.1995ZM39.9816 84.2236L37.0905 87.1146V84.2236H39.9816ZM40.3082 84.5461V87.4372H37.4212L40.3082 84.5461ZM39.9816 91.5701L37.0905 94.4612V91.5701H39.9816ZM37.4131 94.7958L40.3082 91.9008V94.7958H37.4131ZM40.3082 90.796L37.4212 87.9009H40.3162L40.3082 90.796ZM40.3082 83.4494L37.4131 80.5583H40.3162L40.3082 83.4494ZM40.3082 76.0988L37.4131 73.2077H40.3162L40.3082 76.0988Z" fill="#F0F0F0"/>
<path d="M37.0984 55.8816V61.6234H37.5581V59.4218L39.9209 61.7847L40.0822 61.6234H40.312V55.8816H37.0984ZM39.5177 56.3413L37.546 58.313V56.3413H39.5177ZM39.8443 61.071L37.8685 59.0952H39.8443V61.071ZM37.8685 58.6517L39.8443 56.6759V58.6517H37.8685Z" fill="#F0F0F0"/>
<path d="M29.5583 65.6393H24.0464V71.1513H29.5583V65.6393Z" fill="#E6E6E6"/>
<path d="M65.5333 73.5867H65.2268V62.9943L39.5662 54.4824H37.8687L24.1271 63.0144L23.9658 62.7523L37.78 54.18H39.6146L39.6388 54.1881L65.5333 62.7725V73.5867Z" fill="#E6E6E6"/>
<path d="M62.3963 65.8773H62.6946L65.9204 62.6516H23.8167V65.8773H62.3963ZM62.8519 63.1112H64.8276L62.8519 65.087V63.1112ZM24.2763 65.4095V63.4378L26.248 65.4095H24.2763ZM26.5706 65.087L24.5989 63.1112H26.5706V65.087ZM27.0303 63.1112H29.006L27.0303 65.087V63.1112ZM29.3286 65.4095H27.3528L29.3286 63.4378V65.4095ZM29.7842 65.4095V63.4378L31.76 65.4095H29.7842ZM32.0826 65.087L30.1108 63.1112H32.0826V65.087ZM32.5422 63.1112H34.5139L32.5422 65.087V63.1112ZM34.8405 65.4095H32.8567L34.8325 63.4378L34.8405 65.4095ZM35.2962 65.4095V63.4378L37.2719 65.4095H35.2962ZM37.5945 65.087L35.6228 63.1112H37.5945V65.087ZM38.0542 63.1112H40.0259L38.0542 65.087V63.1112ZM40.3485 65.4095H38.3767L40.3485 63.4378V65.4095ZM40.8081 65.4095V63.4378L42.7799 65.4095H40.8081ZM43.1065 65.087L41.1307 63.1112H43.1065V65.087ZM43.5621 63.1112H45.5378L43.5621 65.087V63.1112ZM45.8604 65.4095H43.8887L45.8604 63.4378V65.4095ZM46.3201 65.4095V63.4378L48.2918 65.4095H46.3201ZM48.6184 65.087L46.6427 63.1112H48.6184V65.087ZM49.074 63.1112H51.0498L49.074 65.087V63.1112ZM51.3724 65.4095H49.3885L51.3603 63.4378L51.3724 65.4095ZM51.832 65.4095V63.4378L53.8037 65.4095H51.832ZM54.1263 65.087L52.1546 63.1112H54.1263V65.087ZM54.586 63.1112H56.5577L54.586 65.087V63.1112ZM56.8843 65.4095H54.9086L56.8843 63.4378V65.4095ZM57.3399 63.1112H59.3157L57.3399 65.087V63.1112ZM59.6383 65.4095H57.6665L59.6383 63.4378V65.4095ZM60.0979 65.4095V63.4378L62.0697 65.4095H60.0979ZM60.4205 63.1112H62.3963V65.087L60.4205 63.1112Z" fill="#F0F0F0"/>
<path d="M42.8081 66.8893H34.3406L34.6511 63.3249C34.6905 62.8604 34.9031 62.4276 35.2466 62.1124C35.5902 61.7973 36.0396 61.6227 36.5058 61.6234H40.538C40.9951 61.6233 41.4362 61.7913 41.7775 62.0954C42.1188 62.3995 42.3363 62.8184 42.3887 63.2725L42.8081 66.8893Z" fill="#F0F0F0"/>
<path d="M37.3324 63.1031H35.7034V64.7321H37.3324V63.1031Z" fill="#FAFAFA"/>
<path d="M39.3888 63.1031H37.7598V64.7321H39.3888V63.1031Z" fill="#FAFAFA"/>
<path d="M41.4452 63.1031H39.8162V64.7321H41.4452V63.1031Z" fill="#FAFAFA"/>
<path d="M38.7072 56.1114C39.3196 56.1114 39.8161 55.6149 39.8161 55.0025C39.8161 54.3901 39.3196 53.8937 38.7072 53.8937C38.0948 53.8937 37.5984 54.3901 37.5984 55.0025C37.5984 55.6149 38.0948 56.1114 38.7072 56.1114Z" fill="#E6E6E6"/>
<path d="M65.4566 75.4859C65.2049 75.4848 64.9639 75.3841 64.7863 75.2057C64.6087 75.0274 64.509 74.786 64.509 74.5343V73.5867H66.4041V74.5343C66.4041 74.786 66.3044 75.0274 66.1269 75.2057C65.9493 75.3841 65.7083 75.4848 65.4566 75.4859Z" fill="#E6E6E6"/>
<path d="M141.955 72.3327H111.173V125.557H141.955V72.3327Z" fill="#E6E6E6"/>
<path d="M117.084 64.8934V72.3327H119.512H133.616H136.043V64.8934H117.084Z" fill="#E6E6E6"/>
<path d="M110.54 72.373H142.592V71.5706H110.54V72.373Z" fill="#F5F5F5"/>
<path d="M116.282 64.8975H136.85V64.0951H116.282V64.8975Z" fill="#F5F5F5"/>
<path d="M135.539 72.3327H104.758V125.557H135.539V72.3327Z" fill="#F0F0F0"/>
<path d="M110.669 64.8934V72.3327H113.097H127.201H129.628V64.8934H110.669Z" fill="#F0F0F0"/>
<path d="M110.665 74.3044H106.726V78.2439H110.665V74.3044Z" fill="white"/>
<path d="M118.298 74.3044H114.359V78.2439H118.298V74.3044Z" fill="white"/>
<path d="M125.931 74.3044H121.991V78.2439H125.931V74.3044Z" fill="white"/>
<path d="M133.568 74.3044H129.628V78.2439H133.568V74.3044Z" fill="white"/>
<path d="M110.665 81.4656H106.726V85.405H110.665V81.4656Z" fill="white"/>
<path d="M118.298 81.4656H114.359V85.405H118.298V81.4656Z" fill="white"/>
<path d="M125.931 81.4656H121.991V85.405H125.931V81.4656Z" fill="white"/>
<path d="M133.568 81.4656H129.628V85.405H133.568V81.4656Z" fill="white"/>
<path d="M110.665 88.6266H106.726V92.5661H110.665V88.6266Z" fill="white"/>
<path d="M118.298 88.6266H114.359V92.5661H118.298V88.6266Z" fill="white"/>
<path d="M125.931 88.6266H121.991V92.5661H125.931V88.6266Z" fill="white"/>
<path d="M118.298 68.1151H114.359V72.0545H118.298V68.1151Z" fill="white"/>
<path d="M125.931 68.1151H121.991V72.0545H125.931V68.1151Z" fill="white"/>
<path d="M133.568 88.6266H129.628V92.5661H133.568V88.6266Z" fill="white"/>
<path d="M110.665 95.7838H106.726V99.7232H110.665V95.7838Z" fill="white"/>
<path d="M118.298 95.7838H114.359V99.7232H118.298V95.7838Z" fill="white"/>
<path d="M125.931 95.7838H121.991V99.7232H125.931V95.7838Z" fill="white"/>
<path d="M133.568 95.7838H129.628V99.7232H133.568V95.7838Z" fill="white"/>
<path d="M110.665 102.945H106.726V106.884H110.665V102.945Z" fill="white"/>
<path d="M118.298 102.945H114.359V106.884H118.298V102.945Z" fill="white"/>
<path d="M125.931 102.945H121.991V106.884H125.931V102.945Z" fill="white"/>
<path d="M133.568 102.945H129.628V106.884H133.568V102.945Z" fill="white"/>
<path d="M110.665 110.106H106.726V114.045H110.665V110.106Z" fill="white"/>
<path d="M118.298 110.106H114.359V114.045H118.298V110.106Z" fill="white"/>
<path d="M125.931 110.106H121.991V114.045H125.931V110.106Z" fill="white"/>
<path d="M133.568 110.106H129.628V114.045H133.568V110.106Z" fill="white"/>
<path d="M110.665 117.267H106.726V121.206H110.665V117.267Z" fill="white"/>
<path d="M118.298 117.267H114.359V121.206H118.298V117.267Z" fill="white"/>
<path d="M125.931 117.267H121.991V121.206H125.931V117.267Z" fill="white"/>
<path d="M133.568 117.267H129.628V121.206H133.568V117.267Z" fill="white"/>
<path d="M104.121 72.373H136.172V71.5706H104.121V72.373Z" fill="#F5F5F5"/>
<path d="M109.863 64.8975H130.431V64.0951H109.863V64.8975Z" fill="#F5F5F5"/>
<path d="M180.732 77.127H152.72V125.561H180.732V77.127Z" fill="#E6E6E6"/>
<path d="M152.144 77.1633H181.308V76.4335H152.144V77.1633Z" fill="#F5F5F5"/>
<path d="M174.893 77.127H146.882V125.561H174.893V77.127Z" fill="#F0F0F0"/>
<path d="M152.261 78.9213H148.676V82.5058H152.261V78.9213Z" fill="white"/>
<path d="M159.204 78.9213H155.62V82.5058H159.204V78.9213Z" fill="white"/>
<path d="M166.151 78.9213H162.567V82.5058H166.151V78.9213Z" fill="white"/>
<path d="M173.099 78.9213H169.514V82.5058H173.099V78.9213Z" fill="white"/>
<path d="M152.261 85.4372H148.676V89.0218H152.261V85.4372Z" fill="white"/>
<path d="M159.204 85.4372H155.62V89.0218H159.204V85.4372Z" fill="white"/>
<path d="M166.151 85.4372H162.567V89.0218H166.151V85.4372Z" fill="white"/>
<path d="M173.099 85.4372H169.514V89.0218H173.099V85.4372Z" fill="white"/>
<path d="M152.261 91.9492H148.676V95.5337H152.261V91.9492Z" fill="white"/>
<path d="M159.204 91.9492H155.62V95.5337H159.204V91.9492Z" fill="white"/>
<path d="M166.151 91.9492H162.567V95.5337H166.151V91.9492Z" fill="white"/>
<path d="M173.099 91.9492H169.514V95.5337H173.099V91.9492Z" fill="white"/>
<path d="M152.261 98.4651H148.676V102.05H152.261V98.4651Z" fill="white"/>
<path d="M159.204 98.4651H155.62V102.05H159.204V98.4651Z" fill="white"/>
<path d="M166.151 98.4651H162.567V102.05H166.151V98.4651Z" fill="white"/>
<path d="M173.099 98.4651H169.514V102.05H173.099V98.4651Z" fill="white"/>
<path d="M152.261 104.981H148.676V108.566H152.261V104.981Z" fill="white"/>
<path d="M159.204 104.981H155.62V108.566H159.204V104.981Z" fill="white"/>
<path d="M166.151 104.981H162.567V108.566H166.151V104.981Z" fill="white"/>
<path d="M173.099 104.981H169.514V108.566H173.099V104.981Z" fill="white"/>
<path d="M152.261 111.497H148.676V115.082H152.261V111.497Z" fill="white"/>
<path d="M159.204 111.497H155.62V115.082H159.204V111.497Z" fill="white"/>
<path d="M166.151 111.497H162.567V115.082H166.151V111.497Z" fill="white"/>
<path d="M173.099 111.497H169.514V115.082H173.099V111.497Z" fill="white"/>
<path d="M152.261 118.013H148.676V121.598H152.261V118.013Z" fill="white"/>
<path d="M159.204 118.013H155.62V121.598H159.204V118.013Z" fill="white"/>
<path d="M166.151 118.013H162.567V121.598H166.151V118.013Z" fill="white"/>
<path d="M173.099 118.013H169.514V121.598H173.099V118.013Z" fill="white"/>
<path d="M146.305 77.1633H175.47V76.4335H146.305V77.1633Z" fill="#F5F5F5"/>
<path d="M98.9638 72.3327H68.1824V125.557H98.9638V72.3327Z" fill="#E6E6E6"/>
<path d="M74.0935 64.8934V72.3327H76.5209H90.6253H93.0527V64.8934H74.0935Z" fill="#E6E6E6"/>
<path d="M67.5493 72.373H99.6008V71.5706H67.5493V72.373Z" fill="#F5F5F5"/>
<path d="M73.2911 64.8975H93.8591V64.0951H73.2911V64.8975Z" fill="#F5F5F5"/>
<path d="M92.5485 72.3327H61.7671V125.557H92.5485V72.3327Z" fill="#F0F0F0"/>
<path d="M67.6782 64.8934V72.3327H70.1056H84.21H86.6374V64.8934H67.6782Z" fill="#F0F0F0"/>
<path d="M67.6743 74.3044H63.7349V78.2439H67.6743V74.3044Z" fill="white"/>
<path d="M75.3071 74.3044H71.3677V78.2439H75.3071V74.3044Z" fill="white"/>
<path d="M82.9401 74.3044H79.0007V78.2439H82.9401V74.3044Z" fill="white"/>
<path d="M90.5769 74.3044H86.6375V78.2439H90.5769V74.3044Z" fill="white"/>
<path d="M67.6743 81.4656H63.7349V85.405H67.6743V81.4656Z" fill="white"/>
<path d="M75.3071 81.4656H71.3677V85.405H75.3071V81.4656Z" fill="white"/>
<path d="M82.9401 81.4656H79.0007V85.405H82.9401V81.4656Z" fill="white"/>
<path d="M90.5769 81.4656H86.6375V85.405H90.5769V81.4656Z" fill="white"/>
<path d="M67.6743 88.6266H63.7349V92.5661H67.6743V88.6266Z" fill="white"/>
<path d="M75.3071 88.6266H71.3677V92.5661H75.3071V88.6266Z" fill="white"/>
<path d="M82.9401 88.6266H79.0007V92.5661H82.9401V88.6266Z" fill="white"/>
<path d="M75.3071 68.1151H71.3677V72.0545H75.3071V68.1151Z" fill="white"/>
<path d="M82.9401 68.1151H79.0007V72.0545H82.9401V68.1151Z" fill="white"/>
<path d="M90.5769 88.6266H86.6375V92.5661H90.5769V88.6266Z" fill="white"/>
<path d="M67.6743 95.7838H63.7349V99.7232H67.6743V95.7838Z" fill="white"/>
<path d="M75.3071 95.7838H71.3677V99.7232H75.3071V95.7838Z" fill="white"/>
<path d="M82.9401 95.7838H79.0007V99.7232H82.9401V95.7838Z" fill="white"/>
<path d="M90.5769 95.7838H86.6375V99.7232H90.5769V95.7838Z" fill="white"/>
<path d="M67.6743 102.945H63.7349V106.884H67.6743V102.945Z" fill="white"/>
<path d="M75.3071 102.945H71.3677V106.884H75.3071V102.945Z" fill="white"/>
<path d="M82.9401 102.945H79.0007V106.884H82.9401V102.945Z" fill="white"/>
<path d="M90.5769 102.945H86.6375V106.884H90.5769V102.945Z" fill="white"/>
<path d="M67.6743 110.106H63.7349V114.045H67.6743V110.106Z" fill="white"/>
<path d="M75.3071 110.106H71.3677V114.045H75.3071V110.106Z" fill="white"/>
<path d="M82.9401 110.106H79.0007V114.045H82.9401V110.106Z" fill="white"/>
<path d="M90.5769 110.106H86.6375V114.045H90.5769V110.106Z" fill="white"/>
<path d="M67.6743 117.267H63.7349V121.206H67.6743V117.267Z" fill="white"/>
<path d="M75.3071 117.267H71.3677V121.206H75.3071V117.267Z" fill="white"/>
<path d="M82.9401 117.267H79.0007V121.206H82.9401V117.267Z" fill="white"/>
<path d="M90.5769 117.267H86.6375V121.206H90.5769V117.267Z" fill="white"/>
<path d="M61.1301 72.373H93.1816V71.5706H61.1301V72.373Z" fill="#F5F5F5"/>
<path d="M66.8719 64.8975H87.4399V64.0951H66.8719V64.8975Z" fill="#F5F5F5"/>
<path d="M40.2597 94.7434H20.7844V125.331H51.8642V94.7434V81.1752L40.2597 94.7434Z" fill="#F5F5F5"/>
<path d="M57.6665 81.1793H51.8643V125.331H57.6665V81.1793Z" fill="#E6E6E6"/>
<path d="M26.8568 100.941H22.2319V105.566H26.8568V100.941Z" fill="#E0E0E0"/>
<path opacity="0.3" d="M26.8608 100.941H22.748V105.566H26.8608V100.941Z" fill="white"/>
<path d="M26.8568 108.723H22.2319V113.348H26.8568V108.723Z" fill="#E0E0E0"/>
<path opacity="0.3" d="M26.8608 108.723H22.748V113.348H26.8608V108.723Z" fill="white"/>
<path d="M26.8568 116.505H22.2319V121.13H26.8568V116.505Z" fill="#E0E0E0"/>
<path opacity="0.3" d="M26.8608 116.505H22.748V121.13H26.8608V116.505Z" fill="white"/>
<path opacity="0.2" d="M27.3729 116.505H22.748V121.13H27.3729V116.505Z" fill="white"/>
<path d="M34.6549 100.941H30.03V105.566H34.6549V100.941Z" fill="#E0E0E0"/>
<path opacity="0.3" d="M34.6592 100.941H30.5464V105.566H34.6592V100.941Z" fill="white"/>
<path d="M34.6549 108.723H30.03V113.348H34.6549V108.723Z" fill="#E0E0E0"/>
<path opacity="0.3" d="M34.6592 108.723H30.5464V113.348H34.6592V108.723Z" fill="white"/>
<path d="M34.6549 116.505H30.03V121.13H34.6549V116.505Z" fill="#E0E0E0"/>
<path opacity="0.3" d="M34.6592 116.505H30.5464V121.13H34.6592V116.505Z" fill="white"/>
<path opacity="0.2" d="M35.1713 116.505H30.5464V121.13H35.1713V116.505Z" fill="white"/>
<path d="M42.4532 100.941H37.8284V105.566H42.4532V100.941Z" fill="#E0E0E0"/>
<path opacity="0.3" d="M42.4573 100.941H38.3445V105.566H42.4573V100.941Z" fill="white"/>
<path d="M42.4532 108.723H37.8284V113.348H42.4532V108.723Z" fill="#E0E0E0"/>
<path opacity="0.3" d="M42.4573 108.723H38.3445V113.348H42.4573V108.723Z" fill="white"/>
<path d="M42.4532 116.505H37.8284V121.13H42.4532V116.505Z" fill="#E0E0E0"/>
<path opacity="0.3" d="M42.4573 116.505H38.3445V121.13H42.4573V116.505Z" fill="white"/>
<path opacity="0.2" d="M42.9694 116.505H38.3445V121.13H42.9694V116.505Z" fill="white"/>
<path d="M50.2513 100.941H45.6265V105.566H50.2513V100.941Z" fill="#E0E0E0"/>
<path opacity="0.3" d="M50.2554 100.941H46.1426V105.566H50.2554V100.941Z" fill="white"/>
<path d="M50.2513 108.723H45.6265V113.348H50.2513V108.723Z" fill="#E0E0E0"/>
<path opacity="0.3" d="M50.2554 108.723H46.1426V113.348H50.2554V108.723Z" fill="white"/>
<path d="M50.2513 116.505H45.6265V121.13H50.2513V116.505Z" fill="#E0E0E0"/>
<path opacity="0.3" d="M50.2554 116.505H46.1426V121.13H50.2554V116.505Z" fill="white"/>
<path opacity="0.2" d="M50.7675 116.505H46.1426V121.13H50.7675V116.505Z" fill="white"/>
<path d="M101 150C144.177 150 179.179 147.956 179.179 145.436C179.179 142.915 144.177 140.871 101 140.871C57.8226 140.871 22.8206 142.915 22.8206 145.436C22.8206 147.956 57.8226 150 101 150Z" fill="#F5F5F5"/>
<path d="M185.708 125.666H16.2927V131.94H185.708V125.666Z" fill="#B90101"/>
<g opacity="0.7">
<path d="M185.708 125.666H16.2927V131.94H185.708V125.666Z" fill="white"/>
</g>
<path d="M25.4296 125.666H25.0264V132.242H25.4296V125.666Z" fill="white"/>
<path d="M63.3236 125.666H62.9204V132.242H63.3236V125.666Z" fill="white"/>
<path d="M101.218 125.666H100.814V132.242H101.218V125.666Z" fill="white"/>
<path d="M139.112 125.666H138.709V132.242H139.112V125.666Z" fill="white"/>
<path d="M177.006 125.666H176.603V132.242H177.006V125.666Z" fill="white"/>
<path d="M185.708 132.404H16.2927V134.379H185.708V132.404Z" fill="#B90101"/>
<path opacity="0.9" d="M185.708 132.404H16.2927V134.379H185.708V132.404Z" fill="white"/>
<path d="M155.942 112.497H155.136C154.922 112.497 154.717 112.412 154.566 112.261C154.414 112.11 154.329 111.904 154.329 111.691C154.329 111.477 154.414 111.272 154.566 111.12C154.717 110.969 154.922 110.884 155.136 110.884H155.942V112.497Z" fill="#B90101"/>
<path d="M167.615 110.884H168.422C168.636 110.884 168.841 110.969 168.992 111.12C169.143 111.272 169.228 111.477 169.228 111.691C169.228 111.904 169.143 112.11 168.992 112.261C168.841 112.412 168.636 112.497 168.422 112.497H167.615V110.884Z" fill="#B90101"/>
<path d="M167.615 109.142H155.942V114.239H167.615V109.142Z" fill="#B90101"/>
<path opacity="0.1" d="M167.615 109.142H155.942V114.239H167.615V109.142Z" fill="black"/>
<path d="M156.757 108.437H155.132V114.941H156.757V108.437Z" fill="#B90101"/>
<path d="M168.426 108.437H166.801V114.941H168.426V108.437Z" fill="#B90101"/>
<path opacity="0.2" d="M156.757 108.437H155.132V114.941H156.757V108.437Z" fill="white"/>
<path opacity="0.2" d="M168.426 108.437H166.801V114.941H168.426V108.437Z" fill="white"/>
<path d="M164.914 123.521H158.66V105.921C158.66 105.089 158.99 104.291 159.579 103.702C160.167 103.114 160.965 102.784 161.797 102.784C162.209 102.784 162.616 102.865 162.997 103.022C163.377 103.18 163.723 103.411 164.014 103.703C164.305 103.994 164.535 104.34 164.693 104.72C164.85 105.101 164.93 105.509 164.93 105.921L164.914 123.521Z" fill="#B90101"/>
<path d="M159.991 122.473H163.571C164.229 122.473 164.859 122.734 165.325 123.199C165.79 123.664 166.051 124.295 166.051 124.952V125.686H157.511V124.952C157.511 124.295 157.772 123.664 158.237 123.199C158.702 122.734 159.333 122.473 159.991 122.473Z" fill="#B90101"/>
<path opacity="0.2" d="M159.991 122.473H163.571C164.229 122.473 164.859 122.734 165.325 123.199C165.79 123.664 166.051 124.295 166.051 124.952V125.686H157.511V124.952C157.511 124.295 157.772 123.664 158.237 123.199C158.702 122.734 159.333 122.473 159.991 122.473Z" fill="white"/>
<path opacity="0.2" d="M161.781 114.364C163.264 114.364 164.466 113.162 164.466 111.678C164.466 110.195 163.264 108.993 161.781 108.993C160.298 108.993 159.095 110.195 159.095 111.678C159.095 113.162 160.298 114.364 161.781 114.364Z" fill="white"/>
<path d="M162.418 111.691C162.419 111.818 162.381 111.942 162.311 112.048C162.241 112.154 162.141 112.237 162.024 112.286C161.907 112.335 161.777 112.348 161.653 112.324C161.528 112.299 161.413 112.238 161.323 112.148C161.233 112.058 161.172 111.943 161.148 111.819C161.123 111.694 161.136 111.565 161.185 111.447C161.234 111.33 161.317 111.23 161.423 111.16C161.529 111.09 161.653 111.053 161.781 111.053C161.949 111.055 162.111 111.122 162.23 111.241C162.349 111.36 162.417 111.522 162.418 111.691Z" fill="#EBEBEB"/>
<path d="M157.511 106.812C157.511 106.598 157.596 106.393 157.747 106.241C157.898 106.09 158.103 106.005 158.317 106.005H165.228C165.442 106.005 165.647 106.09 165.799 106.241C165.95 106.393 166.035 106.598 166.035 106.812C166.035 107.025 165.95 107.231 165.799 107.382C165.647 107.533 165.442 107.618 165.228 107.618H158.325C158.219 107.619 158.113 107.599 158.014 107.559C157.915 107.519 157.826 107.46 157.75 107.385C157.674 107.31 157.614 107.22 157.573 107.122C157.532 107.024 157.511 106.918 157.511 106.812Z" fill="#B90101"/>
<path opacity="0.2" d="M157.511 106.812C157.511 106.598 157.596 106.393 157.747 106.241C157.898 106.09 158.103 106.005 158.317 106.005H165.228C165.442 106.005 165.647 106.09 165.799 106.241C165.95 106.393 166.035 106.598 166.035 106.812C166.035 107.025 165.95 107.231 165.799 107.382C165.647 107.533 165.442 107.618 165.228 107.618H158.325C158.219 107.619 158.113 107.599 158.014 107.559C157.915 107.519 157.826 107.46 157.75 107.385C157.674 107.31 157.614 107.22 157.573 107.122C157.532 107.024 157.511 106.918 157.511 106.812Z" fill="white"/>
<path d="M54.582 13.8624C48.9128 14.5962 40.2719 16.4873 33.51 20.0356V21.3702C33.51 21.3702 42.8525 15.9551 54.6304 14.9793L54.582 13.8624Z" fill="#B90101"/>
<path d="M64.4727 15.8664C64.1099 15.551 63.7023 15.2914 63.263 15.0962C62.2872 14.693 56.3801 15.5599 54.36 15.8785V15.0196L54.3076 13.8987C55.6826 13.7575 56.9164 13.6567 57.9366 13.5922C59.6381 13.4995 60.8962 13.443 61.8316 13.4148C62.1669 13.3986 62.502 13.4495 62.8174 13.5646C63.1327 13.6797 63.4219 13.8566 63.6679 14.0849C63.9139 14.3133 64.1118 14.5885 64.25 14.8944C64.3882 15.2004 64.4639 15.5308 64.4727 15.8664Z" fill="#B90101"/>
<path d="M48.3644 15.5357H47.4451V19.5558H48.3644V15.5357Z" fill="#263238"/>
<path d="M33.51 29.5071C33.3178 29.4998 33.1361 29.4177 33.0036 29.2783C32.871 29.139 32.7981 28.9534 32.8003 28.7612C32.8003 28.3983 32.8003 27.6442 36.5906 24.2209C37.1225 23.7264 37.6884 23.2696 38.2841 22.8541C43.3162 19.4187 49.5015 18.5598 49.7596 18.5276C49.8555 18.5078 49.9544 18.508 50.0502 18.5281C50.146 18.5482 50.2367 18.5879 50.3165 18.6445C50.3964 18.7012 50.4637 18.7736 50.5144 18.8574C50.565 18.9412 50.5979 19.0345 50.6109 19.1316C50.6239 19.2286 50.6168 19.3273 50.5901 19.4215C50.5634 19.5157 50.5175 19.6033 50.4555 19.6791C50.3934 19.7548 50.3164 19.8169 50.2293 19.8616C50.1422 19.9063 50.0468 19.9326 49.9491 19.9388C49.8886 19.9388 43.8323 20.7896 39.0865 24.0314C38.5448 24.4105 38.0301 24.8268 37.5462 25.2774C35.0785 27.5031 34.2922 28.5555 34.2156 28.8257C34.2157 28.9172 34.1973 29.0079 34.1615 29.0921C34.1258 29.1764 34.0734 29.2527 34.0076 29.3163C33.9417 29.3799 33.8637 29.4296 33.7782 29.4623C33.6927 29.4951 33.6015 29.5103 33.51 29.5071Z" fill="#263238"/>
<path d="M32.4897 19.83H34.0663C34.092 19.83 34.1166 19.8402 34.1347 19.8583C34.1529 19.8765 34.1631 19.9011 34.1631 19.9267V125.589H32.3889V19.9267C32.3889 19.9137 32.3915 19.9008 32.3966 19.8888C32.4018 19.8767 32.4093 19.8659 32.4187 19.8569C32.4281 19.8478 32.4392 19.8408 32.4514 19.8362C32.4637 19.8315 32.4767 19.8294 32.4897 19.83Z" fill="#263238"/>
<path d="M65.1945 15.943V15.9994L56.9246 16.7776L55.0859 15.9994V15.8785C57.102 15.5599 63.0131 14.6688 63.9889 15.0962C64.4278 15.292 64.8355 15.5515 65.1986 15.8664C65.2017 15.892 65.2003 15.9179 65.1945 15.943Z" fill="#B90101"/>
<path opacity="0.6" d="M65.1945 15.943V15.9994L56.9246 16.7776L55.0859 15.9994V15.8785C57.102 15.5599 63.0131 14.6688 63.9889 15.0962C64.4278 15.292 64.8355 15.5515 65.1986 15.8664C65.2017 15.892 65.2003 15.9179 65.1945 15.943Z" fill="white"/>
<path d="M130.874 56.3131C130.909 56.3483 130.937 56.3901 130.956 56.4362C130.975 56.4822 130.985 56.5315 130.985 56.5813C130.985 56.6311 130.975 56.6804 130.956 56.7264C130.937 56.7724 130.909 56.8142 130.874 56.8494C130.827 56.8964 130.766 56.9286 130.701 56.9422L130.794 60.1276H130.564L130.475 56.922C130.424 56.9011 130.379 56.8694 130.342 56.8293C130.307 56.7929 130.28 56.7498 130.263 56.7026C130.246 56.6555 130.238 56.6052 130.241 56.5551L128.673 55.8494V55.6277L130.338 56.3011C130.374 56.2666 130.416 56.2396 130.463 56.2215C130.509 56.2035 130.559 56.1948 130.609 56.1959C130.658 56.197 130.707 56.208 130.753 56.2281C130.799 56.2482 130.84 56.2771 130.874 56.3131Z" fill="#263238"/>
<path d="M130.584 52.0148C129.665 52.0148 128.767 52.2872 128.003 52.7976C127.239 53.308 126.644 54.0335 126.293 54.8822C125.941 55.731 125.849 56.665 126.028 57.566C126.207 58.4671 126.65 59.2947 127.299 59.9443C127.949 60.594 128.777 61.0364 129.678 61.2156C130.579 61.3948 131.513 61.3028 132.362 60.9513C133.21 60.5997 133.936 60.0043 134.446 59.2405C134.957 58.4766 135.229 57.5785 135.229 56.6598C135.23 56.0497 135.11 55.4454 134.877 54.8816C134.643 54.3178 134.301 53.8055 133.87 53.3741C133.438 52.9427 132.926 52.6005 132.362 52.3673C131.798 52.134 131.194 52.0142 130.584 52.0148ZM130.584 60.3331C129.847 60.3331 129.127 60.1146 128.514 59.7052C127.901 59.2958 127.424 58.7139 127.142 58.0332C126.86 57.3524 126.786 56.6033 126.93 55.8805C127.074 55.1578 127.428 54.494 127.95 53.9729C128.471 53.4519 129.134 53.097 129.857 52.9533C130.58 52.8095 131.329 52.8833 132.01 53.1653C132.691 53.4473 133.272 53.9248 133.682 54.5375C134.091 55.1502 134.31 55.8705 134.31 56.6074C134.31 57.097 134.214 57.5819 134.027 58.0344C133.84 58.4869 133.566 58.8981 133.22 59.2445C132.874 59.5909 132.463 59.8657 132.011 60.0531C131.558 60.2406 131.074 60.3371 130.584 60.3371V60.3331Z" fill="#263238"/>
<path opacity="0.8" d="M130.838 56.8535C130.79 56.9004 130.73 56.9327 130.665 56.9462L130.757 60.1316H130.528L130.439 56.926C130.388 56.9051 130.343 56.8734 130.306 56.8333C130.271 56.7969 130.244 56.7538 130.227 56.7067C130.21 56.6595 130.202 56.6093 130.205 56.5591L128.636 55.8535V55.6317L130.302 56.3051C130.338 56.2699 130.38 56.2421 130.427 56.2233C130.474 56.2046 130.524 56.1952 130.574 56.1958C130.625 56.1963 130.674 56.2068 130.721 56.2266C130.767 56.2464 130.809 56.2751 130.844 56.3111C130.879 56.3471 130.907 56.3897 130.926 56.4365C130.945 56.4832 130.954 56.5332 130.953 56.5835C130.953 56.6339 130.942 56.6837 130.923 56.73C130.903 56.7763 130.874 56.8182 130.838 56.8535Z" fill="#263238"/>
<path d="M130.838 56.8535C130.79 56.9005 130.73 56.9327 130.665 56.9462C130.591 56.966 130.513 56.966 130.439 56.9462C130.388 56.9252 130.343 56.8936 130.306 56.8535C130.271 56.8171 130.244 56.774 130.227 56.7268C130.21 56.6797 130.202 56.6294 130.205 56.5793C130.206 56.5316 130.216 56.4845 130.236 56.4409C130.255 56.3973 130.283 56.358 130.318 56.3252C130.35 56.2819 130.391 56.2461 130.439 56.2202C130.486 56.1944 130.539 56.1791 130.593 56.1754C130.647 56.1717 130.701 56.1797 130.751 56.1989C130.802 56.218 130.848 56.2479 130.886 56.2864C130.924 56.3249 130.953 56.3711 130.971 56.422C130.989 56.4728 130.997 56.527 130.992 56.5809C130.988 56.6347 130.971 56.687 130.945 56.734C130.918 56.7811 130.882 56.8218 130.838 56.8535Z" fill="#263238"/>
<path d="M130.774 60.1276L130.544 60.1316L130.459 56.926L130.451 56.6599L130.221 56.5591L128.653 55.8575L128.669 55.6317L130.334 56.3051L130.669 56.4462L130.681 56.9422L130.774 60.1276Z" fill="#263238"/>
<path d="M90.4922 119.351L82.7222 122.23C82.5287 122.033 81.6335 119.323 81.6335 119.323L88.4358 116.416L90.4922 119.351Z" fill="#F7978D"/>
<path d="M82.7101 122.98C82.7081 122.963 82.7108 122.945 82.7178 122.929C82.7249 122.912 82.7362 122.898 82.7505 122.888C82.7647 122.878 82.7815 122.872 82.7988 122.872C82.8162 122.872 82.833 122.878 82.8472 122.888C82.8916 122.928 84.0125 123.815 84.0972 124.448C84.1185 124.566 84.0925 124.688 84.0246 124.787C83.995 124.845 83.947 124.892 83.8879 124.921C83.8289 124.949 83.7622 124.957 83.698 124.944C83.4601 124.9 83.2343 124.509 83.0569 124.069C82.9108 123.717 82.7948 123.352 82.7101 122.98ZM83.8956 124.323C83.6542 123.89 83.331 123.508 82.944 123.198C83.1174 123.863 83.4722 124.722 83.7504 124.787C83.7908 124.787 83.8432 124.787 83.9117 124.686C83.9526 124.627 83.9686 124.555 83.9561 124.484C83.9442 124.428 83.9281 124.373 83.9077 124.319L83.8956 124.323Z" fill="#B90101"/>
<path d="M82.7305 122.916C82.7352 122.902 82.7437 122.889 82.7551 122.879C82.7664 122.869 82.7802 122.862 82.795 122.859C82.8353 122.859 83.7264 122.545 84.2425 122.823C84.3158 122.867 84.3793 122.926 84.4292 122.995C84.4791 123.064 84.5144 123.143 84.5328 123.226C84.5648 123.294 84.5731 123.371 84.5563 123.444C84.5394 123.517 84.4985 123.582 84.4401 123.63C84.1095 123.859 83.0853 123.367 82.7466 123.037L82.7224 123.005L82.7305 122.916ZM84.1538 122.984C83.7761 122.855 83.3663 122.855 82.9885 122.984C83.3918 123.295 84.1982 123.613 84.3675 123.46C84.3675 123.46 84.432 123.412 84.3917 123.267L84.3595 123.222C84.3238 123.119 84.2504 123.032 84.1538 122.98V122.984Z" fill="#B90101"/>
<path d="M83.0892 122.174L81.9118 118.819C81.889 118.752 81.8434 118.695 81.783 118.659C81.7226 118.622 81.6512 118.607 81.5812 118.618L78.7345 119.001C78.4523 119.057 78.3313 119.714 78.3313 119.747C78.8676 121.872 80.3474 126.315 80.8675 127.759C81.3877 129.202 82.8231 128.827 82.7263 128.182C82.2828 125.303 82.6659 123.984 83.065 122.839C83.1537 122.628 83.1623 122.391 83.0892 122.174Z" fill="#263238"/>
<g opacity="0.2">
<path d="M85.7183 117.565L88.4359 116.404L90.4923 119.343L86.6094 120.779L85.7183 117.565Z" fill="black"/>
</g>
<path d="M103.072 84.3363C102.763 85.0035 102.528 85.7025 102.371 86.4209C101.484 90.2112 99.9234 109.731 99.0565 110.11C96.4598 111.243 92.972 111.602 87.0205 116.279C87.6334 117.872 88.2302 119.001 88.7785 120.86C88.7785 120.86 100.948 118.089 104.451 114.811C108.08 111.44 111.822 95.0255 113.346 90.695C114.213 88.2354 115.213 85.296 113.943 83.0702C113.229 81.8525 105.875 77.7518 103.072 84.3363Z" fill="#263238"/>
<path d="M114.395 78.4978L115.629 78.9252C114.851 85.675 114.27 88.1991 114.27 88.1991L112.959 91.9934C112.959 91.9934 103.98 95.6626 100.843 91.3684C96.6212 85.5984 102.145 74.4333 102.145 74.4333C102.145 74.4333 109.911 76.7881 114.395 78.4978Z" fill="#263238"/>
<path opacity="0.4" d="M101.964 88.1588C102.895 88.5136 111.262 97.473 111.262 97.473L109.085 105.005L101.238 94.8118L101.964 88.1588Z" fill="black"/>
<path d="M126.237 128.758L126.487 138.77C126.193 138.944 123.379 139.778 123.379 139.778L122.169 130.299L126.237 128.758Z" fill="#F7978D"/>
<path d="M127.491 138.359C127.472 138.363 127.452 138.361 127.434 138.353C127.416 138.346 127.4 138.332 127.391 138.315C127.38 138.297 127.374 138.277 127.374 138.256C127.374 138.236 127.38 138.215 127.391 138.198C127.431 138.141 128.366 136.774 129.044 136.662C129.107 136.648 129.171 136.649 129.234 136.663C129.296 136.677 129.355 136.704 129.407 136.742C129.471 136.785 129.522 136.847 129.553 136.918C129.584 136.99 129.593 137.069 129.58 137.145C129.536 137.432 129.116 137.714 128.649 137.932C128.279 138.113 127.891 138.257 127.491 138.359ZM128.911 136.908C128.434 137.213 128.023 137.611 127.701 138.077C128.407 137.855 129.314 137.412 129.386 137.085C129.386 137.041 129.386 136.976 129.282 136.891C129.251 136.868 129.216 136.852 129.178 136.844C129.14 136.835 129.102 136.835 129.064 136.843C129.002 136.855 128.943 136.876 128.887 136.903L128.911 136.908Z" fill="#B90101"/>
<path d="M127.431 138.339C127.414 138.332 127.4 138.321 127.389 138.307C127.379 138.293 127.372 138.276 127.37 138.258C127.37 138.214 127.016 137.137 127.306 136.512C127.349 136.427 127.409 136.352 127.481 136.29C127.554 136.229 127.638 136.182 127.729 136.154C127.802 136.116 127.885 136.106 127.965 136.125C128.044 136.145 128.113 136.192 128.161 136.258C128.411 136.662 127.899 137.899 127.552 138.319L127.516 138.343L127.431 138.339ZM127.483 136.613C127.35 137.075 127.357 137.566 127.503 138.024C127.83 137.524 128.161 136.577 127.991 136.351C127.991 136.331 127.943 136.274 127.782 136.327L127.737 136.367C127.624 136.413 127.533 136.501 127.483 136.613Z" fill="#B90101"/>
<path d="M126.632 137.899L123.056 139.375C122.981 139.408 122.919 139.467 122.881 139.54C122.844 139.614 122.833 139.698 122.85 139.778L123.298 143.214C123.366 143.552 124.072 143.681 124.104 143.669C126.37 142.992 131.108 141.153 132.648 140.48C134.189 139.807 133.761 138.101 133.072 138.23C129.995 138.811 128.58 138.371 127.346 137.903C127.233 137.855 127.112 137.83 126.99 137.829C126.867 137.828 126.746 137.852 126.632 137.899Z" fill="#263238"/>
<g opacity="0.2">
<path d="M122.572 133.404L122.177 130.299L126.237 128.758L126.366 133.101L122.572 133.404Z" fill="black"/>
</g>
<path d="M100 90.0418C102.956 97.4085 113.774 105.364 117.992 111.485C117.992 111.485 119.979 125.662 121.818 131.351C123.883 131.025 125.701 131.198 126.919 130.807C126.919 130.807 127.177 114.936 126.919 110.537C126.318 100.771 118.681 92.6022 109.847 83.0823C108.367 81.4896 103.657 80.1469 101.258 81.4977C100.807 81.7396 98.4558 86.1911 100 90.0418Z" fill="#263238"/>
<path d="M127.806 128.754C127.842 128.754 127.709 131.577 127.709 131.577L120.798 132.166L120.576 129.589L127.806 128.754Z" fill="#263238"/>
<path opacity="0.6" d="M127.806 128.754C127.842 128.754 127.709 131.577 127.709 131.577L120.798 132.166L120.576 129.589L127.806 128.754Z" fill="white"/>
<path d="M90.8954 121.162C90.8954 121.194 88.4761 122.017 88.4761 122.017L85.9641 115.162L88.0971 114.11L90.8954 121.162Z" fill="#263238"/>
<path opacity="0.6" d="M90.8954 121.162C90.8954 121.194 88.4761 122.017 88.4761 122.017L85.9641 115.162L88.0971 114.11L90.8954 121.162Z" fill="white"/>
<path d="M115.516 79.5259L101.238 75.1631C101.549 73.7519 102.065 71.7721 103.581 66.0021C104.559 62.0207 105.278 57.9801 105.734 53.9057C105.734 53.9057 105.734 53.8815 105.734 53.8694C105.811 53.3665 106.085 52.9147 106.494 52.6126C106.904 52.3104 107.416 52.1824 107.919 52.2565H107.952C108.923 52.4057 110.133 52.6234 111.294 52.9137C113.513 53.4626 115.699 54.1357 117.842 54.9298C118.545 55.2279 119.228 55.5713 119.887 55.958C120.351 56.2083 120.739 56.5796 121.01 57.0325C121.28 57.4854 121.423 58.003 121.423 58.5305C121.415 61.9498 120.758 65.9013 115.516 79.5259Z" fill="#B90101"/>
<path opacity="0.6" d="M115.516 79.526L101.738 75.3124C102.053 73.9052 102.319 73.8487 105.734 53.8896C105.732 53.8776 105.732 53.8653 105.734 53.8533C105.801 53.3543 106.062 52.9019 106.461 52.594C106.859 52.2861 107.363 52.1475 107.863 52.2082H107.895C108.835 52.3453 110 52.5469 111.121 52.8291C113.263 53.3498 115.372 53.9947 117.439 54.7605C118.115 55.0515 118.771 55.3869 119.403 55.7646C119.855 56.0179 120.229 56.3892 120.486 56.8387C120.743 57.2882 120.873 57.7992 120.863 58.3169C120.818 61.7684 120.705 65.8893 115.516 79.526Z" fill="white"/>
<path d="M115.721 56.9822L115.193 57.841C115.161 57.91 115.109 57.9676 115.043 58.0064C114.978 58.0453 114.902 58.0635 114.826 58.0588L114.052 57.9257C113.992 57.91 113.938 57.8758 113.899 57.8281C113.859 57.7804 113.835 57.7215 113.83 57.6596L113.609 56.5548L114.838 55.9338L115.721 56.9822Z" fill="#263238"/>
<path d="M111.169 52.5992C109.959 52.2888 108.673 52.0589 107.645 51.9057H107.613H107.552C107.288 51.8725 107.02 51.8919 106.763 51.9629C106.507 52.0338 106.267 52.1549 106.057 52.3191C105.848 52.4833 105.673 52.6873 105.542 52.9195C105.412 53.1517 105.329 53.4074 105.298 53.6718C104.813 57.9665 104.051 62.2253 103.016 66.4214C100.456 72.5503 92.8147 73.4656 92.8147 73.4656C93.5404 75.9428 95.0413 78.1219 97.0968 79.6832L98.3065 80.6025C112.117 76.2881 111.524 58.0225 111.814 52.7484L111.169 52.5992Z" fill="#B90101"/>
<path opacity="0.2" d="M103.419 64.9175C104.226 61.4337 104.782 57.8088 105.125 55.1597C105.162 55.1279 105.201 55.0983 105.242 55.071C106.19 54.4017 108.218 56.3895 107.327 59.6878C106.464 62.8409 104.746 64.6232 103.419 64.9175Z" fill="black"/>
<path d="M114.939 55.9621C111.641 55.1556 111.052 52.8452 111.052 52.8452C112.911 51.8573 113.54 47.8453 113.697 45.5873L115.008 47.5752L116.786 50.2848C116.62 50.5824 116.472 50.8893 116.342 51.2041C115.818 52.4581 115.79 53.7403 117.552 54.7726C117.556 54.7726 117.754 56.6475 114.939 55.9621Z" fill="#F7978D"/>
<path d="M110.464 52.4178L111.576 52.3533C112.334 53.7691 113.411 54.9894 114.722 55.9177C113.965 56.1478 113.294 56.5984 112.794 57.212C109.697 54.9621 110.464 52.4178 110.464 52.4178Z" fill="#B90101"/>
<path opacity="0.7" d="M110.464 52.4178L111.576 52.3533C112.334 53.7691 113.411 54.9894 114.722 55.9177C113.965 56.1478 113.294 56.5984 112.794 57.212C109.697 54.9621 110.464 52.4178 110.464 52.4178Z" fill="white"/>
<path d="M117.601 54.5871L116.726 54.1073C116.726 54.1073 115.754 55.9298 114.709 55.9097C116.185 57.0709 116.209 57.9822 116.209 57.9822C118.863 57.9419 117.601 54.5871 117.601 54.5871Z" fill="#B90101"/>
<path d="M127.016 70.9939C127.568 70.2278 125.629 67.9819 123.552 65.865C122.274 64.5586 120.943 63.2965 120.121 62.4578L120.568 60.0184L121.238 56.329C121.564 56.8209 131.06 67.3367 131.241 69.4899L127.016 70.9939Z" fill="#B90101"/>
<path opacity="0.2" d="M123.552 65.865C122.274 64.5586 120.943 63.2966 120.121 62.4579L120.568 60.0184C121.293 60.5143 121.883 61.1821 122.286 61.9619C122.912 63.1877 123.339 64.5051 123.552 65.865Z" fill="black"/>
<path d="M116.463 84.6468L114.306 84.0138C117.129 67.611 117.689 59.8773 117.552 54.6113C118.575 54.9806 119.577 55.4032 120.556 55.8774C121.062 56.181 121.48 56.6099 121.771 57.1228C122.062 57.6357 122.216 58.2151 122.217 58.8048C122.314 61.7523 119.447 69.0101 116.463 84.6468Z" fill="#B90101"/>
<path opacity="0.7" d="M117.601 54.5871L116.726 54.1073C116.726 54.1073 115.754 55.9298 114.709 55.9097C116.185 57.0709 116.209 57.9822 116.209 57.9822C118.863 57.9419 117.601 54.5871 117.601 54.5871Z" fill="white"/>
<path opacity="0.2" d="M116.475 50.9138L114.766 48.3292C114.653 48.6264 114.572 48.9345 114.524 49.2486C114.379 50.1961 115.266 51.4945 116.096 51.9541L116.475 50.9138Z" fill="black"/>
<path d="M118.971 46.6921C118.971 46.6921 118.939 48.2002 120.552 47.7647C120.762 46.176 121.274 46.3454 121.895 45.4583C122.292 44.9727 122.55 44.3886 122.641 43.7681C122.733 43.1475 122.655 42.5138 122.415 41.9342L121.467 41.3455C117.697 39.8012 118.971 46.6921 118.971 46.6921Z" fill="#263238"/>
<path d="M115.451 40.281C115.829 39.926 116.272 39.6489 116.757 39.4655C117.242 39.2821 117.758 39.196 118.276 39.2121C118.793 39.2282 119.303 39.3462 119.775 39.5594C120.248 39.7725 120.673 40.0767 121.028 40.4544C123.266 42.7164 122.032 47.0107 120.463 49.2525C120.067 49.8414 119.517 50.3108 118.873 50.6099C118.23 50.909 117.516 51.0265 116.811 50.9497C116.105 50.8729 115.434 50.6048 114.869 50.1742C114.305 49.7436 113.869 49.1669 113.609 48.5066C112.778 46.4905 113.459 44.8777 114.383 42.0108C114.583 41.3513 114.951 40.7551 115.451 40.281Z" fill="#F7978D"/>
<path d="M113.403 47.9018C113.403 47.9018 113.302 45.4341 114.778 44.8656C114.653 43.4463 115.83 44.0592 116.258 43.1882C116.846 42.2205 117.363 41.277 116.661 40.2891L115.028 39.6077C109.976 38.6722 113.403 47.9018 113.403 47.9018Z" fill="#263238"/>
<path d="M122.108 39.9182C121.683 39.2694 121.123 38.7195 120.467 38.3053C119.455 37.5916 118.306 36.9626 117.068 36.9666C115.592 36.9666 114.286 37.8497 113 38.5795C111.713 39.3093 110.145 39.8859 108.794 39.2892C108.979 39.5634 109.217 39.7979 109.494 39.9786C109.771 40.1594 110.082 40.2828 110.407 40.3415C109.967 40.3781 109.524 40.3413 109.097 40.2327C109.511 40.9727 110.175 41.5413 110.969 41.8368C111.764 42.1323 112.638 42.1354 113.435 41.8455L112.544 42.3375C114.879 42.7407 117.209 41.781 119.399 40.8496C118.974 41.5583 118.344 42.1209 117.592 42.4625C118.047 42.6078 118.527 42.6584 119.002 42.6112C119.477 42.5641 119.937 42.4201 120.354 42.1883C120.647 41.9778 120.975 41.8209 121.322 41.7246C121.485 41.7062 121.649 41.7344 121.796 41.8057C121.943 41.8771 122.067 41.9888 122.153 42.1278C122.774 41.7044 122.411 40.4303 122.108 39.9182Z" fill="#263238"/>
<path d="M119.697 47.8333C119.873 47.9292 120.068 47.9854 120.268 47.9979C120.468 48.0104 120.668 47.979 120.854 47.9058C120.524 47.1673 120.294 46.3874 120.173 45.5873L119.697 47.8333Z" fill="#FF5652"/>
<path d="M114.016 42.6197C114.919 42.7447 115.226 43.5713 115.113 44.3132C115.113 45.422 113.818 46.1639 113.5 45.5793C113.067 45.0948 112.816 44.4746 112.79 43.8253C112.766 43.0108 113.274 42.5149 114.016 42.6197Z" fill="#F7978D"/>
<path d="M118.822 44.6035C118.967 44.668 119.008 44.926 118.923 45.1317C118.838 45.3373 118.653 45.4664 118.52 45.4059C118.387 45.3454 118.346 45.1156 118.419 44.8817C118.492 44.6478 118.677 44.539 118.822 44.6035Z" fill="#263238"/>
<path d="M121.161 45.2164C121.306 45.2809 121.35 45.5148 121.262 45.7406C121.173 45.9664 120.983 46.1034 120.858 46.0389C120.733 45.9744 120.665 45.7365 120.758 45.5107C120.85 45.2849 121.024 45.1599 121.161 45.2164Z" fill="#263238"/>
<path d="M119.35 48.422C119.467 48.4744 119.508 48.6639 119.435 48.8252C119.362 48.9865 119.205 49.1195 119.088 49.0671C118.971 49.0147 118.935 48.8252 119.008 48.6397C119.08 48.4542 119.233 48.3857 119.35 48.422Z" fill="#263238"/>
<path d="M121.326 44.0672C121.349 44.0725 121.37 44.0833 121.388 44.0988C121.405 44.1143 121.419 44.1339 121.427 44.1559C121.479 44.3312 121.571 44.4922 121.694 44.627C121.818 44.7618 121.97 44.8668 122.141 44.9341C122.158 44.9388 122.174 44.9469 122.189 44.958C122.203 44.969 122.215 44.9828 122.224 44.9986C122.233 45.0144 122.239 45.0317 122.241 45.0497C122.244 45.0677 122.242 45.086 122.237 45.1035C122.225 45.1389 122.2 45.1686 122.167 45.1865C122.135 45.2044 122.096 45.2093 122.06 45.2003C121.845 45.1212 121.652 44.9934 121.495 44.8268C121.338 44.6603 121.223 44.4596 121.157 44.2406C121.146 44.2042 121.15 44.1653 121.167 44.1316C121.184 44.0979 121.214 44.072 121.249 44.0592C121.275 44.0537 121.302 44.0565 121.326 44.0672Z" fill="#263238"/>
<path d="M118.29 43.7527C118.308 43.7368 118.329 43.7256 118.352 43.7199C118.376 43.7143 118.4 43.7145 118.423 43.7205C118.597 43.7755 118.782 43.7903 118.963 43.7638C119.144 43.7373 119.316 43.6701 119.467 43.5673C119.493 43.5417 119.528 43.5273 119.564 43.5273C119.6 43.5273 119.635 43.5417 119.661 43.5673C119.684 43.5969 119.696 43.6345 119.692 43.6722C119.688 43.7098 119.67 43.7445 119.641 43.7689C119.455 43.9003 119.241 43.9872 119.015 44.0229C118.79 44.0585 118.56 44.042 118.342 43.9745C118.306 43.9642 118.274 43.9397 118.256 43.9065C118.237 43.8733 118.232 43.834 118.242 43.7971C118.256 43.7809 118.273 43.7661 118.29 43.7527Z" fill="#263238"/>
<path d="M118.29 68.0948L116.411 68.0626C115.83 68.0494 115.266 68.2652 114.843 68.6634L113.205 70.1795C113.111 70.2689 113.052 70.389 113.038 70.5182C113.024 70.6474 113.056 70.7775 113.129 70.8851L113.976 72.1189C114.051 72.2276 114.163 72.3052 114.292 72.3371C114.42 72.369 114.556 72.3531 114.673 72.2923L116.734 71.2157L118.931 69.8891C118.931 69.8891 119.012 68.111 118.29 68.0948Z" fill="#F7978D"/>
<path d="M130.604 68.0585L118.29 68.0948L118.528 70.1351C118.528 70.1351 128.459 73.3608 130.411 72.3649C130.87 71.9329 131.179 71.3645 131.291 70.7437C131.403 70.1229 131.312 69.4826 131.032 68.9174L130.604 68.0585Z" fill="#B90101"/>
<path d="M119.121 70.8367L118.189 70.5746L118.302 67.7803L119.242 67.8207L119.121 70.8367Z" fill="#263238"/>
<path d="M118.091 67.4787L119.405 67.532C119.511 67.5363 119.612 67.5829 119.685 67.6615C119.757 67.7401 119.795 67.8443 119.791 67.9512L119.782 68.1647L117.679 68.0795L117.688 67.866C117.692 67.7618 117.736 67.6634 117.812 67.5912C117.887 67.519 117.987 67.4787 118.091 67.4787Z" fill="#263238"/>
<path d="M81.8232 74.1915C82.6539 73.6431 82.9039 72.9093 83.4926 72.1996C83.8958 71.7117 83.178 71.7964 83.8353 71.998C84.0745 72.1037 84.2994 72.2392 84.5046 72.4012C85.0409 72.7399 85.5449 73.1351 86.0893 73.4617C86.561 73.7439 87.4803 73.8649 87.8594 74.1794C88.4723 74.7278 87.4562 76.3971 87.1739 76.9495C86.8594 77.6188 87.8594 78.2035 88.1779 77.5261C88.6335 76.5624 89.6496 74.885 89.061 73.7721C88.694 73.0826 87.9199 73.0504 87.2747 72.7843C86.0651 72.2762 84.9885 70.8529 83.6256 70.7238C83.4256 70.6911 83.2204 70.7185 83.0359 70.8024C82.8514 70.8864 82.696 71.0232 82.5893 71.1956C82.2829 71.5988 82.3031 72.1633 81.924 72.5988C81.7276 72.8276 81.4995 73.0272 81.2466 73.1915C80.6297 73.5947 81.1983 74.6108 81.8232 74.1995V74.1915Z" fill="#B90101"/>
<g opacity="0.3">
<path d="M81.8232 74.1915C82.6539 73.6431 82.9039 72.9093 83.4926 72.1996C83.8958 71.7117 83.178 71.7964 83.8353 71.998C84.0745 72.1037 84.2994 72.2392 84.5046 72.4012C85.0409 72.7399 85.5449 73.1351 86.0893 73.4617C86.561 73.7439 87.4803 73.8649 87.8594 74.1794C88.4723 74.7278 87.4562 76.3971 87.1739 76.9495C86.8594 77.6188 87.8594 78.2035 88.1779 77.5261C88.6335 76.5624 89.6496 74.885 89.061 73.7721C88.694 73.0826 87.9199 73.0504 87.2747 72.7843C86.0651 72.2762 84.9885 70.8529 83.6256 70.7238C83.4256 70.6911 83.2204 70.7185 83.0359 70.8024C82.8514 70.8864 82.696 71.0232 82.5893 71.1956C82.2829 71.5988 82.3031 72.1633 81.924 72.5988C81.7276 72.8276 81.4995 73.0272 81.2466 73.1915C80.6297 73.5947 81.1983 74.6108 81.8232 74.1995V74.1915Z" fill="black"/>
</g>
<path d="M74.638 69.7057L93.7812 80.7491C94.0814 80.9222 94.3004 81.2075 94.3902 81.5422C94.48 81.8768 94.4332 82.2334 94.26 82.5335L88.3102 92.8473C88.0115 93.3651 87.5193 93.7431 86.9419 93.898C86.3646 94.0529 85.7493 93.9721 85.2315 93.6734L67.7263 83.5749C67.2085 83.2762 66.8306 82.7841 66.6757 82.2067C66.5207 81.6293 66.6015 81.0141 66.9002 80.4963L72.8521 70.179C72.9383 70.0306 73.0529 69.9007 73.1893 69.7966C73.3257 69.6926 73.4812 69.6164 73.6471 69.5724C73.8129 69.5285 73.9858 69.5176 74.1558 69.5405C74.3258 69.5634 74.4897 69.6195 74.638 69.7057Z" fill="#B90101"/>
<path opacity="0.3" d="M74.638 69.7057L93.7812 80.7491C94.0814 80.9222 94.3004 81.2075 94.3902 81.5422C94.48 81.8768 94.4332 82.2334 94.26 82.5335L88.3102 92.8473C88.0115 93.3651 87.5193 93.7431 86.9419 93.898C86.3646 94.0529 85.7493 93.9721 85.2315 93.6734L67.7263 83.5749C67.2085 83.2762 66.8306 82.7841 66.6757 82.2067C66.5207 81.6293 66.6015 81.0141 66.9002 80.4963L72.8521 70.179C72.9383 70.0306 73.0529 69.9007 73.1893 69.7966C73.3257 69.6926 73.4812 69.6164 73.6471 69.5724C73.8129 69.5285 73.9858 69.5176 74.1558 69.5405C74.3258 69.5634 74.4897 69.6195 74.638 69.7057Z" fill="white"/>
<path d="M82.0331 80.0098L76.9507 88.556L77.3076 88.7683L82.3901 80.2221L82.0331 80.0098Z" fill="#B90101"/>
<g opacity="0.3">
<path d="M82.0331 80.0099L76.9507 88.5562L77.3076 88.7684L82.3901 80.2222L82.0331 80.0099Z" fill="black"/>
</g>
<path opacity="0.2" d="M93.1173 81.9816L73.8759 70.8811C73.5887 70.7161 73.2478 70.6718 72.928 70.758C72.6082 70.8442 72.3357 71.0538 72.1703 71.3407L71.9405 71.744C71.7086 72.1443 71.558 72.5866 71.4974 73.0452C71.4367 73.5039 71.4672 73.9701 71.5871 74.417C71.707 74.8639 71.9138 75.2827 72.1959 75.6495C72.478 76.0162 72.8296 76.3237 73.2308 76.5543L88.5529 85.3847C89.3608 85.8426 90.3168 85.963 91.213 85.7199C92.1093 85.4768 92.8733 84.8897 93.3391 84.0864L93.5689 83.6832C93.7344 83.3976 93.7798 83.058 93.6951 82.739C93.6104 82.4199 93.4026 82.1476 93.1173 81.9816Z" fill="black"/>
<path d="M93.8389 80.772L74.5974 69.6714C74.3096 69.5063 73.9681 69.4619 73.6477 69.5481C73.3272 69.6342 73.054 69.8439 72.8878 70.1311L72.658 70.5343C72.4266 70.9348 72.2765 71.377 72.2161 71.8356C72.1558 72.2942 72.1864 72.7602 72.3062 73.2069C72.426 73.6536 72.6327 74.0724 72.9145 74.4392C73.1962 74.806 73.5475 75.1137 73.9483 75.3447L89.2704 84.1751C89.6712 84.4063 90.1136 84.5562 90.5723 84.6162C91.0311 84.6763 91.4972 84.6453 91.9439 84.5251C92.3907 84.4049 92.8094 84.1978 93.176 83.9157C93.5427 83.6335 93.8501 83.2818 94.0808 82.8808L94.3106 82.4776C94.3918 82.3346 94.444 82.1771 94.4643 82.014C94.4845 81.8508 94.4723 81.6853 94.4285 81.5269C94.3847 81.3685 94.3101 81.2202 94.2089 81.0907C94.1077 80.9612 93.982 80.8528 93.8389 80.772Z" fill="#B90101"/>
<path d="M93.8389 80.772L74.5974 69.6714C74.3096 69.5063 73.9681 69.4619 73.6477 69.5481C73.3272 69.6342 73.054 69.8439 72.8878 70.1311L72.658 70.5343C72.4266 70.9348 72.2765 71.377 72.2161 71.8356C72.1558 72.2942 72.1864 72.7602 72.3062 73.2069C72.426 73.6536 72.6327 74.0724 72.9145 74.4392C73.1962 74.806 73.5475 75.1137 73.9483 75.3447L89.2704 84.1751C89.6712 84.4063 90.1136 84.5562 90.5723 84.6162C91.0311 84.6763 91.4972 84.6453 91.9439 84.5251C92.3907 84.4049 92.8094 84.1978 93.176 83.9157C93.5427 83.6335 93.8501 83.2818 94.0808 82.8808L94.3106 82.4776C94.3918 82.3346 94.444 82.1771 94.4643 82.014C94.4845 81.8508 94.4723 81.6853 94.4285 81.5269C94.3847 81.3685 94.3101 81.2202 94.2089 81.0907C94.1077 80.9612 93.982 80.8528 93.8389 80.772Z" fill="#B90101"/>
<path opacity="0.5" d="M93.8389 80.772L74.5974 69.6714C74.3096 69.5063 73.9681 69.4619 73.6477 69.5481C73.3272 69.6342 73.054 69.8439 72.8878 70.1311L72.658 70.5343C72.4266 70.9348 72.2765 71.377 72.2161 71.8356C72.1558 72.2942 72.1864 72.7602 72.3062 73.2069C72.426 73.6536 72.6327 74.0724 72.9145 74.4392C73.1962 74.806 73.5475 75.1137 73.9483 75.3447L89.2704 84.1751C89.6712 84.4063 90.1136 84.5562 90.5723 84.6162C91.0311 84.6763 91.4972 84.6453 91.9439 84.5251C92.3907 84.4049 92.8094 84.1978 93.176 83.9157C93.5427 83.6335 93.8501 83.2818 94.0808 82.8808L94.3106 82.4776C94.3918 82.3346 94.444 82.1771 94.4643 82.014C94.4845 81.8508 94.4723 81.6853 94.4285 81.5269C94.3847 81.3685 94.3101 81.2202 94.2089 81.0907C94.1077 80.9612 93.982 80.8528 93.8389 80.772Z" fill="white"/>
<path d="M77.8234 75.1467L77.1388 74.7518C76.7627 74.5348 76.2819 74.6638 76.0649 75.04L74.3684 77.9808C74.1514 78.3569 74.2804 78.8377 74.6565 79.0547L75.3411 79.4496C75.7172 79.6666 76.1981 79.5376 76.4151 79.1615L78.1116 76.2207C78.3286 75.8445 78.1995 75.3637 77.8234 75.1467Z" fill="#B90101"/>
<path d="M88.1873 81.122L87.5027 80.7272C87.1265 80.5103 86.6457 80.6394 86.4288 81.0156L84.7328 83.9567C84.5158 84.3328 84.6449 84.8136 85.0211 85.0306L85.7057 85.4254C86.0819 85.6423 86.5627 85.5132 86.7797 85.137L88.4757 82.1959C88.6926 81.8197 88.5635 81.3389 88.1873 81.122Z" fill="#B90101"/>
<path d="M77.8234 75.1467L77.1388 74.7518C76.7627 74.5348 76.2819 74.6638 76.0649 75.04L74.3684 77.9808C74.1514 78.3569 74.2804 78.8377 74.6565 79.0547L75.3411 79.4496C75.7172 79.6666 76.1981 79.5376 76.4151 79.1615L78.1116 76.2207C78.3286 75.8445 78.1995 75.3637 77.8234 75.1467Z" fill="white"/>
<path d="M88.1873 81.122L87.5027 80.7272C87.1265 80.5103 86.6457 80.6394 86.4288 81.0156L84.7328 83.9567C84.5158 84.3328 84.6449 84.8136 85.0211 85.0306L85.7057 85.4254C86.0819 85.6423 86.5627 85.5132 86.7797 85.137L88.4757 82.1959C88.6926 81.8197 88.5635 81.3389 88.1873 81.122Z" fill="white"/>
<path d="M92.4679 56.3533C90.1091 57.7202 86.5044 66.3692 85.7383 68.986C86.1909 68.7869 86.7004 68.7589 87.1721 68.9072C87.6438 69.0555 88.0456 69.3701 88.3027 69.7925C89.9486 66.832 91.7999 63.9904 93.8429 61.2887C94.3323 60.6604 95.0328 60.2306 95.8146 60.079C99.1573 59.4299 104.891 59.446 106.044 58.2726C107.911 56.3695 109.379 51.3978 106.709 51.8978C104.189 52.3575 94.3429 55.2606 92.4679 56.3533Z" fill="#B90101"/>
<path d="M87.9601 68.9497L86.7505 68.3933C85.3594 68.1271 85.0691 70.8488 85.0691 70.8488L88.3593 72.7198C88.3593 72.7198 88.5972 69.5585 87.9601 68.9497Z" fill="#F7978D"/>
<path d="M87.5046 74.0987L88.3715 72.7197L85.0772 70.8488L84.1015 72.5222C84.0861 72.546 84.0739 72.5718 84.0652 72.5988C84.0093 72.7389 84.0109 72.8955 84.0698 73.0344C84.1287 73.1734 84.2401 73.2834 84.3797 73.3407L86.799 74.3165C86.9234 74.3693 87.0624 74.3764 87.1916 74.3365C87.3207 74.2967 87.4316 74.2125 87.5046 74.0987Z" fill="#F7978D"/>
<path d="M114.072 57.7202C113.266 60.9983 110.274 64.7361 103.262 62.0749C100.036 60.8652 97.0445 62.9216 96.9639 62.9337C96.7542 62.9015 95.5566 65.7078 95.5566 65.7078L98.3791 66.6514C99.4114 65.2925 100.702 64.3208 102.411 64.3248C104.121 64.3288 105.814 64.6595 107.52 64.6313C112.814 64.5345 114.25 60.4298 114.923 57.7766L114.072 57.7202Z" fill="#263238"/>
<path d="M110.992 35.7852C111.141 35.7859 111.291 35.7764 111.439 35.757C112.052 35.7247 111.919 35.0715 111.153 35.0715C110.697 35.0796 110.443 35.753 110.992 35.7852Z" fill="#B90101"/>
<path d="M115.919 33.3095C115.922 33.2455 115.94 33.1831 115.971 33.1274C116.003 33.0717 116.047 33.0244 116.101 32.9893C116.155 32.9542 116.216 32.9324 116.279 32.9257C116.343 32.919 116.408 32.9275 116.467 32.9506C117.02 33.2006 117.197 34.0514 117.197 34.0514C117.197 34.0514 115.947 33.6845 115.919 33.3095Z" fill="#B90101"/>
<path d="M122.487 34.9587C122.386 34.8581 122.3 34.7425 122.233 34.6159C122.204 34.5528 122.188 34.484 122.188 34.4143C122.188 34.3447 122.204 34.2758 122.233 34.2127C122.267 34.15 122.323 34.1022 122.39 34.079C122.458 34.0559 122.531 34.059 122.596 34.0877C122.651 34.1265 122.694 34.179 122.722 34.2399C122.749 34.3008 122.76 34.368 122.753 34.4345C122.757 34.651 122.702 34.8645 122.592 35.0514" fill="#B90101"/>
<path d="M92.0809 23.9872L95.4437 22.3421L97.2017 25.6485L100.891 26.2976L100.367 30.0032L102.968 32.6967L100.367 35.3901L100.891 39.0957L97.2017 39.7449L95.4437 43.0512L92.0809 41.4061L88.714 43.0512L86.9601 39.7449L83.2706 39.0957L83.7948 35.3901L81.1941 32.6967L83.7948 30.0032L83.2706 26.2976L86.9601 25.6485L88.714 22.3421L92.0809 23.9872Z" fill="#B90101"/>
<path d="M90.7383 37.874C90.7386 37.6877 90.7767 37.5034 90.8503 37.3322C90.9238 37.161 91.0313 37.0065 91.1662 36.878C91.3011 36.7495 91.4606 36.6497 91.6352 36.5845C91.8097 36.5194 91.9957 36.4903 92.1818 36.499C92.366 36.4919 92.5497 36.5223 92.7217 36.5884C92.8938 36.6545 93.0505 36.755 93.1826 36.8836C93.3146 37.0122 93.419 37.1663 93.4896 37.3366C93.5602 37.5069 93.5954 37.6897 93.593 37.874C93.5953 38.059 93.5601 38.2426 93.4898 38.4137C93.4194 38.5848 93.3152 38.7399 93.1834 38.8698C93.0516 38.9997 92.895 39.1017 92.7229 39.1696C92.5508 39.2375 92.3668 39.27 92.1818 39.2651C91.9949 39.2716 91.8086 39.2404 91.634 39.1735C91.4593 39.1065 91.3 39.0052 91.1653 38.8754C91.0306 38.7456 90.9235 38.5901 90.8501 38.4181C90.7767 38.246 90.7387 38.061 90.7383 37.874ZM90.8592 26.6445H93.5043L93.0568 34.9991H91.2907L90.8592 26.6445Z" fill="white"/>
<path d="M86.3433 100.243H83.4563V99.9531C88.2949 99.9531 93.2181 99.9531 98.1293 99.8765V100.167C94.1939 100.215 90.2424 100.243 86.3433 100.243Z" fill="#B90101"/>
<path d="M81.0813 100.227C79.0088 100.227 76.8919 100.191 74.7871 100.159V99.8684C76.8919 99.8966 79.0088 99.9208 81.0813 99.9329V100.227Z" fill="#B90101"/>
<path d="M72.6701 99.8684H70.3113V100.159H72.6701V99.8684Z" fill="#B90101"/>
<path d="M70.0816 71.8449H55.2876V72.1352H70.0816V71.8449Z" fill="#B90101"/>
<path d="M53.6949 71.8449H52.4893V72.1352H53.6949V71.8449Z" fill="#B90101"/>
<path d="M93.2018 54.2487H86.4802V54.539H93.2018V54.2487Z" fill="#B90101"/>
<path d="M84.7665 54.2487H80.9763V54.539H84.7665V54.2487Z" fill="#B90101"/>
</svg>
